MulatAbay-BoldItalic.ufo
<glyph name="exclam" format="2">
  <advance width="527"/>
  <unicode hex="0021"/>
  <note>
uni0021
</note>
  <outline>
    <contour>
      <point x="53" y="447" type="line"/>
      <point x="293" y="447" type="line"/>
      <point x="505" y="1456" type="line"/>
      <point x="197" y="1456" type="line"/>
    </contour>
    <contour>
      <point x="91" y="-16" type="curve" smooth="yes"/>
      <point x="189" y="-16"/>
      <point x="265" y="48"/>
      <point x="280" y="136" type="curve" smooth="yes"/>
      <point x="296" y="225"/>
      <point x="243" y="289"/>
      <point x="145" y="289" type="curve" smooth="yes"/>
      <point x="49" y="289"/>
      <point x="-27" y="224"/>
      <point x="-43" y="136" type="curve" smooth="yes"/>
      <point x="-58" y="48"/>
      <point x="-5" y="-16"/>
    </contour>
  </outline>
</glyph>
<glyph name="quotedbl" format="2">
  <advance width="655"/>
  <unicode hex="0022"/>
  <note>
uni0022
</note>
  <outline>
    <contour>
      <point x="47" y="987" type="line"/>
      <point x="199" y="987" type="line"/>
      <point x="322" y="1398" type="line"/>
      <point x="346" y="1536" type="line"/>
      <point x="144" y="1536" type="line"/>
    </contour>
    <contour>
      <point x="373" y="987" type="line"/>
      <point x="525" y="987" type="line"/>
      <point x="647" y="1398" type="line"/>
      <point x="671" y="1536" type="line"/>
      <point x="470" y="1536" type="line"/>
    </contour>
  </outline>
</glyph>
<glyph name="numbersign" format="2">
  <advance width="1261"/>
  <unicode hex="0023"/>
  <note>
uni0023
</note>
  <outline>
    <contour>
      <point x="28" y="0" type="line"/>
      <point x="211" y="0" type="line"/>
      <point x="356" y="410" type="line"/>
      <point x="549" y="410" type="line"/>
      <point x="404" y="0" type="line"/>
      <point x="587" y="0" type="line"/>
      <point x="732" y="410" type="line"/>
      <point x="986" y="410" type="line"/>
      <point x="1016" y="582" type="line"/>
      <point x="792" y="582" type="line"/>
      <point x="892" y="866" type="line"/>
      <point x="1142" y="866" type="line"/>
      <point x="1173" y="1040" type="line"/>
      <point x="954" y="1040" type="line"/>
      <point x="1100" y="1456" type="line"/>
      <point x="917" y="1456" type="line"/>
      <point x="771" y="1040" type="line"/>
      <point x="577" y="1040" type="line"/>
      <point x="723" y="1456" type="line"/>
      <point x="541" y="1456" type="line"/>
      <point x="395" y="1040" type="line"/>
      <point x="132" y="1040" type="line"/>
      <point x="101" y="866" type="line"/>
      <point x="333" y="866" type="line"/>
      <point x="233" y="582" type="line"/>
      <point x="-24" y="582" type="line"/>
      <point x="-54" y="410" type="line"/>
      <point x="173" y="410" type="line"/>
    </contour>
    <contour>
      <point x="416" y="582" type="line"/>
      <point x="515" y="866" type="line"/>
      <point x="709" y="866" type="line"/>
      <point x="609" y="582" type="line"/>
    </contour>
  </outline>
</glyph>
<glyph name="dollar" format="2">
  <advance width="1150"/>
  <unicode hex="0024"/>
  <note>
uni0024
</note>
  <outline>
    <contour>
      <point x="293" y="-215" type="line"/>
      <point x="452" y="-215" type="line"/>
      <point x="487" y="-16" type="line"/>
      <point x="736" y="9"/>
      <point x="915" y="154"/>
      <point x="956" y="387" type="curve" smooth="yes"/>
      <point x="987" y="558"/>
      <point x="925" y="678"/>
      <point x="783" y="763" type="curve" smooth="yes"/>
      <point x="641" y="849"/>
      <point x="401" y="882"/>
      <point x="434" y="1069" type="curve" smooth="yes"/>
      <point x="453" y="1179"/>
      <point x="529" y="1244"/>
      <point x="634" y="1244" type="curve" smooth="yes"/>
      <point x="749" y="1244"/>
      <point x="805" y="1165"/>
      <point x="776" y="1005" type="curve"/>
      <point x="1065" y="1005" type="line"/>
      <point x="1111" y="1264"/>
      <point x="1001" y="1437"/>
      <point x="770" y="1470" type="curve"/>
      <point x="809" y="1687" type="line"/>
      <point x="649" y="1687" type="line"/>
      <point x="611" y="1473" type="line"/>
      <point x="368" y="1448"/>
      <point x="185" y="1299"/>
      <point x="144" y="1065" type="curve" smooth="yes"/>
      <point x="110" y="872"/>
      <point x="198" y="759"/>
      <point x="333" y="684" type="curve" smooth="yes"/>
      <point x="488" y="598"/>
      <point x="701" y="577"/>
      <point x="667" y="387" type="curve" smooth="yes"/>
      <point x="648" y="275"/>
      <point x="563" y="211"/>
      <point x="444" y="211" type="curve" smooth="yes"/>
      <point x="306" y="211"/>
      <point x="243" y="297"/>
      <point x="271" y="457" type="curve"/>
      <point x="-18" y="457" type="line"/>
      <point x="-66" y="188"/>
      <point x="56" y="13"/>
      <point x="328" y="-17" type="curve"/>
    </contour>
  </outline>
</glyph>
<glyph name="percent" format="2">
  <advance width="1500"/>
  <unicode hex="0025"/>
  <note>
uni0025
</note>
  <outline>
    <contour>
      <point x="297" y="109" type="line"/>
      <point x="1209" y="1247" type="line"/>
      <point x="1081" y="1323" type="line"/>
      <point x="170" y="185" type="line"/>
    </contour>
    <contour>
      <point x="915" y="-20" type="curve" smooth="yes"/>
      <point x="1105" y="-20"/>
      <point x="1251" y="100"/>
      <point x="1282" y="279" type="curve" smooth="yes"/>
      <point x="1295" y="351" type="line" smooth="yes"/>
      <point x="1329" y="542"/>
      <point x="1221" y="657"/>
      <point x="1032" y="657" type="curve" smooth="yes"/>
      <point x="845" y="657"/>
      <point x="695" y="537"/>
      <point x="663" y="357" type="curve" smooth="yes"/>
      <point x="650" y="283" type="line" smooth="yes"/>
      <point x="618" y="100"/>
      <point x="723" y="-20"/>
    </contour>
    <contour>
      <point x="944" y="146" type="curve" smooth="yes"/>
      <point x="872" y="146"/>
      <point x="828" y="206"/>
      <point x="841" y="279" type="curve" smooth="yes"/>
      <point x="855" y="354" type="line" smooth="yes"/>
      <point x="869" y="438"/>
      <point x="928" y="490"/>
      <point x="1003" y="490" type="curve" smooth="yes"/>
      <point x="1077" y="490"/>
      <point x="1117" y="437"/>
      <point x="1103" y="357" type="curve" smooth="yes"/>
      <point x="1090" y="281" type="line" smooth="yes"/>
      <point x="1074" y="191"/>
      <point x="1025" y="146"/>
    </contour>
    <contour>
      <point x="362" y="800" type="curve" smooth="yes"/>
      <point x="550" y="800"/>
      <point x="698" y="919"/>
      <point x="730" y="1099" type="curve" smooth="yes"/>
      <point x="743" y="1171" type="line" smooth="yes"/>
      <point x="776" y="1359"/>
      <point x="670" y="1477"/>
      <point x="480" y="1477" type="curve" smooth="yes"/>
      <point x="292" y="1477"/>
      <point x="143" y="1355"/>
      <point x="112" y="1176" type="curve" smooth="yes"/>
      <point x="99" y="1105" type="line" smooth="yes"/>
      <point x="66" y="918"/>
      <point x="173" y="800"/>
    </contour>
    <contour>
      <point x="392" y="966" type="curve" smooth="yes"/>
      <point x="317" y="966"/>
      <point x="276" y="1019"/>
      <point x="290" y="1099" type="curve" smooth="yes"/>
      <point x="303" y="1172" type="line" smooth="yes"/>
      <point x="318" y="1259"/>
      <point x="377" y="1310"/>
      <point x="450" y="1310" type="curve" smooth="yes"/>
      <point x="528" y="1310"/>
      <point x="565" y="1256"/>
      <point x="551" y="1176" type="curve" smooth="yes"/>
      <point x="538" y="1102" type="line" smooth="yes"/>
      <point x="523" y="1019"/>
      <point x="466" y="966"/>
    </contour>
  </outline>
</glyph>
<glyph name="ampersand" format="2">
  <advance width="1273"/>
  <unicode hex="0026"/>
  <note>
uni0026
</note>
  <outline>
    <contour>
      <point x="353" y="-20" type="curve" smooth="yes"/>
      <point x="492" y="-20"/>
      <point x="622" y="15"/>
      <point x="741" y="86" type="curve"/>
      <point x="801" y="0" type="line"/>
      <point x="1129" y="0" type="line"/>
      <point x="956" y="253" type="line"/>
      <point x="1064" y="370"/>
      <point x="1135" y="524"/>
      <point x="1168" y="713" type="curve"/>
      <point x="922" y="713" type="line"/>
      <point x="905" y="620"/>
      <point x="871" y="534"/>
      <point x="818" y="457" type="curve"/>
      <point x="618" y="749" type="line"/>
      <point x="745" y="830" type="line" smooth="yes"/>
      <point x="878" y="919"/>
      <point x="954" y="1021"/>
      <point x="975" y="1137" type="curve" smooth="yes"/>
      <point x="1009" y="1330"/>
      <point x="880" y="1476"/>
      <point x="662" y="1476" type="curve" smooth="yes"/>
      <point x="420" y="1476"/>
      <point x="238" y="1320"/>
      <point x="198" y="1093" type="curve" smooth="yes"/>
      <point x="178" y="982"/>
      <point x="214" y="886"/>
      <point x="280" y="770" type="curve"/>
      <point x="54" y="630"/>
      <point x="-27" y="527"/>
      <point x="-51" y="392" type="curve" smooth="yes"/>
      <point x="-94" y="145"/>
      <point x="65" y="-20"/>
    </contour>
    <contour>
      <point x="408" y="212" type="curve" smooth="yes"/>
      <point x="289" y="212"/>
      <point x="222" y="292"/>
      <point x="242" y="408" type="curve" smooth="yes"/>
      <point x="254" y="477"/>
      <point x="294" y="536"/>
      <point x="363" y="587" type="curve"/>
      <point x="386" y="602" type="line"/>
      <point x="615" y="270" type="line"/>
      <point x="546" y="231"/>
      <point x="477" y="212"/>
    </contour>
    <contour>
      <point x="512" y="908" type="line"/>
      <point x="467" y="984"/>
      <point x="449" y="1047"/>
      <point x="458" y="1097" type="curve" smooth="yes"/>
      <point x="473" y="1185"/>
      <point x="538" y="1243"/>
      <point x="620" y="1243" type="curve" smooth="yes"/>
      <point x="698" y="1243"/>
      <point x="742" y="1186"/>
      <point x="731" y="1119" type="curve" smooth="yes"/>
      <point x="719" y="1052"/>
      <point x="686" y="1010"/>
      <point x="598" y="959" type="curve" smooth="yes"/>
    </contour>
  </outline>
</glyph>
<glyph name="parenright" format="2">
  <advance width="712"/>
  <unicode hex="0029"/>
  <note>
uni0029
</note>
  <outline>
    <contour>
      <point x="-175" y="-455" type="line"/>
      <point x="24" y="-375"/>
      <point x="241" y="-145"/>
      <point x="377" y="134" type="curve" smooth="yes"/>
      <point x="445" y="273"/>
      <point x="492" y="418"/>
      <point x="519" y="569" type="curve" smooth="yes"/>
      <point x="555" y="793"/>
      <point x="550" y="993"/>
      <point x="506" y="1163" type="curve" smooth="yes"/>
      <point x="462" y="1337"/>
      <point x="357" y="1537"/>
      <point x="190" y="1616" type="curve"/>
      <point x="107" y="1463" type="line"/>
      <point x="186" y="1392"/>
      <point x="241" y="1284"/>
      <point x="268" y="1144" type="curve" smooth="yes"/>
      <point x="300" y="984"/>
      <point x="296" y="781"/>
      <point x="254" y="541" type="curve" smooth="yes"/>
      <point x="216" y="341"/>
      <point x="152" y="160"/>
      <point x="70" y="13" type="curve" smooth="yes"/>
      <point x="-7" y="-124"/>
      <point x="-101" y="-233"/>
      <point x="-204" y="-302" type="curve"/>
    </contour>
  </outline>
</glyph>
<glyph name="asterisk" format="2">
  <advance width="882"/>
  <unicode hex="002A"/>
  <note>
uni002A
</note>
  <outline>
    <contour>
      <point x="556" y="572" type="line"/>
      <point x="735" y="685" type="line"/>
      <point x="572" y="951" type="line"/>
      <point x="908" y="1040" type="line"/>
      <point x="881" y="1223" type="line"/>
      <point x="556" y="1100" type="line"/>
      <point x="639" y="1456" type="line"/>
      <point x="443" y="1456" type="line"/>
      <point x="401" y="1107" type="line"/>
      <point x="112" y="1232" type="line"/>
      <point x="22" y="1051" type="line"/>
      <point x="320" y="962" type="line"/>
      <point x="56" y="690" type="line"/>
      <point x="196" y="582" type="line"/>
      <point x="426" y="864" type="line"/>
    </contour>
  </outline>
</glyph>
<glyph name="plus" format="2">
  <advance width="1161"/>
  <unicode hex="002B"/>
  <note>
uni002B
</note>
  <outline>
    <contour>
      <point x="254" y="146" type="line"/>
      <point x="529" y="146" type="line"/>
      <point x="601" y="554" type="line"/>
      <point x="962" y="554" type="line"/>
      <point x="1008" y="815" type="line"/>
      <point x="647" y="815" type="line"/>
      <point x="716" y="1206" type="line"/>
      <point x="441" y="1206" type="line"/>
      <point x="372" y="815" type="line"/>
      <point x="10" y="815" type="line"/>
      <point x="-36" y="554" type="line"/>
      <point x="326" y="554" type="line"/>
    </contour>
  </outline>
</glyph>
<glyph name="hyphen" format="2">
  <advance width="565"/>
  <unicode hex="002D"/>
  <note>
uni002D
</note>
  <outline>
    <contour>
      <point x="9" y="507" type="line"/>
      <point x="572" y="507" type="line"/>
      <point x="613" y="740" type="line"/>
      <point x="50" y="740" type="line"/>
    </contour>
  </outline>
</glyph>
<glyph name="period" format="2">
  <advance width="539"/>
  <unicode hex="002E"/>
  <note>
uni002E
</note>
  <outline>
    <contour>
      <point x="96" y="-11" type="curve" smooth="yes"/>
      <point x="192" y="-11"/>
      <point x="271" y="51"/>
      <point x="287" y="142" type="curve" smooth="yes"/>
      <point x="303" y="234"/>
      <point x="245" y="297"/>
      <point x="151" y="297" type="curve" smooth="yes"/>
      <point x="57" y="297"/>
      <point x="-24" y="234"/>
      <point x="-40" y="142" type="curve" smooth="yes"/>
      <point x="-56" y="51"/>
      <point x="2" y="-11"/>
    </contour>
  </outline>
</glyph>
<glyph name="zero" format="2">
  <advance width="1150"/>
  <unicode hex="0030"/>
  <note>
uni0030
</note>
  <outline>
    <contour>
      <point x="394" y="-20" type="curve" smooth="yes"/>
      <point x="715" y="-20"/>
      <point x="923" y="199"/>
      <point x="994" y="602" type="curve" smooth="yes"/>
      <point x="1042" y="870" type="line" smooth="yes"/>
      <point x="1111" y="1261"/>
      <point x="973" y="1476"/>
      <point x="655" y="1476" type="curve" smooth="yes"/>
      <point x="338" y="1476"/>
      <point x="127" y="1262"/>
      <point x="55" y="855" type="curve" smooth="yes"/>
      <point x="8" y="587" type="line" smooth="yes"/>
      <point x="-61" y="196"/>
      <point x="76" y="-20"/>
    </contour>
    <contour>
      <point x="435" y="213" type="curve" smooth="yes"/>
      <point x="292" y="213"/>
      <point x="251" y="327"/>
      <point x="293" y="564" type="curve" smooth="yes"/>
      <point x="355" y="918" type="line" smooth="yes"/>
      <point x="394" y="1141"/>
      <point x="478" y="1242"/>
      <point x="614" y="1242" type="curve" smooth="yes"/>
      <point x="754" y="1242"/>
      <point x="800" y="1137"/>
      <point x="757" y="896" type="curve" smooth="yes"/>
      <point x="696" y="550" type="line" smooth="yes"/>
      <point x="656" y="322"/>
      <point x="573" y="213"/>
    </contour>
  </outline>
</glyph>
<glyph name="two" format="2">
  <advance width="1150"/>
  <unicode hex="0032"/>
  <note>
uni0032
</note>
  <outline>
    <contour>
      <point x="-92" y="0" type="line"/>
      <point x="906" y="0" type="line"/>
      <point x="947" y="233" type="line"/>
      <point x="321" y="233" type="line"/>
      <point x="714" y="582" type="line" smooth="yes"/>
      <point x="930" y="781"/>
      <point x="1021" y="919"/>
      <point x="1047" y="1063" type="curve" smooth="yes"/>
      <point x="1093" y="1326"/>
      <point x="945" y="1476"/>
      <point x="645" y="1476" type="curve" smooth="yes"/>
      <point x="347" y="1476"/>
      <point x="104" y="1272"/>
      <point x="55" y="998" type="curve"/>
      <point x="345" y="998" type="line"/>
      <point x="371" y="1145"/>
      <point x="469" y="1243"/>
      <point x="599" y="1243" type="curve" smooth="yes"/>
      <point x="721" y="1243"/>
      <point x="775" y="1164"/>
      <point x="752" y="1035" type="curve" smooth="yes"/>
      <point x="735" y="940"/>
      <point x="657" y="841"/>
      <point x="503" y="700" type="curve" smooth="yes"/>
      <point x="-57" y="198" type="line"/>
    </contour>
  </outline>
</glyph>
<glyph name="three" format="2">
  <advance width="1150"/>
  <unicode hex="0033"/>
  <note>
uni0033
</note>
  <outline>
    <contour>
      <point x="365" y="-20" type="curve" smooth="yes"/>
      <point x="675" y="-20"/>
      <point x="911" y="149"/>
      <point x="956" y="408" type="curve" smooth="yes"/>
      <point x="984" y="568"/>
      <point x="926" y="689"/>
      <point x="772" y="748" type="curve"/>
      <point x="915" y="808"/>
      <point x="1025" y="928"/>
      <point x="1048" y="1061" type="curve" smooth="yes"/>
      <point x="1094" y="1320"/>
      <point x="936" y="1476"/>
      <point x="628" y="1476" type="curve" smooth="yes"/>
      <point x="373" y="1476"/>
      <point x="125" y="1326"/>
      <point x="81" y="1079" type="curve" name="❌"/>
      <point x="370" y="1079" type="line" name="❌"/>
      <point x="388" y="1176"/>
      <point x="484" y="1243"/>
      <point x="594" y="1243" type="curve" smooth="yes"/>
      <point x="717" y="1243"/>
      <point x="779" y="1174"/>
      <point x="759" y="1057" type="curve" smooth="yes"/>
      <point x="737" y="936"/>
      <point x="654" y="856"/>
      <point x="507" y="856" type="curve" smooth="yes"/>
      <point x="353" y="856" type="line"/>
      <point x="313" y="630" type="line"/>
      <point x="466" y="630" type="line" smooth="yes"/>
      <point x="626" y="630"/>
      <point x="693" y="557"/>
      <point x="668" y="412" type="curve" smooth="yes"/>
      <point x="647" y="292"/>
      <point x="550" y="213"/>
      <point x="413" y="213" type="curve" smooth="yes"/>
      <point x="293" y="213"/>
      <point x="213" y="290"/>
      <point x="233" y="399" type="curve"/>
      <point x="-56" y="399" type="line"/>
      <point x="-101" y="147"/>
      <point x="74" y="-20"/>
    </contour>
  </outline>
</glyph>
<glyph name="four" format="2">
  <advance width="1150"/>
  <unicode hex="0034"/>
  <note>
uni0034
</note>
  <outline>
    <contour>
      <point x="474" y="0" type="line"/>
      <point x="763" y="0" type="line"/>
      <point x="819" y="315" type="line"/>
      <point x="984" y="315" type="line"/>
      <point x="1025" y="548" type="line"/>
      <point x="860" y="548" type="line"/>
      <point x="1020" y="1456" type="line"/>
      <point x="728" y="1456" type="line"/>
      <point x="-48" y="497" type="line"/>
      <point x="-67" y="315" type="line"/>
      <point x="530" y="315" type="line"/>
    </contour>
    <contour>
      <point x="249" y="548" type="line"/>
      <point x="661" y="1062" type="line"/>
      <point x="571" y="548" type="line"/>
    </contour>
  </outline>
</glyph>
<glyph name="five" format="2">
  <advance width="1150"/>
  <unicode hex="0035"/>
  <note>
uni0035
</note>
  <outline>
    <contour>
      <point x="404" y="-20" type="curve" smooth="yes"/>
      <point x="719" y="-20"/>
      <point x="933" y="191"/>
      <point x="982" y="467" type="curve" smooth="yes"/>
      <point x="1036" y="776"/>
      <point x="901" y="957"/>
      <point x="624" y="957" type="curve" smooth="yes"/>
      <point x="547" y="957"/>
      <point x="470" y="939"/>
      <point x="395" y="902" type="curve"/>
      <point x="486" y="1215" type="line"/>
      <point x="1065" y="1215" type="line"/>
      <point x="1108" y="1456" type="line"/>
      <point x="292" y="1456" type="line"/>
      <point x="77" y="716" type="line"/>
      <point x="297" y="659" type="line"/>
      <point x="378" y="723"/>
      <point x="438" y="739"/>
      <point x="507" y="739" type="curve" smooth="yes"/>
      <point x="656" y="739"/>
      <point x="725" y="648"/>
      <point x="695" y="483" type="curve" smooth="yes"/>
      <point x="665" y="311"/>
      <point x="574" y="213"/>
      <point x="444" y="213" type="curve" smooth="yes"/>
      <point x="326" y="213"/>
      <point x="262" y="284"/>
      <point x="272" y="405" type="curve"/>
      <point x="-14" y="405" type="line"/>
      <point x="-69" y="29"/>
      <point x="306" y="-20"/>
    </contour>
  </outline>
</glyph>
<glyph name="six" format="2">
  <advance width="1150"/>
  <unicode hex="0036"/>
  <note>
uni0036
</note>
  <outline>
    <contour>
      <point x="419" y="-20" type="curve" smooth="yes"/>
      <point x="845" y="-18"/>
      <point x="985" y="410"/>
      <point x="997" y="480" type="curve" smooth="yes"/>
      <point x="1049" y="776"/>
      <point x="923" y="974"/>
      <point x="670" y="974" type="curve" smooth="yes"/>
      <point x="552" y="974"/>
      <point x="447" y="935"/>
      <point x="356" y="856" type="curve"/>
      <point x="430" y="1091"/>
      <point x="631" y="1233"/>
      <point x="910" y="1233" type="curve"/>
      <point x="952" y="1471" type="line"/>
      <point x="446" y="1469"/>
      <point x="111" y="1144"/>
      <point x="28" y="671" type="curve" smooth="yes"/>
      <point x="9" y="567" type="line" smooth="yes"/>
      <point x="-54" y="211"/>
      <point x="112" y="-20"/>
    </contour>
    <contour>
      <point x="454" y="213" type="curve" smooth="yes"/>
      <point x="316" y="213"/>
      <point x="257" y="328"/>
      <point x="291" y="521" type="curve" smooth="yes"/>
      <point x="307" y="609" type="line"/>
      <point x="357" y="689"/>
      <point x="448" y="742"/>
      <point x="541" y="742" type="curve" smooth="yes"/>
      <point x="672" y="742"/>
      <point x="736" y="636"/>
      <point x="708" y="477" type="curve" smooth="yes"/>
      <point x="681" y="321"/>
      <point x="578" y="213"/>
    </contour>
  </outline>
</glyph>
<glyph name="eight" format="2">
  <advance width="1150"/>
  <unicode hex="0038"/>
  <note>
uni0038
</note>
  <outline>
    <contour>
      <point x="394" y="-20" type="curve" smooth="yes"/>
      <point x="696" y="-20"/>
      <point x="913" y="140"/>
      <point x="959" y="399" type="curve" smooth="yes"/>
      <point x="987" y="560"/>
      <point x="920" y="682"/>
      <point x="790" y="750" type="curve"/>
      <point x="926" y="815"/>
      <point x="1021" y="928"/>
      <point x="1046" y="1069" type="curve" smooth="yes"/>
      <point x="1090" y="1320"/>
      <point x="939" y="1476"/>
      <point x="656" y="1476" type="curve" smooth="yes"/>
      <point x="372" y="1476"/>
      <point x="167" y="1317"/>
      <point x="124" y="1069" type="curve" smooth="yes"/>
      <point x="99" y="928"/>
      <point x="153" y="815"/>
      <point x="265" y="750" type="curve"/>
      <point x="114" y="683"/>
      <point x="3" y="560"/>
      <point x="-25" y="399" type="curve" smooth="yes"/>
      <point x="-71" y="142"/>
      <point x="91" y="-20"/>
    </contour>
    <contour>
      <point x="435" y="213" type="curve" smooth="yes"/>
      <point x="307" y="213"/>
      <point x="245" y="296"/>
      <point x="267" y="420" type="curve" smooth="yes"/>
      <point x="290" y="548"/>
      <point x="383" y="629"/>
      <point x="506" y="629" type="curve" smooth="yes"/>
      <point x="630" y="629"/>
      <point x="695" y="547"/>
      <point x="672" y="420" type="curve" smooth="yes"/>
      <point x="649" y="291"/>
      <point x="560" y="213"/>
    </contour>
    <contour>
      <point x="549" y="862" type="curve" smooth="yes"/>
      <point x="440" y="862"/>
      <point x="391" y="939"/>
      <point x="411" y="1055" type="curve" smooth="yes"/>
      <point x="432" y="1172"/>
      <point x="507" y="1243"/>
      <point x="615" y="1243" type="curve" smooth="yes"/>
      <point x="725" y="1243"/>
      <point x="774" y="1168"/>
      <point x="754" y="1055" type="curve" smooth="yes"/>
      <point x="734" y="939"/>
      <point x="659" y="862"/>
    </contour>
  </outline>
</glyph>
<glyph name="nine" format="2">
  <advance width="1150"/>
  <unicode hex="0039"/>
  <note>
uni0039
</note>
  <outline>
    <contour>
      <point x="110" y="-14" type="line"/>
      <point x="181" y="-13" type="line" smooth="yes"/>
      <point x="627" y="6"/>
      <point x="929" y="296"/>
      <point x="1015" y="781" type="curve" smooth="yes"/>
      <point x="1034" y="888" type="line" smooth="yes"/>
      <point x="1089" y="1213"/>
      <point x="961" y="1476"/>
      <point x="644" y="1476" type="curve" smooth="yes"/>
      <point x="393" y="1476"/>
      <point x="243" y="1324"/>
      <point x="158" y="1185" type="curve" smooth="yes"/>
      <point x="94" y="1079"/>
      <point x="68" y="980"/>
      <point x="65" y="961" type="curve" smooth="yes"/>
      <point x="12" y="661"/>
      <point x="146" y="471"/>
      <point x="403" y="471" type="curve" smooth="yes"/>
      <point x="504" y="471"/>
      <point x="598" y="508"/>
      <point x="687" y="582" type="curve"/>
      <point x="627" y="357"/>
      <point x="470" y="239"/>
      <point x="216" y="228" type="curve" smooth="yes"/>
      <point x="152" y="227" type="line"/>
    </contour>
    <contour>
      <point x="513" y="692" type="curve" smooth="yes"/>
      <point x="381" y="692"/>
      <point x="325" y="805"/>
      <point x="353" y="964" type="curve" smooth="yes"/>
      <point x="381" y="1124"/>
      <point x="485" y="1243"/>
      <point x="601" y="1243" type="curve" smooth="yes"/>
      <point x="727" y="1243"/>
      <point x="787" y="1130"/>
      <point x="753" y="934" type="curve" smooth="yes"/>
      <point x="732" y="815" type="line"/>
      <point x="685" y="747"/>
      <point x="607" y="692"/>
    </contour>
  </outline>
</glyph>
<glyph name="less" format="2">
  <advance width="1041"/>
  <unicode hex="003C"/>
  <note>
uni003C
</note>
  <outline>
    <contour>
      <point x="748" y="137" type="line"/>
      <point x="798" y="417" type="line"/>
      <point x="263" y="618" type="line"/>
      <point x="869" y="823" type="line"/>
      <point x="919" y="1103" type="line"/>
      <point x="-7" y="738" type="line"/>
      <point x="-48" y="502" type="line"/>
    </contour>
  </outline>
</glyph>
<glyph name="equal" format="2">
  <advance width="1124"/>
  <unicode hex="003D"/>
  <note>
uni003D
</note>
  <outline>
    <contour>
      <point x="77" y="746" type="line"/>
      <point x="971" y="746" type="line"/>
      <point x="1012" y="982" type="line"/>
      <point x="118" y="982" type="line"/>
    </contour>
    <contour>
      <point x="0" y="313" type="line"/>
      <point x="894" y="313" type="line"/>
      <point x="936" y="549" type="line"/>
      <point x="42" y="549" type="line"/>
    </contour>
  </outline>
</glyph>
<glyph name="greater" format="2">
  <advance width="1070"/>
  <unicode hex="003E"/>
  <note>
uni003E
</note>
  <outline>
    <contour>
      <point x="-47" y="136" type="line"/>
      <point x="889" y="502" type="line"/>
      <point x="930" y="737" type="line"/>
      <point x="124" y="1102" type="line"/>
      <point x="75" y="824" type="line"/>
      <point x="620" y="621" type="line"/>
      <point x="2" y="415" type="line"/>
    </contour>
  </outline>
</glyph>
<glyph name="question" format="2">
  <advance width="967"/>
  <unicode hex="003F"/>
  <note>
uni003F
</note>
  <outline>
    <contour>
      <point x="235" y="447" type="curve"/>
      <point x="491" y="447" type="line"/>
      <point x="525" y="573"/>
      <point x="563" y="630"/>
      <point x="623" y="679" type="curve" smooth="yes"/>
      <point x="866" y="879"/>
      <point x="926" y="971"/>
      <point x="946" y="1084" type="curve" smooth="yes"/>
      <point x="990" y="1333"/>
      <point x="852" y="1476"/>
      <point x="569" y="1476" type="curve" smooth="yes"/>
      <point x="289" y="1476"/>
      <point x="90" y="1324"/>
      <point x="43" y="1069" type="curve"/>
      <point x="333" y="1069" type="line"/>
      <point x="354" y="1176"/>
      <point x="429" y="1240"/>
      <point x="528" y="1240" type="curve" smooth="yes"/>
      <point x="632" y="1240"/>
      <point x="674" y="1184"/>
      <point x="654" y="1071" type="curve" smooth="yes"/>
      <point x="641" y="996"/>
      <point x="601" y="941"/>
      <point x="462" y="834" type="curve" smooth="yes"/>
      <point x="322" y="726"/>
      <point x="268" y="634"/>
    </contour>
    <contour>
      <point x="287" y="-12" type="curve" smooth="yes"/>
      <point x="384" y="-12"/>
      <point x="460" y="52"/>
      <point x="476" y="140" type="curve" smooth="yes"/>
      <point x="492" y="229"/>
      <point x="436" y="294"/>
      <point x="341" y="294" type="curve" smooth="yes"/>
      <point x="246" y="294"/>
      <point x="168" y="229"/>
      <point x="152" y="140" type="curve" smooth="yes"/>
      <point x="136" y="52"/>
      <point x="190" y="-12"/>
    </contour>
  </outline>
</glyph>
<glyph name="at" format="2">
  <advance width="1839"/>
  <unicode hex="0040"/>
  <note>
uni0040
</note>
  <outline>
    <contour>
      <point x="623" y="-453" type="curve" smooth="yes"/>
      <point x="763" y="-453"/>
      <point x="921" y="-417"/>
      <point x="1012" y="-364" type="curve"/>
      <point x="1001" y="-210" type="line"/>
      <point x="906" y="-251"/>
      <point x="769" y="-278"/>
      <point x="658" y="-278" type="curve" smooth="yes"/>
      <point x="238" y="-278"/>
      <point x="69" y="-9"/>
      <point x="174" y="463" type="curve" smooth="yes"/>
      <point x="243" y="774"/>
      <point x="407" y="1024"/>
      <point x="632" y="1155" type="curve" smooth="yes"/>
      <point x="744" y="1220"/>
      <point x="864" y="1253"/>
      <point x="993" y="1253" type="curve" smooth="yes"/>
      <point x="1405" y="1253"/>
      <point x="1577" y="994"/>
      <point x="1472" y="529" type="curve" smooth="yes"/>
      <point x="1424" y="297"/>
      <point x="1305" y="140"/>
      <point x="1182" y="140" type="curve" smooth="yes"/>
      <point x="1102" y="140"/>
      <point x="1074" y="198"/>
      <point x="1106" y="303" type="curve"/>
      <point x="1259" y="881" type="line"/>
      <point x="1144" y="968"/>
      <point x="1066" y="990"/>
      <point x="971" y="990" type="curve" smooth="yes"/>
      <point x="816" y="990"/>
      <point x="660" y="895"/>
      <point x="542" y="724" type="curve" smooth="yes"/>
      <point x="484" y="638"/>
      <point x="438" y="540"/>
      <point x="407" y="430" type="curve" smooth="yes"/>
      <point x="333" y="161"/>
      <point x="419" y="-18"/>
      <point x="614" y="-18" type="curve" smooth="yes"/>
      <point x="721" y="-18"/>
      <point x="817" y="29"/>
      <point x="900" y="122" type="curve"/>
      <point x="926" y="30"/>
      <point x="1003" y="-21"/>
      <point x="1118" y="-21" type="curve" smooth="yes"/>
      <point x="1378" y="-21"/>
      <point x="1578" y="195"/>
      <point x="1653" y="536" type="curve" smooth="yes"/>
      <point x="1810" y="1265"/>
      <point x="1226" y="1416"/>
      <point x="1026" y="1416" type="curve" smooth="yes"/>
      <point x="697" y="1416"/>
      <point x="395" y="1250"/>
      <point x="191" y="958" type="curve" smooth="yes"/>
      <point x="89" y="812"/>
      <point x="18" y="647"/>
      <point x="-22" y="463" type="curve" smooth="yes"/>
      <point x="-106" y="79"/>
      <point x="-31" y="-205"/>
      <point x="192" y="-347" type="curve" smooth="yes"/>
      <point x="304" y="-418"/>
      <point x="447" y="-453"/>
    </contour>
    <contour>
      <point x="715" y="161" type="curve" smooth="yes"/>
      <point x="613" y="161"/>
      <point x="583" y="254"/>
      <point x="629" y="430" type="curve" smooth="yes"/>
      <point x="699" y="681"/>
      <point x="805" y="814"/>
      <point x="958" y="814" type="curve" smooth="yes"/>
      <point x="985" y="814"/>
      <point x="1011" y="810"/>
      <point x="1035" y="801" type="curve"/>
      <point x="910" y="328" type="line"/>
      <point x="852" y="220"/>
      <point x="780" y="161"/>
    </contour>
  </outline>
</glyph>
<glyph name="B" format="2">
  <advance width="1275"/>
  <unicode hex="0042"/>
  <note>
uni0042
</note>
  <outline>
    <contour>
      <point x="-61" y="0" type="line"/>
      <point x="505" y="0" type="line" smooth="yes"/>
      <point x="836" y="3"/>
      <point x="1047" y="148"/>
      <point x="1097" y="428" type="curve" smooth="yes"/>
      <point x="1126" y="592"/>
      <point x="1055" y="712"/>
      <point x="912" y="749" type="curve"/>
      <point x="1052" y="800"/>
      <point x="1149" y="914"/>
      <point x="1175" y="1057" type="curve" smooth="yes"/>
      <point x="1221" y="1318"/>
      <point x="1059" y="1456"/>
      <point x="706" y="1456" type="curve" smooth="yes"/>
      <point x="196" y="1456" type="line"/>
    </contour>
    <contour>
      <point x="282" y="241" type="line"/>
      <point x="351" y="634" type="line"/>
      <point x="626" y="634" type="line" smooth="yes"/>
      <point x="764" y="632"/>
      <point x="821" y="564"/>
      <point x="797" y="431" type="curve" smooth="yes"/>
      <point x="776" y="312"/>
      <point x="680" y="241"/>
      <point x="539" y="241" type="curve" smooth="yes"/>
    </contour>
    <contour>
      <point x="388" y="846" type="line"/>
      <point x="453" y="1213" type="line"/>
      <point x="663" y="1213" type="line" smooth="yes"/>
      <point x="828" y="1213"/>
      <point x="893" y="1159"/>
      <point x="869" y="1027" type="curve" smooth="yes"/>
      <point x="848" y="909"/>
      <point x="762" y="849"/>
      <point x="610" y="846" type="curve" smooth="yes"/>
    </contour>
  </outline>
</glyph>
<glyph name="C" format="2">
  <advance width="1333"/>
  <unicode hex="0043"/>
  <note>
uni0043
</note>
  <outline>
    <contour>
      <point x="493" y="-20" type="curve" smooth="yes"/>
      <point x="834" y="-20"/>
      <point x="1090" y="172"/>
      <point x="1168" y="485" type="curve"/>
      <point x="868" y="485" type="line"/>
      <point x="823" y="308"/>
      <point x="721" y="225"/>
      <point x="536" y="225" type="curve" smooth="yes"/>
      <point x="331" y="225"/>
      <point x="263" y="364"/>
      <point x="319" y="679" type="curve" smooth="yes"/>
      <point x="338" y="789" type="line" smooth="yes"/>
      <point x="394" y="1090"/>
      <point x="517" y="1230"/>
      <point x="717" y="1230" type="curve" smooth="yes"/>
      <point x="901" y="1230"/>
      <point x="972" y="1150"/>
      <point x="954" y="962" type="curve"/>
      <point x="1254" y="962" type="line"/>
      <point x="1279" y="1287"/>
      <point x="1096" y="1476"/>
      <point x="760" y="1476" type="curve" smooth="yes"/>
      <point x="518" y="1476"/>
      <point x="307" y="1358"/>
      <point x="171" y="1145" type="curve" smooth="yes"/>
      <point x="103" y="1038"/>
      <point x="57" y="915"/>
      <point x="32" y="775" type="curve" smooth="yes"/>
      <point x="16" y="686" type="line" smooth="yes"/>
      <point x="-61" y="247"/>
      <point x="119" y="-20"/>
    </contour>
  </outline>
</glyph>
<glyph name="D" format="2">
  <advance width="1343"/>
  <unicode hex="0044"/>
  <note>
uni0044
</note>
  <outline>
    <contour>
      <point x="-61" y="0" type="line"/>
      <point x="390" y="0" type="line" smooth="yes"/>
      <point x="974" y="7"/>
      <point x="1157" y="594"/>
      <point x="1175" y="694" type="curve" smooth="yes"/>
      <point x="1186" y="761" type="line" smooth="yes"/>
      <point x="1257" y="1163"/>
      <point x="1046" y="1456"/>
      <point x="644" y="1456" type="curve" smooth="yes"/>
      <point x="196" y="1456" type="line"/>
    </contour>
    <contour>
      <point x="282" y="241" type="line"/>
      <point x="453" y="1213" type="line"/>
      <point x="601" y="1213" type="line" smooth="yes"/>
      <point x="837" y="1213"/>
      <point x="935" y="1058"/>
      <point x="883" y="762" type="curve" smooth="yes"/>
      <point x="869" y="685" type="line" smooth="yes"/>
      <point x="816" y="400"/>
      <point x="661" y="241"/>
      <point x="427" y="241" type="curve" smooth="yes"/>
    </contour>
  </outline>
</glyph>
<glyph name="G" format="2">
  <advance width="1395"/>
  <unicode hex="0047"/>
  <note>
uni0047
</note>
  <outline>
    <contour>
      <point x="531" y="-20" type="curve" smooth="yes"/>
      <point x="771" y="-20"/>
      <point x="993" y="55"/>
      <point x="1124" y="184" type="curve"/>
      <point x="1226" y="765" type="line"/>
      <point x="653" y="765" type="line"/>
      <point x="614" y="544" type="line"/>
      <point x="887" y="544" type="line"/>
      <point x="843" y="293" type="line"/>
      <point x="786" y="245"/>
      <point x="702" y="221"/>
      <point x="589" y="221" type="curve" smooth="yes"/>
      <point x="365" y="221"/>
      <point x="275" y="379"/>
      <point x="329" y="684" type="curve" smooth="yes"/>
      <point x="345" y="777" type="line" smooth="yes"/>
      <point x="400" y="1080"/>
      <point x="536" y="1234"/>
      <point x="740" y="1234" type="curve" smooth="yes"/>
      <point x="900" y="1234"/>
      <point x="977" y="1160"/>
      <point x="974" y="993" type="curve"/>
      <point x="1266" y="993" type="line"/>
      <point x="1286" y="1308"/>
      <point x="1118" y="1476"/>
      <point x="773" y="1476" type="curve" smooth="yes"/>
      <point x="369" y="1476"/>
      <point x="111" y="1178"/>
      <point x="39" y="770" type="curve" smooth="yes"/>
      <point x="22" y="671" type="line" smooth="yes"/>
      <point x="-67" y="130"/>
      <point x="352" y="-20"/>
    </contour>
  </outline>
</glyph>
<glyph name="H" format="2">
  <advance width="1460"/>
  <unicode hex="0048"/>
  <note>
uni0048
</note>
  <outline>
    <contour>
      <point x="-61" y="0" type="line"/>
      <point x="239" y="0" type="line"/>
      <point x="349" y="624" type="line"/>
      <point x="934" y="624" type="line"/>
      <point x="824" y="0" type="line"/>
      <point x="1124" y="0" type="line"/>
      <point x="1381" y="1456" type="line"/>
      <point x="1081" y="1456" type="line"/>
      <point x="977" y="866" type="line"/>
      <point x="392" y="866" type="line"/>
      <point x="496" y="1456" type="line"/>
      <point x="196" y="1456" type="line"/>
    </contour>
  </outline>
</glyph>
<glyph name="J" format="2">
  <advance width="1130"/>
  <unicode hex="004A"/>
  <note>
uni004A
</note>
  <outline>
    <contour>
      <point x="335" y="-20" type="curve" smooth="yes"/>
      <point x="763" y="-17"/>
      <point x="893" y="377"/>
      <point x="905" y="448" type="curve" smooth="yes"/>
      <point x="1083" y="1456" type="line"/>
      <point x="783" y="1456" type="line"/>
      <point x="605" y="448" type="line" smooth="yes"/>
      <point x="580" y="303"/>
      <point x="492" y="221"/>
      <point x="377" y="221" type="curve" smooth="yes"/>
      <point x="248" y="221"/>
      <point x="202" y="287"/>
      <point x="227" y="430" type="curve"/>
      <point x="-75" y="430" type="line"/>
      <point x="-126" y="143"/>
      <point x="27" y="-20"/>
    </contour>
  </outline>
</glyph>
<glyph name="K" format="2">
  <advance width="1284"/>
  <unicode hex="004B"/>
  <note>
uni004B
</note>
  <outline>
    <contour>
      <point x="-61" y="0" type="line"/>
      <point x="239" y="0" type="line"/>
      <point x="313" y="416" type="line"/>
      <point x="498" y="584" type="line"/>
      <point x="769" y="0" type="line"/>
      <point x="1126" y="0" type="line"/>
      <point x="737" y="809" type="line"/>
      <point x="1368" y="1456" type="line"/>
      <point x="999" y="1456" type="line"/>
      <point x="380" y="796" type="line"/>
      <point x="496" y="1456" type="line"/>
      <point x="196" y="1456" type="line"/>
    </contour>
  </outline>
</glyph>
<glyph name="M" format="2">
  <advance width="1788"/>
  <unicode hex="004D"/>
  <note>
uni004D
</note>
  <outline>
    <contour>
      <point x="-61" y="0" type="line"/>
      <point x="239" y="0" type="line"/>
      <point x="400" y="1084" type="line" name="❌"/>
      <point x="601" y="0" type="line"/>
      <point x="807" y="0" type="line"/>
      <point x="1392" y="1085" type="line" name="❌"/>
      <point x="1170" y="0" type="line"/>
      <point x="1471" y="0" type="line"/>
      <point x="1728" y="1456" type="line"/>
      <point x="1334" y="1456" type="line"/>
      <point x="776" y="400" type="line"/>
      <point x="588" y="1456" type="line"/>
      <point x="196" y="1456" type="line"/>
    </contour>
  </outline>
</glyph>
<glyph name="O" format="2">
  <advance width="1408"/>
  <unicode hex="004F"/>
  <note>
uni004F
</note>
  <outline>
    <contour>
      <point x="514" y="-20" type="curve" smooth="yes"/>
      <point x="758" y="-20"/>
      <point x="976" y="102"/>
      <point x="1115" y="318" type="curve" smooth="yes"/>
      <point x="1185" y="426"/>
      <point x="1232" y="552"/>
      <point x="1258" y="695" type="curve" smooth="yes"/>
      <point x="1269" y="760" type="line" smooth="yes"/>
      <point x="1320" y="1045"/>
      <point x="1252" y="1272"/>
      <point x="1084" y="1389" type="curve" smooth="yes"/>
      <point x="999" y="1447"/>
      <point x="897" y="1476"/>
      <point x="775" y="1476" type="curve" smooth="yes"/>
      <point x="533" y="1476"/>
      <point x="315" y="1356"/>
      <point x="173" y="1138" type="curve" smooth="yes"/>
      <point x="102" y="1029"/>
      <point x="54" y="902"/>
      <point x="29" y="759" type="curve" smooth="yes"/>
      <point x="16" y="687" type="line" smooth="yes"/>
      <point x="-32" y="407"/>
      <point x="37" y="183"/>
      <point x="206" y="67" type="curve" smooth="yes"/>
      <point x="290" y="9"/>
      <point x="393" y="-20"/>
    </contour>
    <contour>
      <point x="557" y="226" type="curve" smooth="yes"/>
      <point x="352" y="226"/>
      <point x="269" y="398"/>
      <point x="322" y="695" type="curve" smooth="yes"/>
      <point x="334" y="766" type="line" smooth="yes"/>
      <point x="389" y="1069"/>
      <point x="530" y="1228"/>
      <point x="732" y="1228" type="curve" smooth="yes"/>
      <point x="934" y="1228"/>
      <point x="1019" y="1066"/>
      <point x="965" y="761" type="curve" smooth="yes"/>
      <point x="953" y="690" type="line" smooth="yes"/>
      <point x="898" y="387"/>
      <point x="758" y="226"/>
    </contour>
  </outline>
</glyph>
<glyph name="P" format="2">
  <advance width="1292"/>
  <unicode hex="0050"/>
  <note>
uni0050
</note>
  <outline>
    <contour>
      <point x="-61" y="0" type="line"/>
      <point x="239" y="0" type="line"/>
      <point x="330" y="513" type="line"/>
      <point x="593" y="513" type="line" smooth="yes"/>
      <point x="938" y="513"/>
      <point x="1176" y="689"/>
      <point x="1226" y="974" type="curve" smooth="yes"/>
      <point x="1285" y="1324"/>
      <point x="920" y="1456"/>
      <point x="764" y="1456" type="curve" smooth="yes"/>
      <point x="196" y="1456" type="line"/>
    </contour>
    <contour>
      <point x="373" y="756" type="line"/>
      <point x="453" y="1213" type="line"/>
      <point x="728" y="1213" type="line" smooth="yes"/>
      <point x="876" y="1210"/>
      <point x="948" y="1115"/>
      <point x="923" y="972" type="curve" smooth="yes"/>
      <point x="898" y="833"/>
      <point x="799" y="756"/>
      <point x="641" y="756" type="curve" smooth="yes"/>
    </contour>
  </outline>
</glyph>
<glyph name="Q" format="2">
  <advance width="1408"/>
  <unicode hex="0051"/>
  <note>
uni0051
</note>
  <outline>
    <contour>
      <point x="889" y="-260" type="line"/>
      <point x="1110" y="-91" type="line"/>
      <point x="902" y="99" type="line"/>
      <point x="1079" y="220"/>
      <point x="1208" y="423"/>
      <point x="1256" y="695" type="curve" smooth="yes"/>
      <point x="1267" y="760" type="line" smooth="yes"/>
      <point x="1318" y="1045"/>
      <point x="1250" y="1272"/>
      <point x="1082" y="1389" type="curve" smooth="yes"/>
      <point x="997" y="1447"/>
      <point x="895" y="1476"/>
      <point x="773" y="1476" type="curve" smooth="yes"/>
      <point x="531" y="1476"/>
      <point x="313" y="1356"/>
      <point x="171" y="1138" type="curve" smooth="yes"/>
      <point x="100" y="1029"/>
      <point x="52" y="902"/>
      <point x="27" y="759" type="curve" smooth="yes"/>
      <point x="14" y="687" type="line" smooth="yes"/>
      <point x="-34" y="407"/>
      <point x="35" y="183"/>
      <point x="204" y="67" type="curve" smooth="yes"/>
      <point x="288" y="9"/>
      <point x="391" y="-20"/>
      <point x="512" y="-20" type="curve" smooth="yes"/>
      <point x="550" y="-20"/>
      <point x="587" y="-17"/>
      <point x="623" y="-11" type="curve"/>
    </contour>
    <contour>
      <point x="555" y="226" type="curve" smooth="yes"/>
      <point x="350" y="226"/>
      <point x="267" y="398"/>
      <point x="320" y="695" type="curve" smooth="yes"/>
      <point x="332" y="766" type="line" smooth="yes"/>
      <point x="387" y="1069"/>
      <point x="528" y="1228"/>
      <point x="730" y="1228" type="curve" smooth="yes"/>
      <point x="932" y="1228"/>
      <point x="1017" y="1066"/>
      <point x="963" y="761" type="curve" smooth="yes"/>
      <point x="951" y="690" type="line" smooth="yes"/>
      <point x="896" y="387"/>
      <point x="756" y="226"/>
    </contour>
  </outline>
</glyph>
<glyph name="R" format="2">
  <advance width="1261"/>
  <unicode hex="0052"/>
  <note>
uni0052
</note>
  <outline>
    <contour>
      <point x="-61" y="0" type="line"/>
      <point x="239" y="0" type="line"/>
      <point x="333" y="533" type="line"/>
      <point x="572" y="533" type="line"/>
      <point x="751" y="0" type="line"/>
      <point x="1080" y="0" type="line"/>
      <point x="866" y="609" type="line"/>
      <point x="1054" y="688"/>
      <point x="1162" y="817"/>
      <point x="1197" y="1016" type="curve" smooth="yes"/>
      <point x="1247" y="1296"/>
      <point x="1081" y="1456"/>
      <point x="737" y="1456" type="curve" smooth="yes"/>
      <point x="196" y="1456" type="line"/>
    </contour>
    <contour>
      <point x="376" y="776" type="line"/>
      <point x="453" y="1213" type="line"/>
      <point x="694" y="1213" type="line" smooth="yes"/>
      <point x="855" y="1213"/>
      <point x="917" y="1129"/>
      <point x="893" y="992" type="curve" smooth="yes"/>
      <point x="869" y="857"/>
      <point x="769" y="776"/>
      <point x="618" y="776" type="curve" smooth="yes"/>
    </contour>
  </outline>
</glyph>
<glyph name="S" format="2">
  <advance width="1215"/>
  <unicode hex="0053"/>
  <note>
uni0053
</note>
  <outline>
    <contour>
      <point x="464" y="-20" type="curve" smooth="yes"/>
      <point x="786" y="-20"/>
      <point x="1018" y="132"/>
      <point x="1063" y="384" type="curve" smooth="yes"/>
      <point x="1103" y="611"/>
      <point x="980" y="756"/>
      <point x="657" y="859" type="curve" smooth="yes"/>
      <point x="481" y="915"/>
      <point x="395" y="973"/>
      <point x="412" y="1068" type="curve" smooth="yes"/>
      <point x="429" y="1169"/>
      <point x="527" y="1237"/>
      <point x="673" y="1237" type="curve" smooth="yes"/>
      <point x="825" y="1237"/>
      <point x="900" y="1159"/>
      <point x="876" y="1026" type="curve"/>
      <point x="1176" y="1026" type="line"/>
      <point x="1207" y="1201"/>
      <point x="1138" y="1344"/>
      <point x="989" y="1420" type="curve" smooth="yes"/>
      <point x="914" y="1457"/>
      <point x="824" y="1476"/>
      <point x="720" y="1476" type="curve" smooth="yes"/>
      <point x="514" y="1476"/>
      <point x="326" y="1403"/>
      <point x="215" y="1280" type="curve" smooth="yes"/>
      <point x="160" y="1218"/>
      <point x="126" y="1148"/>
      <point x="112" y="1069" type="curve" smooth="yes"/>
      <point x="85" y="918"/>
      <point x="146" y="797"/>
      <point x="296" y="708" type="curve" smooth="yes"/>
      <point x="450" y="616"/>
      <point x="797" y="583"/>
      <point x="762" y="382" type="curve" smooth="yes"/>
      <point x="743" y="278"/>
      <point x="648" y="217"/>
      <point x="505" y="217" type="curve" smooth="yes"/>
      <point x="313" y="217"/>
      <point x="232" y="297"/>
      <point x="260" y="458" type="curve"/>
      <point x="-41" y="458" type="line"/>
      <point x="-74" y="270"/>
      <point x="-1" y="124"/>
      <point x="169" y="42" type="curve" smooth="yes"/>
      <point x="253" y="1"/>
      <point x="352" y="-20"/>
    </contour>
  </outline>
</glyph>
<glyph name="U" format="2">
  <advance width="1328"/>
  <unicode hex="0055"/>
  <note>
uni0055
</note>
  <outline>
    <contour>
      <point x="480" y="-20" type="curve" smooth="yes"/>
      <point x="825" y="-20"/>
      <point x="1073" y="178"/>
      <point x="1129" y="497" type="curve" smooth="yes"/>
      <point x="1298" y="1456" type="line"/>
      <point x="997" y="1456" type="line"/>
      <point x="826" y="487" type="line" smooth="yes"/>
      <point x="792" y="310"/>
      <point x="691" y="221"/>
      <point x="522" y="221" type="curve" smooth="yes"/>
      <point x="361" y="221"/>
      <point x="279" y="304"/>
      <point x="312" y="495" type="curve" smooth="yes"/>
      <point x="482" y="1456" type="line"/>
      <point x="182" y="1456" type="line"/>
      <point x="11" y="486" type="line" smooth="yes"/>
      <point x="-41" y="171"/>
      <point x="140" y="-20"/>
    </contour>
  </outline>
</glyph>
<glyph name="W" format="2">
  <advance width="1817"/>
  <unicode hex="0057"/>
  <note>
uni0057
</note>
  <outline>
    <contour>
      <point x="167" y="0" type="line"/>
      <point x="469" y="0" type="line"/>
      <point x="878" y="974" type="line"/>
      <point x="943" y="0" type="line"/>
      <point x="1245" y="0" type="line"/>
      <point x="1825" y="1456" type="line"/>
      <point x="1526" y="1456" type="line"/>
      <point x="1147" y="420" type="line"/>
      <point x="1091" y="1456" type="line"/>
      <point x="837" y="1456" type="line"/>
      <point x="415" y="422" type="line"/>
      <point x="400" y="1456" type="line"/>
      <point x="101" y="1456" type="line"/>
    </contour>
  </outline>
</glyph>
<glyph name="X" format="2">
  <advance width="1284"/>
  <unicode hex="0058"/>
  <note>
uni0058
</note>
  <outline>
    <contour>
      <point x="-169" y="0" type="line"/>
      <point x="180" y="0" type="line"/>
      <point x="550" y="510" type="line"/>
      <point x="740" y="0" type="line"/>
      <point x="1089" y="0" type="line"/>
      <point x="784" y="734" type="line"/>
      <point x="1335" y="1456" type="line"/>
      <point x="990" y="1456" type="line"/>
      <point x="628" y="954" type="line"/>
      <point x="444" y="1456" type="line"/>
      <point x="99" y="1456" type="line"/>
      <point x="396" y="734" type="line"/>
    </contour>
  </outline>
</glyph>
<glyph name="bracketleft" format="2">
  <advance width="543"/>
  <unicode hex="005B"/>
  <note>
uni005B
</note>
  <outline>
    <contour>
      <point x="-131" y="-339" type="line"/>
      <point x="301" y="-339" type="line"/>
      <point x="341" y="-116" type="line"/>
      <point x="199" y="-116" type="line"/>
      <point x="479" y="1471" type="line"/>
      <point x="621" y="1471" type="line"/>
      <point x="660" y="1694" type="line"/>
      <point x="228" y="1694" type="line"/>
    </contour>
  </outline>
</glyph>
<glyph name="bracketright" format="2">
  <advance width="543"/>
  <unicode hex="005D"/>
  <note>
uni005D
</note>
  <outline>
    <contour>
      <point x="-238" y="-339" type="line"/>
      <point x="194" y="-339" type="line"/>
      <point x="553" y="1694" type="line"/>
      <point x="121" y="1694" type="line"/>
      <point x="82" y="1471" type="line"/>
      <point x="225" y="1471" type="line"/>
      <point x="-55" y="-116" type="line"/>
      <point x="-198" y="-116" type="line"/>
    </contour>
  </outline>
</glyph>
<glyph name="a" format="2">
  <advance width="1114"/>
  <unicode hex="0061"/>
  <note>
uni0061
</note>
  <outline>
    <contour>
      <point x="242" y="-20" type="curve" smooth="yes"/>
      <point x="354" y="-20"/>
      <point x="452" y="19"/>
      <point x="535" y="97" type="curve"/>
      <point x="534" y="58"/>
      <point x="538" y="26"/>
      <point x="547" y="0" type="curve"/>
      <point x="839" y="0" type="line"/>
      <point x="842" y="17" type="line"/>
      <point x="823" y="70"/>
      <point x="823" y="147"/>
      <point x="840" y="250" type="curve" smooth="yes"/>
      <point x="923" y="719" type="line" smooth="yes"/>
      <point x="966" y="962"/>
      <point x="822" y="1102"/>
      <point x="556" y="1102" type="curve" smooth="yes"/>
      <point x="380" y="1102"/>
      <point x="220" y="1038"/>
      <point x="123" y="931" type="curve" smooth="yes"/>
      <point x="75" y="878"/>
      <point x="46" y="820"/>
      <point x="35" y="757" type="curve"/>
      <point x="324" y="757" type="line"/>
      <point x="338" y="838"/>
      <point x="405" y="888"/>
      <point x="503" y="888" type="curve" smooth="yes"/>
      <point x="613" y="888"/>
      <point x="651" y="823"/>
      <point x="634" y="723" type="curve" smooth="yes"/>
      <point x="623" y="661" type="line"/>
      <point x="490" y="661" type="line" smooth="yes"/>
      <point x="168" y="660"/>
      <point x="-29" y="533"/>
      <point x="-69" y="304" type="curve" smooth="yes"/>
      <point x="-102" y="117"/>
      <point x="30" y="-20"/>
    </contour>
    <contour>
      <point x="344" y="201" type="curve" smooth="yes"/>
      <point x="256" y="201"/>
      <point x="211" y="253"/>
      <point x="224" y="325" type="curve" smooth="yes"/>
      <point x="254" y="442"/>
      <point x="340" y="492"/>
      <point x="485" y="492" type="curve" smooth="yes"/>
      <point x="593" y="492" type="line"/>
      <point x="560" y="306" type="line"/>
      <point x="514" y="242"/>
      <point x="429" y="201"/>
    </contour>
  </outline>
</glyph>
<glyph name="b" format="2">
  <advance width="1149"/>
  <unicode hex="0062"/>
  <note>
uni0062
</note>
  <outline>
    <contour>
      <point x="471" y="-20" type="curve" smooth="yes"/>
      <point x="736" y="-20"/>
      <point x="928" y="184"/>
      <point x="989" y="531" type="curve" smooth="yes"/>
      <point x="992" y="547" type="line" smooth="yes"/>
      <point x="1054" y="899"/>
      <point x="931" y="1102"/>
      <point x="667" y="1102" type="curve" smooth="yes"/>
      <point x="558" y="1102"/>
      <point x="463" y="1063"/>
      <point x="383" y="985" type="curve"/>
      <point x="480" y="1536" type="line"/>
      <point x="191" y="1536" type="line"/>
      <point x="-80" y="0" type="line"/>
      <point x="180" y="0" type="line"/>
      <point x="213" y="115" type="line"/>
      <point x="268" y="25"/>
      <point x="353" y="-20"/>
    </contour>
    <contour>
      <point x="439" y="213" type="curve" smooth="yes"/>
      <point x="346" y="213"/>
      <point x="289" y="251"/>
      <point x="267" y="327" type="curve"/>
      <point x="342" y="754" type="line"/>
      <point x="390" y="829"/>
      <point x="460" y="867"/>
      <point x="552" y="867" type="curve" smooth="yes"/>
      <point x="689" y="867"/>
      <point x="742" y="771"/>
      <point x="704" y="552" type="curve" smooth="yes"/>
      <point x="672" y="372"/>
      <point x="619" y="213"/>
    </contour>
  </outline>
</glyph>
<glyph name="c" format="2">
  <advance width="1072"/>
  <unicode hex="0063"/>
  <note>
uni0063
</note>
  <outline>
    <contour>
      <point x="372" y="-20" type="curve" smooth="yes"/>
      <point x="618" y="-20"/>
      <point x="846" y="141"/>
      <point x="889" y="374" type="curve"/>
      <point x="618" y="374" type="line"/>
      <point x="598" y="277"/>
      <point x="514" y="213"/>
      <point x="408" y="213" type="curve" smooth="yes"/>
      <point x="269" y="213"/>
      <point x="218" y="303"/>
      <point x="257" y="526" type="curve" smooth="yes"/>
      <point x="262" y="556" type="line" smooth="yes"/>
      <point x="301" y="776"/>
      <point x="387" y="868"/>
      <point x="521" y="868" type="curve" smooth="yes"/>
      <point x="631" y="868"/>
      <point x="689" y="791"/>
      <point x="672" y="679" type="curve"/>
      <point x="943" y="679" type="line"/>
      <point x="985" y="935"/>
      <point x="838" y="1102"/>
      <point x="568" y="1102" type="curve" smooth="yes"/>
      <point x="258" y="1102"/>
      <point x="32" y="887"/>
      <point x="-27" y="554" type="curve" smooth="yes"/>
      <point x="-30" y="535" type="line" smooth="yes"/>
      <point x="-92" y="188"/>
      <point x="62" y="-20"/>
    </contour>
  </outline>
</glyph>
<glyph name="d" format="2">
  <advance width="1155"/>
  <unicode hex="0064"/>
  <note>
uni0064
</note>
  <outline>
    <contour>
      <point x="294" y="-20" type="curve" smooth="yes"/>
      <point x="407" y="-20"/>
      <point x="508" y="25"/>
      <point x="595" y="115" type="curve"/>
      <point x="589" y="0" type="line"/>
      <point x="850" y="0" type="line"/>
      <point x="1121" y="1536" type="line"/>
      <point x="831" y="1536" type="line"/>
      <point x="734" y="984" type="line"/>
      <point x="679" y="1063"/>
      <point x="599" y="1102"/>
      <point x="494" y="1102" type="curve" smooth="yes"/>
      <point x="201" y="1102"/>
      <point x="24" y="842"/>
      <point x="-28" y="549" type="curve" smooth="yes"/>
      <point x="-91" y="192"/>
      <point x="39" y="-20"/>
    </contour>
    <contour>
      <point x="409" y="214" type="curve" smooth="yes"/>
      <point x="274" y="214"/>
      <point x="222" y="325"/>
      <point x="257" y="528" type="curve" smooth="yes"/>
      <point x="297" y="754"/>
      <point x="387" y="867"/>
      <point x="526" y="867" type="curve" smooth="yes"/>
      <point x="615" y="867"/>
      <point x="670" y="829"/>
      <point x="693" y="754" type="curve"/>
      <point x="618" y="327" type="line"/>
      <point x="568" y="252"/>
      <point x="498" y="214"/>
    </contour>
  </outline>
</glyph>
<glyph name="e" format="2">
  <advance width="1085"/>
  <unicode hex="0065"/>
  <note>
uni0065
</note>
  <outline>
    <contour>
      <point x="415" y="-20" type="curve" smooth="yes"/>
      <point x="595" y="-20"/>
      <point x="763" y="52"/>
      <point x="871" y="175" type="curve"/>
      <point x="757" y="334" type="line"/>
      <point x="680" y="253"/>
      <point x="586" y="213"/>
      <point x="475" y="213" type="curve" smooth="yes"/>
      <point x="331" y="213"/>
      <point x="247" y="306"/>
      <point x="253" y="447" type="curve"/>
      <point x="942" y="447" type="line"/>
      <point x="963" y="565" type="line" smooth="yes"/>
      <point x="1023" y="908"/>
      <point x="877" y="1102"/>
      <point x="581" y="1102" type="curve" smooth="yes"/>
      <point x="365" y="1102"/>
      <point x="201" y="960"/>
      <point x="99" y="811" type="curve" smooth="yes"/>
      <point x="30" y="711"/>
      <point x="-12" y="607"/>
      <point x="-23" y="543" type="curve" smooth="yes"/>
      <point x="-28" y="515" type="line" smooth="yes"/>
      <point x="-85" y="191"/>
      <point x="97" y="-20"/>
    </contour>
    <contour>
      <point x="291" y="644" type="line"/>
      <point x="336" y="788"/>
      <point x="424" y="868"/>
      <point x="538" y="868" type="curve" smooth="yes"/>
      <point x="661" y="868"/>
      <point x="717" y="795"/>
      <point x="693" y="644" type="curve"/>
    </contour>
  </outline>
</glyph>
<glyph name="g" format="2">
  <advance width="1149"/>
  <unicode hex="0067"/>
  <note>
uni0067
</note>
  <outline>
    <contour>
      <point x="272" y="-426" type="curve" smooth="yes"/>
      <point x="576" y="-426"/>
      <point x="821" y="-260"/>
      <point x="874" y="36" type="curve" smooth="yes"/>
      <point x="1058" y="1082" type="line"/>
      <point x="796" y="1082" type="line"/>
      <point x="766" y="980" type="line"/>
      <point x="714" y="1061"/>
      <point x="630" y="1102"/>
      <point x="511" y="1102" type="curve" smooth="yes"/>
      <point x="243" y="1102"/>
      <point x="34" y="881"/>
      <point x="-27" y="537" type="curve" smooth="yes"/>
      <point x="-86" y="201"/>
      <point x="51" y="-20"/>
      <point x="311" y="-20" type="curve" smooth="yes"/>
      <point x="419" y="-20"/>
      <point x="514" y="18"/>
      <point x="594" y="93" type="curve"/>
      <point x="583" y="35" type="line" smooth="yes"/>
      <point x="557" y="-116"/>
      <point x="452" y="-201"/>
      <point x="299" y="-201" type="curve" smooth="yes"/>
      <point x="196" y="-201"/>
      <point x="116" y="-161"/>
      <point x="58" y="-80" type="curve"/>
      <point x="-101" y="-256" type="line"/>
      <point x="-41" y="-356"/>
      <point x="113" y="-426"/>
    </contour>
    <contour>
      <point x="426" y="214" type="curve" smooth="yes"/>
      <point x="289" y="214"/>
      <point x="226" y="332"/>
      <point x="260" y="528" type="curve" smooth="yes"/>
      <point x="300" y="753"/>
      <point x="404" y="867"/>
      <point x="543" y="867" type="curve" smooth="yes"/>
      <point x="629" y="867"/>
      <point x="686" y="834"/>
      <point x="713" y="768" type="curve"/>
      <point x="632" y="313" type="line"/>
      <point x="583" y="247"/>
      <point x="514" y="214"/>
    </contour>
  </outline>
</glyph>
<glyph name="h" format="2">
  <advance width="1128"/>
  <unicode hex="0068"/>
  <note>
uni0068
</note>
  <outline>
    <contour>
      <point x="-87" y="0" type="line"/>
      <point x="202" y="0" type="line"/>
      <point x="338" y="769" type="line"/>
      <point x="387" y="834"/>
      <point x="454" y="867"/>
      <point x="539" y="867" type="curve" smooth="yes"/>
      <point x="663" y="867"/>
      <point x="702" y="809"/>
      <point x="680" y="685" type="curve" smooth="yes"/>
      <point x="559" y="0" type="line"/>
      <point x="848" y="0" type="line"/>
      <point x="970" y="693" type="line" smooth="yes"/>
      <point x="1015" y="966"/>
      <point x="920" y="1102"/>
      <point x="686" y="1102" type="curve" smooth="yes"/>
      <point x="570" y="1102"/>
      <point x="465" y="1056"/>
      <point x="372" y="964" type="curve"/>
      <point x="473" y="1536" type="line"/>
      <point x="184" y="1536" type="line"/>
    </contour>
  </outline>
</glyph>
<glyph name="i" format="2">
  <advance width="497"/>
  <unicode hex="0069"/>
  <note>
uni0069
</note>
  <outline>
    <contour>
      <point x="-65" y="0" type="line"/>
      <point x="225" y="0" type="line"/>
      <point x="416" y="1082" type="line"/>
      <point x="126" y="1082" type="line"/>
    </contour>
    <contour>
      <point x="294" y="1212" type="curve" smooth="yes"/>
      <point x="391" y="1212"/>
      <point x="467" y="1274"/>
      <point x="482" y="1362" type="curve" smooth="yes"/>
      <point x="498" y="1449"/>
      <point x="445" y="1511"/>
      <point x="347" y="1511" type="curve" smooth="yes"/>
      <point x="247" y="1511"/>
      <point x="174" y="1449"/>
      <point x="158" y="1362" type="curve" smooth="yes"/>
      <point x="143" y="1274"/>
      <point x="197" y="1212"/>
    </contour>
  </outline>
</glyph>
<glyph name="j" format="2">
  <advance width="489"/>
  <unicode hex="006A"/>
  <note>
uni006A
</note>
  <outline>
    <contour>
      <point x="-220" y="-437" type="curve" smooth="yes"/>
      <point x="19" y="-437"/>
      <point x="174" y="-298"/>
      <point x="216" y="-59" type="curve" smooth="yes"/>
      <point x="417" y="1082" type="line"/>
      <point x="127" y="1082" type="line"/>
      <point x="-75" y="-61" type="line" smooth="yes"/>
      <point x="-91" y="-154"/>
      <point x="-143" y="-200"/>
      <point x="-230" y="-200" type="curve" smooth="yes"/>
      <point x="-256" y="-200"/>
      <point x="-286" y="-197"/>
      <point x="-319" y="-191" type="curve"/>
      <point x="-360" y="-420" type="line"/>
      <point x="-317" y="-431"/>
      <point x="-270" y="-437"/>
    </contour>
    <contour>
      <point x="289" y="1212" type="curve" smooth="yes"/>
      <point x="386" y="1212"/>
      <point x="462" y="1274"/>
      <point x="477" y="1362" type="curve" smooth="yes"/>
      <point x="493" y="1449"/>
      <point x="442" y="1511"/>
      <point x="342" y="1511" type="curve" smooth="yes"/>
      <point x="242" y="1511"/>
      <point x="169" y="1449"/>
      <point x="153" y="1362" type="curve" smooth="yes"/>
      <point x="138" y="1274"/>
      <point x="192" y="1212"/>
    </contour>
  </outline>
</glyph>
<glyph name="k" format="2">
  <advance width="1038"/>
  <unicode hex="006B"/>
  <note>
uni006B
</note>
  <outline>
    <contour>
      <point x="-80" y="0" type="line"/>
      <point x="209" y="0" type="line"/>
      <point x="267" y="330" type="line"/>
      <point x="390" y="434" type="line"/>
      <point x="591" y="0" type="line"/>
      <point x="923" y="0" type="line"/>
      <point x="609" y="631" type="line"/>
      <point x="1080" y="1082" type="line"/>
      <point x="733" y="1082" type="line"/>
      <point x="330" y="685" type="line"/>
      <point x="480" y="1536" type="line"/>
      <point x="191" y="1536" type="line"/>
    </contour>
  </outline>
</glyph>
<glyph name="l" format="2">
  <advance width="497"/>
  <unicode hex="006C"/>
  <note>
uni006C
</note>
  <outline>
    <contour>
      <point x="-65" y="0" type="line"/>
      <point x="225" y="0" type="line"/>
      <point x="496" y="1536" type="line"/>
      <point x="206" y="1536" type="line"/>
    </contour>
  </outline>
</glyph>
<glyph name="m" format="2">
  <advance width="1795"/>
  <unicode hex="006D"/>
  <note>
uni006D
</note>
  <outline>
    <contour>
      <point x="-80" y="0" type="line"/>
      <point x="209" y="0" type="line"/>
      <point x="344" y="765" type="line"/>
      <point x="393" y="833"/>
      <point x="458" y="867"/>
      <point x="540" y="867" type="curve" smooth="yes"/>
      <point x="659" y="867"/>
      <point x="694" y="814"/>
      <point x="672" y="689" type="curve" smooth="yes"/>
      <point x="550" y="0" type="line"/>
      <point x="838" y="0" type="line"/>
      <point x="969" y="743" type="line"/>
      <point x="1017" y="826"/>
      <point x="1084" y="867"/>
      <point x="1171" y="867" type="curve" smooth="yes"/>
      <point x="1292" y="867"/>
      <point x="1325" y="813"/>
      <point x="1303" y="690" type="curve" smooth="yes"/>
      <point x="1181" y="0" type="line"/>
      <point x="1471" y="0" type="line"/>
      <point x="1593" y="691" type="line" smooth="yes"/>
      <point x="1641" y="966"/>
      <point x="1552" y="1102"/>
      <point x="1318" y="1102" type="curve" smooth="yes"/>
      <point x="1177" y="1102"/>
      <point x="1059" y="1047"/>
      <point x="963" y="937" type="curve"/>
      <point x="931" y="1047"/>
      <point x="845" y="1102"/>
      <point x="706" y="1102" type="curve" smooth="yes"/>
      <point x="575" y="1102"/>
      <point x="463" y="1055"/>
      <point x="370" y="961" type="curve"/>
      <point x="382" y="1082" type="line"/>
      <point x="111" y="1082" type="line"/>
    </contour>
  </outline>
</glyph>
<glyph name="n" format="2">
  <advance width="1130"/>
  <unicode hex="006E"/>
  <note>
uni006E
</note>
  <outline>
    <contour>
      <point x="-86" y="0" type="line"/>
      <point x="203" y="0" type="line"/>
      <point x="338" y="763" type="line"/>
      <point x="391" y="832"/>
      <point x="458" y="867"/>
      <point x="539" y="867" type="curve" smooth="yes"/>
      <point x="663" y="867"/>
      <point x="703" y="815"/>
      <point x="681" y="692" type="curve" smooth="yes"/>
      <point x="559" y="0" type="line"/>
      <point x="848" y="0" type="line"/>
      <point x="971" y="699" type="line" smooth="yes"/>
      <point x="1016" y="967"/>
      <point x="930" y="1102"/>
      <point x="701" y="1102" type="curve" smooth="yes"/>
      <point x="571" y="1102"/>
      <point x="458" y="1054"/>
      <point x="364" y="957" type="curve"/>
      <point x="377" y="1082" type="line"/>
      <point x="105" y="1082" type="line"/>
    </contour>
  </outline>
</glyph>
<glyph name="o" format="2">
  <advance width="1168"/>
  <unicode hex="006F"/>
  <note>
uni006F
</note>
  <outline>
    <contour>
      <point x="385" y="-20" type="curve" smooth="yes"/>
      <point x="697" y="-20"/>
      <point x="935" y="198"/>
      <point x="994" y="530" type="curve" smooth="yes"/>
      <point x="1037" y="911"/>
      <point x="873" y="1102"/>
      <point x="581" y="1102" type="curve" smooth="yes"/>
      <point x="206" y="1101"/>
      <point x="19" y="818"/>
      <point x="-30" y="538" type="curve" smooth="yes"/>
      <point x="-91" y="194"/>
      <point x="73" y="-20"/>
    </contour>
    <contour>
      <point x="426" y="213" type="curve" smooth="yes"/>
      <point x="282" y="213"/>
      <point x="221" y="325"/>
      <point x="258" y="530" type="curve" smooth="yes"/>
      <point x="298" y="761"/>
      <point x="398" y="868"/>
      <point x="539" y="868" type="curve" smooth="yes"/>
      <point x="682" y="868"/>
      <point x="744" y="752"/>
      <point x="708" y="551" type="curve" smooth="yes"/>
      <point x="667" y="315"/>
      <point x="566" y="213"/>
    </contour>
  </outline>
</glyph>
<glyph name="q" format="2">
  <advance width="1164"/>
  <unicode hex="0071"/>
  <note>
uni0071
</note>
  <outline>
    <contour>
      <point x="487" y="-416" type="line"/>
      <point x="777" y="-416" type="line"/>
      <point x="1041" y="1082" type="line"/>
      <point x="787" y="1082" type="line"/>
      <point x="748" y="969" type="line"/>
      <point x="695" y="1058"/>
      <point x="611" y="1102"/>
      <point x="495" y="1102" type="curve" smooth="yes"/>
      <point x="231" y="1102"/>
      <point x="32" y="891"/>
      <point x="-28" y="551" type="curve" smooth="yes"/>
      <point x="-80" y="252"/>
      <point x="-11" y="-20"/>
      <point x="295" y="-20" type="curve" smooth="yes"/>
      <point x="403" y="-20"/>
      <point x="497" y="18"/>
      <point x="577" y="93" type="curve"/>
    </contour>
    <contour>
      <point x="410" y="213" type="curve" smooth="yes"/>
      <point x="278" y="213"/>
      <point x="221" y="323"/>
      <point x="258" y="530" type="curve" smooth="yes"/>
      <point x="299" y="765"/>
      <point x="394" y="868"/>
      <point x="527" y="868" type="curve" smooth="yes"/>
      <point x="615" y="868"/>
      <point x="671" y="834"/>
      <point x="695" y="766" type="curve"/>
      <point x="616" y="319" type="line"/>
      <point x="567" y="248"/>
      <point x="498" y="213"/>
    </contour>
  </outline>
</glyph>
<glyph name="r" format="2">
  <advance width="693"/>
  <unicode hex="0072"/>
  <note>
uni0072
</note>
  <outline>
    <contour>
      <point x="-80" y="0" type="line"/>
      <point x="209" y="0" type="line"/>
      <point x="334" y="708" type="line"/>
      <point x="381" y="782"/>
      <point x="459" y="819"/>
      <point x="569" y="819" type="curve"/>
      <point x="671" y="811" type="line"/>
      <point x="724" y="1089" type="line"/>
      <point x="698" y="1098"/>
      <point x="669" y="1102"/>
      <point x="637" y="1102" type="curve" smooth="yes"/>
      <point x="534" y="1102"/>
      <point x="445" y="1052"/>
      <point x="369" y="953" type="curve"/>
      <point x="384" y="1082" type="line"/>
      <point x="111" y="1082" type="line"/>
    </contour>
  </outline>
</glyph>
<glyph name="s" format="2">
  <advance width="1056"/>
  <unicode hex="0073"/>
  <note>
uni0073
</note>
  <outline>
    <contour>
      <point x="329" y="-20" type="curve" smooth="yes"/>
      <point x="597" y="-20"/>
      <point x="807" y="114"/>
      <point x="842" y="311" type="curve" smooth="yes"/>
      <point x="866" y="449"/>
      <point x="807" y="546"/>
      <point x="664" y="602" type="curve" smooth="yes"/>
      <point x="557" y="644"/>
      <point x="293" y="655"/>
      <point x="315" y="779" type="curve"/>
      <point x="327" y="847"/>
      <point x="391" y="896"/>
      <point x="488" y="896" type="curve" smooth="yes"/>
      <point x="602" y="896"/>
      <point x="643" y="836"/>
      <point x="628" y="753" type="curve"/>
      <point x="917" y="753" type="line"/>
      <point x="953" y="960"/>
      <point x="800" y="1102"/>
      <point x="526" y="1102" type="curve" smooth="yes"/>
      <point x="268" y="1102"/>
      <point x="68" y="957"/>
      <point x="34" y="765" type="curve"/>
      <point x="5" y="600"/>
      <point x="114" y="491"/>
      <point x="362" y="437" type="curve" smooth="yes"/>
      <point x="448" y="419"/>
      <point x="575" y="392"/>
      <point x="559" y="299" type="curve" smooth="yes"/>
      <point x="547" y="231"/>
      <point x="482" y="185"/>
      <point x="371" y="185" type="curve" smooth="yes"/>
      <point x="252" y="185"/>
      <point x="187" y="241"/>
      <point x="200" y="344" type="curve"/>
      <point x="-74" y="344" type="line"/>
      <point x="-115" y="115"/>
      <point x="92" y="-20"/>
    </contour>
  </outline>
</glyph>
<glyph name="t" format="2">
  <advance width="669"/>
  <unicode hex="0074"/>
  <note>
uni0074
</note>
  <outline>
    <contour>
      <point x="284" y="-20" type="curve" smooth="yes"/>
      <point x="344" y="-20"/>
      <point x="404" y="-11"/>
      <point x="463" y="6" type="curve"/>
      <point x="502" y="225" type="line"/>
      <point x="476" y="220"/>
      <point x="448" y="218"/>
      <point x="416" y="218" type="curve" smooth="yes"/>
      <point x="329" y="218"/>
      <point x="310" y="250"/>
      <point x="324" y="330" type="curve" smooth="yes"/>
      <point x="420" y="870" type="line"/>
      <point x="605" y="870" type="line"/>
      <point x="642" y="1082" type="line"/>
      <point x="457" y="1082" type="line"/>
      <point x="504" y="1348" type="line"/>
      <point x="215" y="1348" type="line"/>
      <point x="168" y="1082" type="line"/>
      <point x="10" y="1082" type="line"/>
      <point x="-27" y="870" type="line"/>
      <point x="131" y="870" type="line"/>
      <point x="28" y="287" type="line" smooth="yes"/>
      <point x="-4" y="82"/>
      <point x="81" y="-20"/>
    </contour>
  </outline>
</glyph>
<glyph name="u" format="2">
  <advance width="1129"/>
  <unicode hex="0075"/>
  <note>
uni0075
</note>
  <outline>
    <contour>
      <point x="269" y="-20" type="curve" smooth="yes"/>
      <point x="395" y="-20"/>
      <point x="501" y="23"/>
      <point x="588" y="110" type="curve"/>
      <point x="576" y="0" type="line"/>
      <point x="848" y="0" type="line"/>
      <point x="1039" y="1082" type="line"/>
      <point x="749" y="1082" type="line"/>
      <point x="614" y="316" type="line"/>
      <point x="565" y="248"/>
      <point x="492" y="214"/>
      <point x="394" y="214" type="curve" smooth="yes"/>
      <point x="291" y="214"/>
      <point x="250" y="270"/>
      <point x="270" y="383" type="curve" smooth="yes"/>
      <point x="393" y="1082" type="line"/>
      <point x="104" y="1082" type="line"/>
      <point x="-21" y="373" type="line" smooth="yes"/>
      <point x="-64" y="116"/>
      <point x="37" y="-20"/>
    </contour>
  </outline>
</glyph>
<glyph name="braceleft" format="2">
  <advance width="693"/>
  <unicode hex="007B"/>
  <note>
uni007B
</note>
  <outline>
    <contour>
      <point x="332" y="-360" type="curve"/>
      <point x="416" y="-198" type="line"/>
      <point x="322" y="-163"/>
      <point x="287" y="-68"/>
      <point x="311" y="88" type="curve" smooth="yes"/>
      <point x="348" y="300" type="line" smooth="yes"/>
      <point x="375" y="451"/>
      <point x="334" y="558"/>
      <point x="225" y="619" type="curve"/>
      <point x="355" y="680"/>
      <point x="434" y="785"/>
      <point x="460" y="936" type="curve" smooth="yes"/>
      <point x="497" y="1146" type="line" smooth="yes"/>
      <point x="529" y="1310"/>
      <point x="597" y="1399"/>
      <point x="704" y="1436" type="curve"/>
      <point x="677" y="1597" type="line"/>
      <point x="425" y="1529"/>
      <point x="278" y="1380"/>
      <point x="235" y="1133" type="curve" smooth="yes"/>
      <point x="198" y="921" type="line" smooth="yes"/>
      <point x="172" y="788"/>
      <point x="101" y="722"/>
      <point x="-15" y="722" type="curve"/>
      <point x="-52" y="515" type="line"/>
      <point x="67" y="515"/>
      <point x="114" y="445"/>
      <point x="89" y="304" type="curve" smooth="yes"/>
      <point x="54" y="105" type="line" smooth="yes"/>
      <point x="11" y="-138"/>
      <point x="104" y="-293"/>
    </contour>
  </outline>
</glyph>
<glyph name="braceright" format="2">
  <advance width="693"/>
  <unicode hex="007D"/>
  <note>
uni007D
</note>
  <outline>
    <contour>
      <point x="-164" y="-360" type="line"/>
      <point x="82" y="-294"/>
      <point x="228" y="-144"/>
      <point x="275" y="89" type="curve" smooth="yes"/>
      <point x="313" y="306" type="line" smooth="yes"/>
      <point x="338" y="445"/>
      <point x="409" y="515"/>
      <point x="528" y="515" type="curve"/>
      <point x="565" y="722" type="line"/>
      <point x="449" y="722"/>
      <point x="401" y="788"/>
      <point x="422" y="921" type="curve" smooth="yes"/>
      <point x="460" y="1136" type="line" smooth="yes"/>
      <point x="501" y="1381"/>
      <point x="408" y="1530"/>
      <point x="181" y="1597" type="curve"/>
      <point x="96" y="1436" type="line"/>
      <point x="191" y="1398"/>
      <point x="226" y="1301"/>
      <point x="201" y="1146" type="curve" smooth="yes"/>
      <point x="164" y="937" type="line" smooth="yes"/>
      <point x="137" y="783"/>
      <point x="180" y="677"/>
      <point x="291" y="618" type="curve"/>
      <point x="159" y="559"/>
      <point x="79" y="455"/>
      <point x="53" y="304" type="curve" smooth="yes"/>
      <point x="15" y="92" type="line" smooth="yes"/>
      <point x="-15" y="-65"/>
      <point x="-84" y="-162"/>
      <point x="-192" y="-198" type="curve"/>
    </contour>
  </outline>
</glyph>
<glyph name="asciitilde" format="2">
  <advance width="1393"/>
  <unicode hex="007E"/>
  <note>
uni007E
</note>
  <outline>
    <contour>
      <point x="763" y="375" type="curve" smooth="yes"/>
      <point x="959" y="375"/>
      <point x="1126" y="545"/>
      <point x="1170" y="794" type="curve"/>
      <point x="956" y="794" type="line"/>
      <point x="938" y="693"/>
      <point x="869" y="612"/>
      <point x="790" y="612" type="curve" smooth="yes"/>
      <point x="745" y="612"/>
      <point x="701" y="638"/>
      <point x="655" y="690" type="curve" smooth="yes"/>
      <point x="565" y="793"/>
      <point x="496" y="827"/>
      <point x="392" y="827" type="curve" smooth="yes"/>
      <point x="192" y="827"/>
      <point x="32" y="663"/>
      <point x="-12" y="413" type="curve"/>
      <point x="203" y="413" type="line"/>
      <point x="221" y="517"/>
      <point x="287" y="591"/>
      <point x="364" y="591" type="curve" smooth="yes"/>
      <point x="411" y="591"/>
      <point x="457" y="565"/>
      <point x="503" y="512" type="curve" smooth="yes"/>
      <point x="595" y="406"/>
      <point x="665" y="375"/>
    </contour>
  </outline>
</glyph>
<glyph name="exclamdown" format="2">
  <advance width="499"/>
  <unicode hex="00A1"/>
  <note>
uni00A1
</note>
  <outline>
    <contour>
      <point x="-119" y="-369" type="line"/>
      <point x="188" y="-369" type="line"/>
      <point x="333" y="639" type="line"/>
      <point x="92" y="639" type="line"/>
    </contour>
    <contour>
      <point x="239" y="795" type="curve" smooth="yes"/>
      <point x="333" y="795"/>
      <point x="413" y="859"/>
      <point x="428" y="948" type="curve" smooth="yes"/>
      <point x="444" y="1037"/>
      <point x="391" y="1101"/>
      <point x="293" y="1101" type="curve" smooth="yes"/>
      <point x="196" y="1101"/>
      <point x="120" y="1037"/>
      <point x="104" y="948" type="curve" smooth="yes"/>
      <point x="89" y="859"/>
      <point x="146" y="795"/>
    </contour>
  </outline>
</glyph>
<glyph name="cent" format="2">
  <advance width="1120"/>
  <unicode hex="00A2"/>
  <note>
uni00A2
</note>
  <outline>
    <contour>
      <point x="264" y="-245" type="line"/>
      <point x="464" y="-245" type="line"/>
      <point x="505" y="-11" type="line"/>
      <point x="719" y="28"/>
      <point x="886" y="181"/>
      <point x="923" y="374" type="curve"/>
      <point x="651" y="374" type="line"/>
      <point x="631" y="277"/>
      <point x="547" y="213"/>
      <point x="441" y="213" type="curve" smooth="yes"/>
      <point x="303" y="213"/>
      <point x="250" y="302"/>
      <point x="290" y="526" type="curve" smooth="yes"/>
      <point x="296" y="559" type="line" smooth="yes"/>
      <point x="335" y="772"/>
      <point x="419" y="868"/>
      <point x="555" y="868" type="curve" smooth="yes"/>
      <point x="663" y="868"/>
      <point x="722" y="794"/>
      <point x="705" y="679" type="curve"/>
      <point x="977" y="679" type="line"/>
      <point x="1013" y="896"/>
      <point x="910" y="1054"/>
      <point x="700" y="1093" type="curve"/>
      <point x="740" y="1318" type="line"/>
      <point x="540" y="1318" type="line"/>
      <point x="500" y="1094" type="line"/>
      <point x="241" y="1051"/>
      <point x="57" y="845"/>
      <point x="6" y="554" type="curve" smooth="yes"/>
      <point x="2" y="532" type="line" smooth="yes"/>
      <point x="-51" y="231"/>
      <point x="63" y="28"/>
      <point x="305" y="-12" type="curve"/>
    </contour>
  </outline>
</glyph>
<glyph name="sterling" format="2">
  <advance width="1190"/>
  <unicode hex="00A3"/>
  <note>
uni00A3
</note>
  <outline>
    <contour>
      <point x="-89" y="0" type="line"/>
      <point x="970" y="0" type="line"/>
      <point x="1013" y="241" type="line"/>
      <point x="360" y="241" type="line"/>
      <point x="410" y="290"/>
      <point x="442" y="355"/>
      <point x="456" y="437" type="curve" smooth="yes"/>
      <point x="475" y="576" type="line"/>
      <point x="775" y="576" type="line"/>
      <point x="816" y="812" type="line"/>
      <point x="507" y="812" type="line"/>
      <point x="538" y="1039" type="line"/>
      <point x="561" y="1167"/>
      <point x="638" y="1233"/>
      <point x="726" y="1233" type="curve" smooth="yes"/>
      <point x="834" y="1233"/>
      <point x="883" y="1171"/>
      <point x="863" y="1058" type="curve"/>
      <point x="1150" y="1058" type="line"/>
      <point x="1195" y="1314"/>
      <point x="1052" y="1475"/>
      <point x="769" y="1475" type="curve" smooth="yes"/>
      <point x="493" y="1475"/>
      <point x="286" y="1308"/>
      <point x="238" y="1039" type="curve"/>
      <point x="205" y="812" type="line"/>
      <point x="51" y="812" type="line"/>
      <point x="10" y="576" type="line"/>
      <point x="172" y="576" type="line"/>
      <point x="149" y="420" type="line" smooth="yes"/>
      <point x="130" y="313"/>
      <point x="96" y="253"/>
      <point x="46" y="241" type="curve"/>
      <point x="-46" y="241" type="line"/>
    </contour>
  </outline>
</glyph>
<glyph name="currency" format="2">
  <advance width="1460"/>
  <unicode hex="00A4"/>
  <note>
uni00A4
</note>
  <outline>
    <contour>
      <point x="1009" y="-27" type="line"/>
      <point x="1177" y="118" type="line"/>
      <point x="1063" y="259" type="line"/>
      <point x="1147" y="363"/>
      <point x="1200" y="479"/>
      <point x="1222" y="608" type="curve" smooth="yes"/>
      <point x="1246" y="743"/>
      <point x="1232" y="863"/>
      <point x="1179" y="969" type="curve"/>
      <point x="1354" y="1120" type="line"/>
      <point x="1237" y="1265" type="line"/>
      <point x="1067" y="1117" type="line"/>
      <point x="978" y="1195"/>
      <point x="868" y="1234"/>
      <point x="739" y="1234" type="curve" smooth="yes"/>
      <point x="610" y="1234"/>
      <point x="487" y="1196"/>
      <point x="371" y="1119" type="curve"/>
      <point x="254" y="1264" type="line"/>
      <point x="88" y="1120" type="line"/>
      <point x="206" y="973" type="line"/>
      <point x="114" y="866"/>
      <point x="56" y="744"/>
      <point x="32" y="608" type="curve" smooth="yes"/>
      <point x="9" y="477"/>
      <point x="22" y="359"/>
      <point x="70" y="255" type="curve"/>
      <point x="-89" y="118" type="line"/>
      <point x="27" y="-26" type="line"/>
      <point x="179" y="106" type="line"/>
      <point x="269" y="22"/>
      <point x="382" y="-20"/>
      <point x="518" y="-20" type="curve" smooth="yes"/>
      <point x="652" y="-20"/>
      <point x="780" y="22"/>
      <point x="901" y="107" type="curve"/>
    </contour>
    <contour>
      <point x="551" y="170" type="curve" smooth="yes"/>
      <point x="319" y="170"/>
      <point x="176" y="367"/>
      <point x="218" y="608" type="curve" smooth="yes"/>
      <point x="261" y="850"/>
      <point x="473" y="1044"/>
      <point x="705" y="1044" type="curve" smooth="yes"/>
      <point x="938" y="1044"/>
      <point x="1080" y="848"/>
      <point x="1037" y="608" type="curve" smooth="yes"/>
      <point x="973" y="247"/>
      <point x="611" y="170"/>
    </contour>
  </outline>
</glyph>
<glyph name="yen" format="2">
  <advance width="1075"/>
  <unicode hex="00A5"/>
  <note>
uni00A5
</note>
  <outline>
    <contour>
      <point x="204" y="0" type="line"/>
      <point x="504" y="0" type="line"/>
      <point x="553" y="278" type="line"/>
      <point x="841" y="278" type="line"/>
      <point x="872" y="452" type="line"/>
      <point x="584" y="452" type="line"/>
      <point x="604" y="567" type="line"/>
      <point x="892" y="567" type="line"/>
      <point x="923" y="742" type="line"/>
      <point x="705" y="742" type="line"/>
      <point x="1153" y="1456" type="line"/>
      <point x="840" y="1456" type="line"/>
      <point x="516" y="892" type="line"/>
      <point x="391" y="1456" type="line"/>
      <point x="76" y="1456" type="line"/>
      <point x="273" y="742" type="line"/>
      <point x="29" y="742" type="line"/>
      <point x="-2" y="567" type="line"/>
      <point x="304" y="567" type="line"/>
      <point x="284" y="452" type="line"/>
      <point x="-22" y="452" type="line"/>
      <point x="-53" y="278" type="line"/>
      <point x="253" y="278" type="line"/>
    </contour>
  </outline>
</glyph>
<glyph name="brokenbar" format="2">
  <advance width="491"/>
  <unicode hex="00A6"/>
  <note>
uni00A6
</note>
  <outline>
    <contour>
      <point x="-110" y="-270" type="line"/>
      <point x="150" y="-270" type="line"/>
      <point x="290" y="525" type="line"/>
      <point x="30" y="525" type="line"/>
    </contour>
    <contour>
      <point x="60" y="698" type="line"/>
      <point x="320" y="698" type="line"/>
      <point x="454" y="1456" type="line"/>
      <point x="194" y="1456" type="line"/>
    </contour>
  </outline>
</glyph>
<glyph name="section" format="2">
  <advance width="1256"/>
  <unicode hex="00A7"/>
  <outline>
    <contour>
      <point x="366" y="-452" type="curve" smooth="yes"/>
      <point x="688" y="-452"/>
      <point x="907" y="-311"/>
      <point x="948" y="-78" type="curve" smooth="yes"/>
      <point x="970" y="46"/>
      <point x="942" y="142"/>
      <point x="864" y="210" type="curve"/>
      <point x="983" y="269"/>
      <point x="1053" y="360"/>
      <point x="1074" y="481" type="curve" smooth="yes"/>
      <point x="1121" y="750"/>
      <point x="910" y="835"/>
      <point x="674" y="901" type="curve" smooth="yes"/>
      <point x="553" y="935"/>
      <point x="389" y="965"/>
      <point x="413" y="1097" type="curve" smooth="yes"/>
      <point x="429" y="1188"/>
      <point x="522" y="1243"/>
      <point x="668" y="1243" type="curve" smooth="yes"/>
      <point x="811" y="1243"/>
      <point x="885" y="1165"/>
      <point x="864" y="1049" type="curve"/>
      <point x="1153" y="1049" type="line"/>
      <point x="1200" y="1317"/>
      <point x="1039" y="1476"/>
      <point x="709" y="1476" type="curve" smooth="yes"/>
      <point x="391" y="1476"/>
      <point x="162" y="1323"/>
      <point x="122" y="1095" type="curve" smooth="yes"/>
      <point x="101" y="972"/>
      <point x="129" y="876"/>
      <point x="208" y="807" type="curve"/>
      <point x="89" y="745"/>
      <point x="19" y="654"/>
      <point x="-3" y="534" type="curve" smooth="yes"/>
      <point x="-49" y="271"/>
      <point x="155" y="184"/>
      <point x="382" y="118" type="curve" smooth="yes"/>
      <point x="492" y="86"/>
      <point x="680" y="40"/>
      <point x="659" y="-80" type="curve" smooth="yes"/>
      <point x="644" y="-164"/>
      <point x="556" y="-218"/>
      <point x="407" y="-218" type="curve" smooth="yes"/>
      <point x="237" y="-218"/>
      <point x="163" y="-153"/>
      <point x="184" y="-35" type="curve"/>
      <point x="-105" y="-35" type="line"/>
      <point x="-153" y="-306"/>
      <point x="23" y="-452"/>
    </contour>
    <contour>
      <point x="676" y="312" type="curve"/>
      <point x="499" y="370"/>
      <point x="400" y="409"/>
      <point x="347" y="444" type="curve" smooth="yes"/>
      <point x="288" y="482"/>
      <point x="283" y="515"/>
      <point x="291" y="563" type="curve" smooth="yes"/>
      <point x="303" y="629"/>
      <point x="336" y="676"/>
      <point x="391" y="704" type="curve"/>
      <point x="756" y="597"/>
      <point x="797" y="535"/>
      <point x="783" y="452" type="curve" smooth="yes"/>
      <point x="772" y="390"/>
      <point x="736" y="343"/>
    </contour>
  </outline>
</glyph>
<glyph name="dieresis" format="2">
  <advance width="856"/>
  <unicode hex="00A8"/>
  <note>
uni00A8
</note>
  <outline>
    <contour>
      <point x="748" y="1238" type="curve" smooth="yes"/>
      <point x="830" y="1238"/>
      <point x="896" y="1296"/>
      <point x="908" y="1365" type="curve" smooth="yes"/>
      <point x="920" y="1436"/>
      <point x="871" y="1492"/>
      <point x="792" y="1492" type="curve" smooth="yes"/>
      <point x="715" y="1492"/>
      <point x="644" y="1437"/>
      <point x="631" y="1365" type="curve" smooth="yes"/>
      <point x="619" y="1296"/>
      <point x="665" y="1238"/>
    </contour>
    <contour>
      <point x="260" y="1239" type="curve" smooth="yes"/>
      <point x="341" y="1239"/>
      <point x="408" y="1294"/>
      <point x="421" y="1365" type="curve" smooth="yes"/>
      <point x="433" y="1434"/>
      <point x="387" y="1492"/>
      <point x="304" y="1492" type="curve" smooth="yes"/>
      <point x="222" y="1492"/>
      <point x="156" y="1434"/>
      <point x="144" y="1365" type="curve" smooth="yes"/>
      <point x="132" y="1296"/>
      <point x="177" y="1239"/>
    </contour>
  </outline>
</glyph>
<glyph name="copyright" format="2">
  <advance width="1609"/>
  <unicode hex="00A9"/>
  <note>
uni00A9
</note>
  <outline>
    <contour>
      <point x="602" y="-20" type="curve" smooth="yes"/>
      <point x="856" y="-20"/>
      <point x="1115" y="120"/>
      <point x="1282" y="352" type="curve" smooth="yes"/>
      <point x="1366" y="467"/>
      <point x="1420" y="593"/>
      <point x="1444" y="729" type="curve" smooth="yes"/>
      <point x="1491" y="998"/>
      <point x="1403" y="1244"/>
      <point x="1205" y="1377" type="curve" smooth="yes"/>
      <point x="1107" y="1443"/>
      <point x="993" y="1476"/>
      <point x="865" y="1476" type="curve" smooth="yes"/>
      <point x="609" y="1476"/>
      <point x="349" y="1335"/>
      <point x="183" y="1104" type="curve" smooth="yes"/>
      <point x="101" y="989"/>
      <point x="48" y="864"/>
      <point x="24" y="729" type="curve" smooth="yes"/>
      <point x="-24" y="458"/>
      <point x="66" y="213"/>
      <point x="262" y="80" type="curve" smooth="yes"/>
      <point x="360" y="13"/>
      <point x="473" y="-20"/>
    </contour>
    <contour>
      <point x="641" y="282" type="curve" smooth="yes"/>
      <point x="854" y="282"/>
      <point x="996" y="393"/>
      <point x="1031" y="596" type="curve"/>
      <point x="875" y="596" type="line"/>
      <point x="852" y="465"/>
      <point x="783" y="417"/>
      <point x="665" y="417" type="curve" smooth="yes"/>
      <point x="542" y="417"/>
      <point x="488" y="513"/>
      <point x="515" y="669" type="curve" smooth="yes"/>
      <point x="537" y="792" type="line" smooth="yes"/>
      <point x="563" y="943"/>
      <point x="652" y="1040"/>
      <point x="775" y="1040" type="curve" smooth="yes"/>
      <point x="892" y="1040"/>
      <point x="946" y="989"/>
      <point x="923" y="861" type="curve"/>
      <point x="1079" y="861" type="line"/>
      <point x="1114" y="1060"/>
      <point x="1016" y="1175"/>
      <point x="798" y="1175" type="curve" smooth="yes"/>
      <point x="588" y="1175"/>
      <point x="422" y="1020"/>
      <point x="381" y="788" type="curve" smooth="yes"/>
      <point x="361" y="675" type="line" smooth="yes"/>
      <point x="319" y="435"/>
      <point x="428" y="282"/>
    </contour>
    <contour>
      <point x="624" y="104" type="curve" smooth="yes"/>
      <point x="411" y="104"/>
      <point x="238" y="223"/>
      <point x="168" y="415" type="curve" smooth="yes"/>
      <point x="133" y="511"/>
      <point x="126" y="616"/>
      <point x="146" y="729" type="curve" smooth="yes"/>
      <point x="200" y="1023"/>
      <point x="392" y="1204"/>
      <point x="560" y="1288" type="curve" smooth="yes"/>
      <point x="692" y="1353"/>
      <point x="807" y="1351"/>
      <point x="843" y="1351" type="curve" smooth="yes"/>
      <point x="1061" y="1351"/>
      <point x="1234" y="1228"/>
      <point x="1300" y="1038" type="curve" smooth="yes"/>
      <point x="1333" y="943"/>
      <point x="1340" y="840"/>
      <point x="1321" y="729" type="curve" smooth="yes"/>
      <point x="1281" y="506"/>
      <point x="1137" y="302"/>
      <point x="936" y="189" type="curve" smooth="yes"/>
      <point x="834" y="132"/>
      <point x="731" y="104"/>
    </contour>
  </outline>
</glyph>
<glyph name="ordfeminine" format="2">
  <advance width="915"/>
  <unicode hex="00AA"/>
  <note>
uni00AA
</note>
  <outline>
    <contour>
      <point x="317" y="691" type="curve" smooth="yes"/>
      <point x="400" y="691"/>
      <point x="472" y="718"/>
      <point x="533" y="773" type="curve"/>
      <point x="532" y="746"/>
      <point x="534" y="723"/>
      <point x="538" y="705" type="curve"/>
      <point x="715" y="705" type="line"/>
      <point x="707" y="759"/>
      <point x="709" y="818"/>
      <point x="720" y="883" type="curve" smooth="yes"/>
      <point x="776" y="1199" type="line" smooth="yes"/>
      <point x="807" y="1376"/>
      <point x="713" y="1476"/>
      <point x="533" y="1476" type="curve" smooth="yes"/>
      <point x="352" y="1476"/>
      <point x="206" y="1382"/>
      <point x="181" y="1243" type="curve"/>
      <point x="352" y="1229" type="line"/>
      <point x="363" y="1293"/>
      <point x="421" y="1328"/>
      <point x="507" y="1328" type="curve" smooth="yes"/>
      <point x="585" y="1328"/>
      <point x="616" y="1286"/>
      <point x="601" y="1201" type="curve" smooth="yes"/>
      <point x="592" y="1150" type="line"/>
      <point x="490" y="1150" type="line" smooth="yes"/>
      <point x="259" y="1150"/>
      <point x="134" y="1066"/>
      <point x="108" y="919" type="curve" smooth="yes"/>
      <point x="84" y="779"/>
      <point x="160" y="691"/>
    </contour>
    <contour>
      <point x="385" y="835" type="curve" smooth="yes"/>
      <point x="307" y="835"/>
      <point x="274" y="864"/>
      <point x="284" y="923" type="curve" smooth="yes"/>
      <point x="295" y="988"/>
      <point x="364" y="1032"/>
      <point x="465" y="1033" type="curve" smooth="yes"/>
      <point x="571" y="1033" type="line"/>
      <point x="547" y="897" type="line"/>
      <point x="506" y="864"/>
      <point x="439" y="835"/>
    </contour>
  </outline>
</glyph>
<glyph name="logicalnot" format="2">
  <advance width="1134"/>
  <unicode hex="00AC"/>
  <note>
uni00AC
</note>
  <outline>
    <contour>
      <point x="636" y="374" type="line"/>
      <point x="836" y="374" type="line"/>
      <point x="912" y="805" type="line"/>
      <point x="77" y="805" type="line"/>
      <point x="47" y="634" type="line"/>
      <point x="682" y="634" type="line"/>
    </contour>
  </outline>
</glyph>
<glyph name="registered" format="2">
  <advance width="1610"/>
  <unicode hex="00AE"/>
  <note>
uni00AE
</note>
  <outline>
    <contour>
      <point x="602" y="-20" type="curve" smooth="yes"/>
      <point x="856" y="-20"/>
      <point x="1115" y="120"/>
      <point x="1282" y="352" type="curve" smooth="yes"/>
      <point x="1366" y="467"/>
      <point x="1420" y="593"/>
      <point x="1444" y="729" type="curve" smooth="yes"/>
      <point x="1491" y="998"/>
      <point x="1403" y="1244"/>
      <point x="1205" y="1377" type="curve" smooth="yes"/>
      <point x="1107" y="1443"/>
      <point x="993" y="1476"/>
      <point x="865" y="1476" type="curve" smooth="yes"/>
      <point x="609" y="1476"/>
      <point x="349" y="1335"/>
      <point x="183" y="1104" type="curve" smooth="yes"/>
      <point x="101" y="989"/>
      <point x="48" y="864"/>
      <point x="24" y="729" type="curve" smooth="yes"/>
      <point x="-24" y="458"/>
      <point x="66" y="213"/>
      <point x="262" y="80" type="curve" smooth="yes"/>
      <point x="360" y="13"/>
      <point x="473" y="-20"/>
    </contour>
    <contour>
      <point x="624" y="104" type="curve" smooth="yes"/>
      <point x="410" y="104"/>
      <point x="237" y="223"/>
      <point x="168" y="415" type="curve" smooth="yes"/>
      <point x="133" y="511"/>
      <point x="126" y="616"/>
      <point x="146" y="729" type="curve" smooth="yes"/>
      <point x="181" y="919"/>
      <point x="292" y="1084"/>
      <point x="434" y="1196" type="curve" smooth="yes"/>
      <point x="557" y="1293"/>
      <point x="703" y="1351"/>
      <point x="843" y="1351" type="curve" smooth="yes"/>
      <point x="1060" y="1351"/>
      <point x="1234" y="1228"/>
      <point x="1300" y="1038" type="curve" smooth="yes"/>
      <point x="1333" y="943"/>
      <point x="1340" y="840"/>
      <point x="1321" y="729" type="curve" smooth="yes"/>
      <point x="1281" y="506"/>
      <point x="1139" y="302"/>
      <point x="936" y="189" type="curve" smooth="yes"/>
      <point x="834" y="132"/>
      <point x="730" y="104"/>
    </contour>
    <contour>
      <point x="366" y="316" type="line"/>
      <point x="517" y="316" type="line"/>
      <point x="576" y="653" type="line"/>
      <point x="734" y="653" type="line" smooth="yes"/>
      <point x="837" y="653"/>
      <point x="870" y="611"/>
      <point x="852" y="510" type="curve" smooth="yes"/>
      <point x="833" y="403"/>
      <point x="826" y="339"/>
      <point x="831" y="316" type="curve"/>
      <point x="986" y="316" type="line"/>
      <point x="989" y="332" type="line"/>
      <point x="980" y="367"/>
      <point x="986" y="414"/>
      <point x="1002" y="505" type="curve" smooth="yes"/>
      <point x="1022" y="614"/>
      <point x="1006" y="688"/>
      <point x="932" y="729" type="curve"/>
      <point x="1014" y="770"/>
      <point x="1062" y="828"/>
      <point x="1075" y="903" type="curve" smooth="yes"/>
      <point x="1105" y="1071"/>
      <point x="998" y="1166"/>
      <point x="797" y="1166" type="curve" smooth="yes"/>
      <point x="516" y="1166" type="line"/>
    </contour>
    <contour>
      <point x="600" y="787" type="line"/>
      <point x="643" y="1033" type="line"/>
      <point x="784" y="1033" type="line" smooth="yes"/>
      <point x="908" y="1033"/>
      <point x="942" y="996"/>
      <point x="925" y="903" type="curve" smooth="yes"/>
      <point x="913" y="834"/>
      <point x="835" y="787"/>
      <point x="736" y="787" type="curve" smooth="yes"/>
    </contour>
  </outline>
</glyph>
<glyph name="degree" format="2">
  <advance width="765"/>
  <unicode hex="00B0"/>
  <note>
uni00B0
</note>
  <outline>
    <contour>
      <point x="371" y="928" type="curve" smooth="yes"/>
      <point x="516" y="928"/>
      <point x="660" y="1047"/>
      <point x="687" y="1200" type="curve" smooth="yes"/>
      <point x="714" y="1353"/>
      <point x="613" y="1476"/>
      <point x="467" y="1476" type="curve" smooth="yes"/>
      <point x="321" y="1476"/>
      <point x="174" y="1352"/>
      <point x="147" y="1200" type="curve" smooth="yes"/>
      <point x="120" y="1047"/>
      <point x="227" y="928"/>
    </contour>
    <contour>
      <point x="397" y="1076" type="curve" smooth="yes"/>
      <point x="328" y="1076"/>
      <point x="282" y="1131"/>
      <point x="294" y="1200" type="curve" smooth="yes"/>
      <point x="306" y="1269"/>
      <point x="371" y="1328"/>
      <point x="441" y="1328" type="curve" smooth="yes"/>
      <point x="512" y="1328"/>
      <point x="553" y="1269"/>
      <point x="541" y="1200" type="curve" smooth="yes"/>
      <point x="528" y="1129"/>
      <point x="468" y="1076"/>
    </contour>
  </outline>
</glyph>
<glyph name="plusminus" format="2">
  <advance width="1094"/>
  <unicode hex="00B1"/>
  <note>
uni00B1
</note>
  <outline>
    <contour>
      <point x="293" y="337" type="line"/>
      <point x="546" y="337" type="line"/>
      <point x="610" y="701" type="line"/>
      <point x="938" y="701" type="line"/>
      <point x="980" y="942" type="line"/>
      <point x="652" y="942" type="line"/>
      <point x="713" y="1285" type="line"/>
      <point x="460" y="1285" type="line"/>
      <point x="399" y="942" type="line"/>
      <point x="64" y="942" type="line"/>
      <point x="22" y="701" type="line"/>
      <point x="357" y="701" type="line"/>
    </contour>
    <contour>
      <point x="-78" y="1" type="line" name="❌"/>
      <point x="786" y="1" type="line" name="❌"/>
      <point x="828" y="236" type="line"/>
      <point x="-36" y="236" type="line"/>
    </contour>
  </outline>
</glyph>
<glyph name="twosuperior" format="2">
  <advance width="751"/>
  <unicode hex="00B2"/>
  <note>
uni00B2
</note>
  <outline>
    <contour>
      <point x="0" y="667" type="line"/>
      <point x="620" y="667" type="line"/>
      <point x="649" y="831" type="line"/>
      <point x="298" y="831" type="line"/>
      <point x="466" y="946" type="line" smooth="yes"/>
      <point x="630" y="1062"/>
      <point x="678" y="1126"/>
      <point x="694" y="1219" type="curve" smooth="yes"/>
      <point x="722" y="1378"/>
      <point x="626" y="1467"/>
      <point x="429" y="1467" type="curve" smooth="yes"/>
      <point x="249" y="1467"/>
      <point x="102" y="1348"/>
      <point x="75" y="1193" type="curve"/>
      <point x="281" y="1193" type="line"/>
      <point x="292" y="1256"/>
      <point x="342" y="1302"/>
      <point x="409" y="1302" type="curve" smooth="yes"/>
      <point x="472" y="1302"/>
      <point x="499" y="1274"/>
      <point x="489" y="1218" type="curve" smooth="yes"/>
      <point x="481" y="1170"/>
      <point x="407" y="1101"/>
      <point x="356" y="1062" type="curve" smooth="yes"/>
      <point x="24" y="805" type="line"/>
    </contour>
  </outline>
</glyph>
<glyph name="threesuperior" format="2">
  <advance width="751"/>
  <unicode hex="00B3"/>
  <note>
uni00B3
</note>
  <outline>
    <contour>
      <point x="287" y="656" type="curve" smooth="yes"/>
      <point x="484" y="656"/>
      <point x="634" y="748"/>
      <point x="659" y="888" type="curve" smooth="yes"/>
      <point x="676" y="983"/>
      <point x="636" y="1045"/>
      <point x="541" y="1072" type="curve"/>
      <point x="637" y="1105"/>
      <point x="692" y="1162"/>
      <point x="706" y="1241" type="curve" smooth="yes"/>
      <point x="731" y="1384"/>
      <point x="623" y="1467"/>
      <point x="430" y="1467" type="curve" smooth="yes"/>
      <point x="255" y="1467"/>
      <point x="114" y="1378"/>
      <point x="90" y="1242" type="curve"/>
      <point x="295" y="1242" type="line"/>
      <point x="302" y="1281"/>
      <point x="351" y="1302"/>
      <point x="407" y="1302" type="curve" smooth="yes"/>
      <point x="472" y="1302"/>
      <point x="507" y="1272"/>
      <point x="499" y="1225" type="curve" smooth="yes"/>
      <point x="489" y="1166"/>
      <point x="444" y="1137"/>
      <point x="365" y="1137" type="curve" smooth="yes"/>
      <point x="283" y="1137" type="line"/>
      <point x="259" y="1001" type="line"/>
      <point x="351" y="1001" type="line" smooth="yes"/>
      <point x="432" y="1000"/>
      <point x="467" y="969"/>
      <point x="456" y="908" type="curve" smooth="yes"/>
      <point x="448" y="861"/>
      <point x="408" y="820"/>
      <point x="328" y="820" type="curve" smooth="yes"/>
      <point x="258" y="820"/>
      <point x="214" y="858"/>
      <point x="222" y="903" type="curve"/>
      <point x="16" y="903" type="line"/>
      <point x="-10" y="751"/>
      <point x="98" y="656"/>
    </contour>
  </outline>
</glyph>
<glyph name="micro" format="2">
  <advance width="1160"/>
  <unicode hex="00B5"/>
  <note>
uni00B5
</note>
  <outline>
    <contour>
      <point x="-125" y="-416" type="line"/>
      <point x="164" y="-416" type="line"/>
      <point x="241" y="24" type="line"/>
      <point x="284" y="-6"/>
      <point x="340" y="-21"/>
      <point x="408" y="-21" type="curve" smooth="yes"/>
      <point x="498" y="-21"/>
      <point x="578" y="9"/>
      <point x="648" y="68" type="curve"/>
      <point x="642" y="0" type="line"/>
      <point x="911" y="0" type="line"/>
      <point x="1102" y="1082" type="line"/>
      <point x="813" y="1082" type="line"/>
      <point x="678" y="319" type="line"/>
      <point x="629" y="249"/>
      <point x="554" y="214"/>
      <point x="455" y="214" type="curve" smooth="yes"/>
      <point x="323" y="214"/>
      <point x="289" y="291"/>
      <point x="318" y="459" type="curve" smooth="yes"/>
      <point x="428" y="1082" type="line"/>
      <point x="139" y="1082" type="line"/>
    </contour>
  </outline>
</glyph>
<glyph name="periodcentered" format="2">
  <advance width="534"/>
  <unicode hex="00B7"/>
  <note>
uni00B7
</note>
  <outline>
    <contour>
      <point x="208" y="543" type="curve" smooth="yes"/>
      <point x="301" y="543"/>
      <point x="383" y="605"/>
      <point x="399" y="697" type="curve" smooth="yes"/>
      <point x="415" y="789"/>
      <point x="357" y="852"/>
      <point x="262" y="852" type="curve" smooth="yes"/>
      <point x="168" y="852"/>
      <point x="88" y="789"/>
      <point x="72" y="697" type="curve" smooth="yes"/>
      <point x="56" y="608"/>
      <point x="112" y="543"/>
    </contour>
  </outline>
</glyph>
<glyph name="cedilla" format="2">
  <advance width="507"/>
  <unicode hex="00B8"/>
  <note>
uni00B8
</note>
  <outline>
    <contour>
      <point x="-137" y="-462" type="line"/>
      <point x="84" y="-462"/>
      <point x="228" y="-371"/>
      <point x="254" y="-224" type="curve" smooth="yes"/>
      <point x="271" y="-127"/>
      <point x="231" y="-69"/>
      <point x="134" y="-51" type="curve"/>
      <point x="155" y="7" type="line"/>
      <point x="-61" y="7" type="line"/>
      <point x="-117" y="-136" type="line"/>
      <point x="-18" y="-143"/>
      <point x="21" y="-158"/>
      <point x="11" y="-214" type="curve" smooth="yes"/>
      <point x="2" y="-268"/>
      <point x="-40" y="-295"/>
      <point x="-115" y="-295" type="curve"/>
    </contour>
  </outline>
</glyph>
<glyph name="ordmasculine" format="2">
  <advance width="931"/>
  <unicode hex="00BA"/>
  <note>
uni00BA
</note>
  <outline>
    <contour>
      <point x="397" y="690" type="curve" smooth="yes"/>
      <point x="606" y="690"/>
      <point x="767" y="832"/>
      <point x="804" y="1044" type="curve" smooth="yes"/>
      <point x="817" y="1116" type="line" smooth="yes"/>
      <point x="856" y="1337"/>
      <point x="740" y="1476"/>
      <point x="533" y="1476" type="curve" smooth="yes"/>
      <point x="327" y="1476"/>
      <point x="162" y="1334"/>
      <point x="125" y="1121" type="curve" smooth="yes"/>
      <point x="112" y="1049" type="line" smooth="yes"/>
      <point x="74" y="832"/>
      <point x="186" y="690"/>
    </contour>
    <contour>
      <point x="423" y="836" type="curve" smooth="yes"/>
      <point x="316" y="836"/>
      <point x="263" y="913"/>
      <point x="286" y="1044" type="curve" smooth="yes"/>
      <point x="299" y="1117" type="line" smooth="yes"/>
      <point x="323" y="1253"/>
      <point x="403" y="1328"/>
      <point x="507" y="1328" type="curve" smooth="yes"/>
      <point x="613" y="1328"/>
      <point x="666" y="1250"/>
      <point x="643" y="1121" type="curve" smooth="yes"/>
      <point x="629" y="1041" type="line" smooth="yes"/>
      <point x="605" y="912"/>
      <point x="527" y="836"/>
    </contour>
  </outline>
</glyph>
<glyph name="questiondown" format="2">
  <advance width="969"/>
  <unicode hex="00BF"/>
  <note>
uni00BF
</note>
  <outline>
    <contour>
      <point x="259" y="-385" type="curve" smooth="yes"/>
      <point x="539" y="-385"/>
      <point x="737" y="-234"/>
      <point x="785" y="22" type="curve"/>
      <point x="496" y="22" type="line"/>
      <point x="474" y="-86"/>
      <point x="399" y="-149"/>
      <point x="296" y="-149" type="curve" smooth="yes"/>
      <point x="196" y="-149"/>
      <point x="154" y="-99"/>
      <point x="170" y="8" type="curve" smooth="yes"/>
      <point x="180" y="67"/>
      <point x="208" y="114"/>
      <point x="254" y="162" type="curve" smooth="yes"/>
      <point x="278" y="186"/>
      <point x="320" y="223"/>
      <point x="382" y="272" type="curve" smooth="yes"/>
      <point x="505" y="371"/>
      <point x="557" y="466"/>
      <point x="589" y="643" type="curve"/>
      <point x="333" y="643" type="line"/>
      <point x="309" y="524"/>
      <point x="278" y="471"/>
      <point x="87" y="318" type="curve" smooth="yes"/>
      <point x="-33" y="216"/>
      <point x="-102" y="112"/>
      <point x="-121" y="6" type="curve" smooth="yes"/>
      <point x="-165" y="-245"/>
      <point x="-25" y="-385"/>
    </contour>
    <contour>
      <point x="490" y="796" type="curve" smooth="yes"/>
      <point x="583" y="796"/>
      <point x="663" y="860"/>
      <point x="679" y="949" type="curve" smooth="yes"/>
      <point x="694" y="1038"/>
      <point x="641" y="1102"/>
      <point x="544" y="1102" type="curve" smooth="yes"/>
      <point x="446" y="1102"/>
      <point x="370" y="1038"/>
      <point x="355" y="949" type="curve" smooth="yes"/>
      <point x="339" y="860"/>
      <point x="396" y="796"/>
    </contour>
  </outline>
</glyph>
<glyph name="AE" format="2">
  <advance width="1914"/>
  <unicode hex="00C6"/>
  <note>
uni00C6
</note>
  <outline>
    <contour>
      <point x="-189" y="0" type="line"/>
      <point x="150" y="0" type="line"/>
      <point x="376" y="333" type="line"/>
      <point x="822" y="333" type="line"/>
      <point x="777" y="0" type="line"/>
      <point x="1674" y="0" type="line"/>
      <point x="1716" y="235" type="line"/>
      <point x="1098" y="235" type="line"/>
      <point x="1151" y="629" type="line"/>
      <point x="1643" y="629" type="line"/>
      <point x="1685" y="865" type="line"/>
      <point x="1183" y="865" type="line"/>
      <point x="1230" y="1220" type="line"/>
      <point x="1828" y="1220" type="line"/>
      <point x="1870" y="1456" type="line"/>
      <point x="854" y="1456" type="line"/>
    </contour>
    <contour>
      <point x="544" y="580" type="line"/>
      <point x="932" y="1150" type="line"/>
      <point x="855" y="580" type="line"/>
    </contour>
  </outline>
</glyph>
<glyph name="Eth" format="2">
  <advance width="1373"/>
  <unicode hex="00D0"/>
  <note>
uni00D0
</note>
  <outline>
    <contour>
      <point x="-31" y="0" type="line"/>
      <point x="420" y="0" type="line" smooth="yes"/>
      <point x="1004" y="7"/>
      <point x="1187" y="594"/>
      <point x="1205" y="694" type="curve" smooth="yes"/>
      <point x="1216" y="761" type="line" smooth="yes"/>
      <point x="1264" y="1032"/>
      <point x="1184" y="1254"/>
      <point x="1002" y="1370" type="curve" smooth="yes"/>
      <point x="911" y="1427"/>
      <point x="802" y="1456"/>
      <point x="674" y="1456" type="curve" smooth="yes"/>
      <point x="226" y="1456" type="line"/>
      <point x="115" y="825" type="line"/>
      <point x="-65" y="825" type="line"/>
      <point x="-98" y="642" type="line"/>
      <point x="82" y="642" type="line"/>
    </contour>
    <contour>
      <point x="312" y="241" type="line"/>
      <point x="382" y="642" type="line"/>
      <point x="601" y="642" type="line"/>
      <point x="634" y="825" type="line"/>
      <point x="415" y="825" type="line"/>
      <point x="483" y="1213" type="line"/>
      <point x="631" y="1213" type="line" smooth="yes"/>
      <point x="867" y="1213"/>
      <point x="965" y="1058"/>
      <point x="913" y="762" type="curve" smooth="yes"/>
      <point x="901" y="694" type="line" smooth="yes"/>
      <point x="849" y="403"/>
      <point x="694" y="241"/>
      <point x="457" y="241" type="curve" smooth="yes"/>
    </contour>
  </outline>
</glyph>
<glyph name="multiply" format="2">
  <advance width="1092"/>
  <unicode hex="00D7"/>
  <note>
uni00D7
</note>
  <outline>
    <contour>
      <point x="80" y="205" type="line"/>
      <point x="439" y="515" type="line"/>
      <point x="689" y="205" type="line"/>
      <point x="889" y="373" type="line"/>
      <point x="637" y="686" type="line"/>
      <point x="999" y="999" type="line"/>
      <point x="859" y="1167" type="line"/>
      <point x="499" y="856" type="line"/>
      <point x="250" y="1167" type="line"/>
      <point x="50" y="999" type="line"/>
      <point x="302" y="686" type="line"/>
      <point x="-60" y="373" type="line"/>
    </contour>
  </outline>
</glyph>
<glyph name="Oslash" format="2">
  <advance width="1408"/>
  <unicode hex="00D8"/>
  <note>
uni00D8
</note>
  <outline>
    <contour>
      <point x="-61" y="-95" type="line"/>
      <point x="127" y="-95" type="line"/>
      <point x="238" y="50" type="line"/>
      <point x="317" y="3"/>
      <point x="411" y="-20"/>
      <point x="521" y="-20" type="curve" smooth="yes"/>
      <point x="765" y="-20"/>
      <point x="983" y="102"/>
      <point x="1122" y="318" type="curve" smooth="yes"/>
      <point x="1192" y="426"/>
      <point x="1239" y="552"/>
      <point x="1265" y="695" type="curve" smooth="yes"/>
      <point x="1275" y="754" type="line" smooth="yes"/>
      <point x="1315" y="980"/>
      <point x="1287" y="1159"/>
      <point x="1191" y="1291" type="curve"/>
      <point x="1365" y="1518" type="line"/>
      <point x="1178" y="1518" type="line"/>
      <point x="1082" y="1394" type="line"/>
      <point x="999" y="1449"/>
      <point x="899" y="1476"/>
      <point x="782" y="1476" type="curve" smooth="yes"/>
      <point x="540" y="1476"/>
      <point x="322" y="1356"/>
      <point x="180" y="1138" type="curve" smooth="yes"/>
      <point x="109" y="1029"/>
      <point x="61" y="902"/>
      <point x="36" y="759" type="curve" smooth="yes"/>
      <point x="26" y="702" type="line" smooth="yes"/>
      <point x="-16" y="462"/>
      <point x="17" y="277"/>
      <point x="125" y="147" type="curve"/>
    </contour>
    <contour>
      <point x="564" y="226" type="curve" smooth="yes"/>
      <point x="502" y="226"/>
      <point x="450" y="242"/>
      <point x="409" y="273" type="curve"/>
      <point x="981" y="1017" type="line"/>
      <point x="994" y="947"/>
      <point x="991" y="862"/>
      <point x="973" y="761" type="curve" smooth="yes"/>
      <point x="961" y="690" type="line" smooth="yes"/>
      <point x="906" y="387"/>
      <point x="765" y="226"/>
    </contour>
    <contour>
      <point x="328" y="410" type="line"/>
      <point x="308" y="485"/>
      <point x="309" y="580"/>
      <point x="329" y="695" type="curve" smooth="yes"/>
      <point x="341" y="766" type="line" smooth="yes"/>
      <point x="396" y="1069"/>
      <point x="537" y="1228"/>
      <point x="739" y="1228" type="curve" smooth="yes"/>
      <point x="810" y="1228"/>
      <point x="866" y="1208"/>
      <point x="908" y="1167" type="curve"/>
    </contour>
  </outline>
</glyph>
<glyph name="Thorn" format="2">
  <advance width="1210"/>
  <unicode hex="00DE"/>
  <note>
uni00DE
</note>
  <outline>
    <contour>
      <point x="-58" y="0" type="line"/>
      <point x="231" y="0" type="line"/>
      <point x="282" y="287" type="line"/>
      <point x="524" y="287" type="line" smooth="yes"/>
      <point x="845" y="294"/>
      <point x="1073" y="469"/>
      <point x="1120" y="738" type="curve" smooth="yes"/>
      <point x="1152" y="917"/>
      <point x="1089" y="1059"/>
      <point x="942" y="1133" type="curve" smooth="yes"/>
      <point x="869" y="1170"/>
      <point x="779" y="1188"/>
      <point x="671" y="1189" type="curve" smooth="yes"/>
      <point x="441" y="1189" type="line"/>
      <point x="488" y="1456" type="line"/>
      <point x="199" y="1456" type="line"/>
    </contour>
    <contour>
      <point x="323" y="520" type="line"/>
      <point x="400" y="956" type="line"/>
      <point x="631" y="956" type="line" smooth="yes"/>
      <point x="780" y="953"/>
      <point x="854" y="867"/>
      <point x="831" y="736" type="curve" smooth="yes"/>
      <point x="808" y="605"/>
      <point x="702" y="520"/>
      <point x="546" y="520" type="curve" smooth="yes"/>
    </contour>
  </outline>
</glyph>
<glyph name="germandbls" format="2">
  <advance width="1218"/>
  <unicode hex="00DF"/>
  <note>
uni00DF
</note>
  <outline>
    <contour>
      <point x="585" y="-20" type="curve" smooth="yes"/>
      <point x="710" y="-20"/>
      <point x="814" y="6"/>
      <point x="897" y="55" type="curve" smooth="yes"/>
      <point x="1003" y="119"/>
      <point x="1072" y="221"/>
      <point x="1096" y="354" type="curve" smooth="yes"/>
      <point x="1113" y="453"/>
      <point x="1079" y="547"/>
      <point x="994" y="636" type="curve" smooth="yes"/>
      <point x="951" y="681"/>
      <point x="867" y="760"/>
      <point x="880" y="830" type="curve" smooth="yes"/>
      <point x="889" y="881"/>
      <point x="916" y="936"/>
      <point x="962" y="994" type="curve" smooth="yes"/>
      <point x="1008" y="1052"/>
      <point x="1037" y="1117"/>
      <point x="1050" y="1189" type="curve" smooth="yes"/>
      <point x="1090" y="1417"/>
      <point x="948" y="1559"/>
      <point x="693" y="1559" type="curve" smooth="yes"/>
      <point x="392" y="1559"/>
      <point x="190" y="1394"/>
      <point x="138" y="1101" type="curve" smooth="yes"/>
      <point x="-56" y="0" type="line"/>
      <point x="233" y="0" type="line"/>
      <point x="430" y="1114" type="line" smooth="yes"/>
      <point x="458" y="1256"/>
      <point x="525" y="1327"/>
      <point x="631" y="1327" type="curve" smooth="yes"/>
      <point x="722" y="1327"/>
      <point x="778" y="1267"/>
      <point x="761" y="1174" type="curve" smooth="yes"/>
      <point x="752" y="1121"/>
      <point x="724" y="1065"/>
      <point x="676" y="1005" type="curve" smooth="yes"/>
      <point x="629" y="944"/>
      <point x="600" y="882"/>
      <point x="588" y="818" type="curve" smooth="yes"/>
      <point x="571" y="718"/>
      <point x="605" y="628"/>
      <point x="691" y="548" type="curve" smooth="yes"/>
      <point x="785" y="460"/>
      <point x="818" y="410"/>
      <point x="807" y="349" type="curve" smooth="yes"/>
      <point x="792" y="265"/>
      <point x="725" y="213"/>
      <point x="620" y="213" type="curve" smooth="yes"/>
      <point x="539" y="213"/>
      <point x="469" y="230"/>
      <point x="410" y="265" type="curve"/>
      <point x="316" y="36" type="line"/>
      <point x="363" y="4"/>
      <point x="477" y="-20"/>
    </contour>
  </outline>
</glyph>
<glyph name="ae" format="2">
  <advance width="1729"/>
  <unicode hex="00E6"/>
  <note>
uni00E6
</note>
  <outline>
    <contour>
      <point x="272" y="-20" type="curve" smooth="yes"/>
      <point x="438" y="-20"/>
      <point x="590" y="35"/>
      <point x="692" y="127" type="curve"/>
      <point x="767" y="29"/>
      <point x="887" y="-20"/>
      <point x="1052" y="-20" type="curve" smooth="yes"/>
      <point x="1204" y="-20"/>
      <point x="1364" y="25"/>
      <point x="1475" y="100" type="curve"/>
      <point x="1431" y="289" type="line"/>
      <point x="1305" y="229"/>
      <point x="1225" y="212"/>
      <point x="1123" y="212" type="curve" smooth="yes"/>
      <point x="987" y="212"/>
      <point x="875" y="261"/>
      <point x="890" y="384" type="curve" smooth="yes"/>
      <point x="898" y="450" type="line"/>
      <point x="1566" y="450" type="line"/>
      <point x="1593" y="607" type="line" smooth="yes"/>
      <point x="1648" y="916"/>
      <point x="1509" y="1102"/>
      <point x="1227" y="1102" type="curve" smooth="yes"/>
      <point x="1093" y="1103"/>
      <point x="978" y="1067"/>
      <point x="881" y="992" type="curve"/>
      <point x="817" y="1065"/>
      <point x="714" y="1102"/>
      <point x="574" y="1102" type="curve" smooth="yes"/>
      <point x="296" y="1102"/>
      <point x="80" y="963"/>
      <point x="45" y="764" type="curve"/>
      <point x="331" y="745" type="line"/>
      <point x="343" y="814"/>
      <point x="420" y="868"/>
      <point x="529" y="868" type="curve" smooth="yes"/>
      <point x="632" y="868"/>
      <point x="677" y="807"/>
      <point x="649" y="649" type="curve"/>
      <point x="481" y="649" type="line" smooth="yes"/>
      <point x="157" y="649"/>
      <point x="-32" y="528"/>
      <point x="-69" y="319" type="curve" smooth="yes"/>
      <point x="-106" y="104"/>
      <point x="24" y="-20"/>
    </contour>
    <contour>
      <point x="364" y="192" type="curve" smooth="yes"/>
      <point x="251" y="192"/>
      <point x="207" y="240"/>
      <point x="220" y="315" type="curve" smooth="yes"/>
      <point x="234" y="396"/>
      <point x="325" y="461"/>
      <point x="452" y="461" type="curve" smooth="yes"/>
      <point x="616" y="461" type="line"/>
      <point x="582" y="272" type="line"/>
      <point x="522" y="225"/>
      <point x="429" y="192"/>
    </contour>
    <contour>
      <point x="934" y="644" type="line"/>
      <point x="977" y="789"/>
      <point x="1065" y="868"/>
      <point x="1185" y="868" type="curve" smooth="yes"/>
      <point x="1296" y="868"/>
      <point x="1343" y="797"/>
      <point x="1321" y="672" type="curve" smooth="yes"/>
      <point x="1316" y="644" type="line"/>
    </contour>
  </outline>
</glyph>
<glyph name="eth" format="2">
  <advance width="1200"/>
  <unicode hex="00F0"/>
  <note>
uni00F0
</note>
  <outline>
    <contour>
      <point x="393" y="-20" type="curve" smooth="yes"/>
      <point x="589" y="-20"/>
      <point x="774" y="85"/>
      <point x="895" y="268" type="curve" smooth="yes"/>
      <point x="955" y="359"/>
      <point x="996" y="462"/>
      <point x="1016" y="577" type="curve" smooth="yes"/>
      <point x="1029" y="651" type="line" smooth="yes"/>
      <point x="1074" y="912"/>
      <point x="1028" y="1130"/>
      <point x="888" y="1305" type="curve"/>
      <point x="1043" y="1394" type="line"/>
      <point x="986" y="1508" type="line"/>
      <point x="796" y="1399" type="line"/>
      <point x="693" y="1487"/>
      <point x="565" y="1547"/>
      <point x="412" y="1579" type="curve"/>
      <point x="281" y="1355" type="line"/>
      <point x="375" y="1329"/>
      <point x="457" y="1292"/>
      <point x="526" y="1244" type="curve"/>
      <point x="356" y="1147" type="line"/>
      <point x="414" y="1033" type="line"/>
      <point x="627" y="1155" type="line"/>
      <point x="692" y="1080"/>
      <point x="731" y="991"/>
      <point x="746" y="890" type="curve"/>
      <point x="683" y="941"/>
      <point x="606" y="966"/>
      <point x="516" y="966" type="curve" smooth="yes"/>
      <point x="241" y="966"/>
      <point x="30" y="776"/>
      <point x="-24" y="468" type="curve" smooth="yes"/>
      <point x="-56" y="287"/>
      <point x="6" y="128"/>
      <point x="145" y="44" type="curve" smooth="yes"/>
      <point x="214" y="1"/>
      <point x="297" y="-20"/>
    </contour>
    <contour>
      <point x="438" y="213" type="curve" smooth="yes"/>
      <point x="307" y="213"/>
      <point x="238" y="319"/>
      <point x="265" y="468" type="curve" smooth="yes"/>
      <point x="295" y="640"/>
      <point x="391" y="746"/>
      <point x="542" y="746" type="curve" smooth="yes"/>
      <point x="640" y="746"/>
      <point x="707" y="718"/>
      <point x="742" y="663" type="curve"/>
      <point x="723" y="552" type="line" smooth="yes"/>
      <point x="685" y="341"/>
      <point x="575" y="213"/>
    </contour>
  </outline>
</glyph>
<glyph name="divide" format="2">
  <advance width="1169"/>
  <unicode hex="00F7"/>
  <note>
uni00F7
</note>
  <outline>
    <contour>
      <point x="-27" y="571" type="line"/>
      <point x="1001" y="571" type="line"/>
      <point x="1041" y="801" type="line"/>
      <point x="13" y="801" type="line"/>
    </contour>
    <contour>
      <point x="410" y="127" type="curve" smooth="yes"/>
      <point x="508" y="127"/>
      <point x="584" y="188"/>
      <point x="600" y="277" type="curve" smooth="yes"/>
      <point x="616" y="369"/>
      <point x="558" y="429"/>
      <point x="463" y="429" type="curve" smooth="yes"/>
      <point x="367" y="429"/>
      <point x="289" y="368"/>
      <point x="273" y="277" type="curve" smooth="yes"/>
      <point x="258" y="189"/>
      <point x="310" y="127"/>
    </contour>
    <contour>
      <point x="553" y="939" type="curve" smooth="yes"/>
      <point x="651" y="939"/>
      <point x="727" y="1000"/>
      <point x="743" y="1089" type="curve" smooth="yes"/>
      <point x="759" y="1181"/>
      <point x="701" y="1241"/>
      <point x="606" y="1241" type="curve" smooth="yes"/>
      <point x="510" y="1241"/>
      <point x="432" y="1180"/>
      <point x="416" y="1089" type="curve" smooth="yes"/>
      <point x="401" y="1001"/>
      <point x="453" y="939"/>
    </contour>
  </outline>
</glyph>
<glyph name="oslash" format="2">
  <advance width="1168"/>
  <unicode hex="00F8"/>
  <note>
uni00F8
</note>
  <outline>
    <contour>
      <point x="385" y="-20" type="curve" smooth="yes"/>
      <point x="697" y="-20"/>
      <point x="935" y="198"/>
      <point x="994" y="530" type="curve" smooth="yes"/>
      <point x="1037" y="911"/>
      <point x="873" y="1102"/>
      <point x="581" y="1102" type="curve" smooth="yes"/>
      <point x="206" y="1101"/>
      <point x="19" y="818"/>
      <point x="-30" y="538" type="curve" smooth="yes"/>
      <point x="-91" y="194"/>
      <point x="73" y="-20"/>
    </contour>
    <contour>
      <point x="426" y="213" type="curve" smooth="yes"/>
      <point x="282" y="213"/>
      <point x="221" y="325"/>
      <point x="258" y="530" type="curve" smooth="yes"/>
      <point x="298" y="761"/>
      <point x="398" y="868"/>
      <point x="539" y="868" type="curve" smooth="yes"/>
      <point x="682" y="868"/>
      <point x="744" y="752"/>
      <point x="708" y="551" type="curve" smooth="yes"/>
      <point x="667" y="315"/>
      <point x="566" y="213"/>
    </contour>
    <contour>
      <point x="-51" y="-325" type="line"/>
      <point x="164" y="-325" type="line"/>
      <point x="979" y="1256" type="line"/>
      <point x="764" y="1256" type="line"/>
    </contour>
  </outline>
</glyph>
<glyph name="thorn" format="2">
  <advance width="1180"/>
  <unicode hex="00FE"/>
  <note>
uni00FE
</note>
  <outline>
    <contour>
      <point x="-151" y="-416" type="line"/>
      <point x="139" y="-416" type="line"/>
      <point x="229" y="93" type="line"/>
      <point x="282" y="18"/>
      <point x="363" y="-20"/>
      <point x="473" y="-20" type="curve" smooth="yes"/>
      <point x="730" y="-20"/>
      <point x="931" y="198"/>
      <point x="990" y="531" type="curve" smooth="yes"/>
      <point x="992" y="545" type="line" smooth="yes"/>
      <point x="1054" y="896"/>
      <point x="933" y="1102"/>
      <point x="669" y="1102" type="curve" smooth="yes"/>
      <point x="561" y="1102"/>
      <point x="467" y="1064"/>
      <point x="387" y="989" type="curve"/>
      <point x="483" y="1536" type="line"/>
      <point x="193" y="1536" type="line"/>
    </contour>
    <contour>
      <point x="438" y="213" type="curve" smooth="yes"/>
      <point x="348" y="213"/>
      <point x="292" y="248"/>
      <point x="268" y="318" type="curve"/>
      <point x="347" y="765" type="line"/>
      <point x="395" y="833"/>
      <point x="463" y="867"/>
      <point x="551" y="867" type="curve" smooth="yes"/>
      <point x="687" y="867"/>
      <point x="740" y="753"/>
      <point x="705" y="552" type="curve" smooth="yes"/>
      <point x="665" y="326"/>
      <point x="576" y="213"/>
    </contour>
  </outline>
</glyph>
<glyph name="OE" format="2">
  <advance width="1953"/>
  <unicode hex="0152"/>
  <note>
uni0152
</note>
  <outline>
    <contour>
      <point x="508" y="-20" type="curve" smooth="yes"/>
      <point x="588" y="-20"/>
      <point x="686" y="-13"/>
      <point x="799" y="0" type="curve"/>
      <point x="1685" y="0" type="line"/>
      <point x="1728" y="241" type="line"/>
      <point x="1053" y="241" type="line"/>
      <point x="1121" y="631" type="line"/>
      <point x="1696" y="631" type="line"/>
      <point x="1738" y="866" type="line"/>
      <point x="1163" y="866" type="line"/>
      <point x="1224" y="1213" type="line"/>
      <point x="1897" y="1213" type="line"/>
      <point x="1940" y="1456" type="line"/>
      <point x="1056" y="1456" type="line"/>
      <point x="947" y="1469"/>
      <point x="851" y="1476"/>
      <point x="769" y="1476" type="curve" smooth="yes"/>
      <point x="206" y="1473"/>
      <point x="70" y="934"/>
      <point x="60" y="880" type="curve" smooth="yes"/>
      <point x="4" y="563" type="line" smooth="yes"/>
      <point x="-79" y="33"/>
      <point x="444" y="-20"/>
    </contour>
    <contour>
      <point x="549" y="212" type="curve" smooth="yes"/>
      <point x="349" y="212"/>
      <point x="254" y="341"/>
      <point x="296" y="576" type="curve" smooth="yes"/>
      <point x="350" y="885" type="line" smooth="yes"/>
      <point x="392" y="1116"/>
      <point x="528" y="1243"/>
      <point x="728" y="1243" type="curve" smooth="yes"/>
      <point x="787" y="1243"/>
      <point x="853" y="1238"/>
      <point x="926" y="1229" type="curve"/>
      <point x="749" y="225" type="line"/>
      <point x="678" y="216"/>
      <point x="611" y="212"/>
    </contour>
  </outline>
</glyph>
<glyph name="oe" format="2">
  <advance width="1860"/>
  <unicode hex="0153"/>
  <note>
uni0153
</note>
  <outline>
    <contour>
      <point x="399" y="-20" type="curve" smooth="yes"/>
      <point x="554" y="-20"/>
      <point x="686" y="30"/>
      <point x="796" y="129" type="curve"/>
      <point x="872" y="30"/>
      <point x="987" y="-20"/>
      <point x="1143" y="-20" type="curve" smooth="yes"/>
      <point x="1301" y="-20"/>
      <point x="1463" y="26"/>
      <point x="1574" y="103" type="curve"/>
      <point x="1528" y="290" type="line"/>
      <point x="1408" y="230"/>
      <point x="1327" y="212"/>
      <point x="1214" y="212" type="curve" smooth="yes"/>
      <point x="1076" y="212"/>
      <point x="1000" y="299"/>
      <point x="1006" y="450" type="curve"/>
      <point x="1660" y="450" type="line"/>
      <point x="1687" y="608" type="line" smooth="yes"/>
      <point x="1743" y="923"/>
      <point x="1600" y="1102"/>
      <point x="1315" y="1102" type="curve" smooth="yes"/>
      <point x="1171" y="1103"/>
      <point x="1046" y="1054"/>
      <point x="939" y="953" type="curve"/>
      <point x="863" y="1052"/>
      <point x="749" y="1102"/>
      <point x="595" y="1102" type="curve" smooth="yes"/>
      <point x="389" y="1102"/>
      <point x="212" y="1005"/>
      <point x="101" y="838" type="curve" smooth="yes"/>
      <point x="45" y="754"/>
      <point x="8" y="658"/>
      <point x="-11" y="551" type="curve" smooth="yes"/>
      <point x="-13" y="538" type="line" smooth="yes"/>
      <point x="-74" y="193"/>
      <point x="88" y="-20"/>
    </contour>
    <contour>
      <point x="440" y="212" type="curve" smooth="yes"/>
      <point x="296" y="212"/>
      <point x="238" y="323"/>
      <point x="275" y="530" type="curve" smooth="yes"/>
      <point x="316" y="762"/>
      <point x="413" y="868"/>
      <point x="553" y="868" type="curve" smooth="yes"/>
      <point x="695" y="868"/>
      <point x="755" y="755"/>
      <point x="719" y="551" type="curve" smooth="yes"/>
      <point x="678" y="314"/>
      <point x="581" y="212"/>
    </contour>
    <contour>
      <point x="1043" y="647" type="line"/>
      <point x="1090" y="790"/>
      <point x="1171" y="868"/>
      <point x="1273" y="868" type="curve" smooth="yes"/>
      <point x="1384" y="868"/>
      <point x="1438" y="802"/>
      <point x="1415" y="673" type="curve" smooth="yes"/>
      <point x="1410" y="647" type="line"/>
    </contour>
  </outline>
</glyph>
<glyph name="circumflex" format="2">
  <advance width="964"/>
  <unicode hex="02C6"/>
  <note>
uni02C6
</note>
  <outline>
    <contour>
      <point x="152" y="1244" type="line"/>
      <point x="378" y="1244" type="line"/>
      <point x="557" y="1389" type="line"/>
      <point x="686" y="1244" type="line"/>
      <point x="916" y="1244" type="line"/>
      <point x="918" y="1256" type="line"/>
      <point x="667" y="1536" type="line"/>
      <point x="499" y="1536" type="line"/>
      <point x="154" y="1260" type="line"/>
    </contour>
  </outline>
</glyph>
<glyph name="breve" format="2">
  <advance width="874"/>
  <unicode hex="02D8"/>
  <note>
uni02D8
</note>
  <outline>
    <contour>
      <point x="478" y="1229" type="curve" smooth="yes"/>
      <point x="685" y="1229"/>
      <point x="845" y="1349"/>
      <point x="876" y="1526" type="curve"/>
      <point x="669" y="1526" type="line"/>
      <point x="654" y="1442"/>
      <point x="594" y="1394"/>
      <point x="507" y="1394" type="curve" smooth="yes"/>
      <point x="419" y="1394"/>
      <point x="374" y="1442"/>
      <point x="389" y="1526" type="curve"/>
      <point x="184" y="1526" type="line"/>
      <point x="153" y="1346"/>
      <point x="271" y="1229"/>
    </contour>
  </outline>
</glyph>
<glyph name="dotaccent" format="2">
  <advance width="497"/>
  <unicode hex="02D9"/>
  <note>
uni02D9
</note>
  <outline>
    <contour>
      <point x="294" y="1238" type="curve" smooth="yes"/>
      <point x="386" y="1238"/>
      <point x="451" y="1294"/>
      <point x="465" y="1374" type="curve" smooth="yes"/>
      <point x="480" y="1454"/>
      <point x="434" y="1511"/>
      <point x="342" y="1511" type="curve" smooth="yes"/>
      <point x="252" y="1511"/>
      <point x="184" y="1454"/>
      <point x="169" y="1374" type="curve" smooth="yes"/>
      <point x="155" y="1294"/>
      <point x="203" y="1238"/>
    </contour>
  </outline>
</glyph>
<glyph name="ring" format="2">
  <advance width="685"/>
  <unicode hex="02DA"/>
  <note>
uni02DA
</note>
  <outline>
    <contour>
      <point x="349" y="1124" type="curve" smooth="yes"/>
      <point x="476" y="1124"/>
      <point x="588" y="1212"/>
      <point x="608" y="1325" type="curve" smooth="yes"/>
      <point x="629" y="1442"/>
      <point x="544" y="1530"/>
      <point x="421" y="1530" type="curve" smooth="yes"/>
      <point x="297" y="1530"/>
      <point x="182" y="1440"/>
      <point x="162" y="1325" type="curve" smooth="yes"/>
      <point x="142" y="1214"/>
      <point x="220" y="1124"/>
    </contour>
    <contour>
      <point x="366" y="1218" type="curve" smooth="yes"/>
      <point x="299" y="1218"/>
      <point x="267" y="1266"/>
      <point x="277" y="1325" type="curve" smooth="yes"/>
      <point x="288" y="1386"/>
      <point x="339" y="1434"/>
      <point x="404" y="1434" type="curve" smooth="yes"/>
      <point x="469" y="1434"/>
      <point x="504" y="1386"/>
      <point x="493" y="1325" type="curve" smooth="yes"/>
      <point x="483" y="1266"/>
      <point x="433" y="1218"/>
    </contour>
  </outline>
</glyph>
<glyph name="ogonek" format="2">
  <advance width="554"/>
  <unicode hex="02DB"/>
  <note>
uni02DB
</note>
  <outline>
    <contour>
      <point x="-5" y="-422" type="curve" smooth="yes"/>
      <point x="56" y="-422"/>
      <point x="114" y="-407"/>
      <point x="168" y="-378" type="curve"/>
      <point x="166" y="-221" type="line"/>
      <point x="133" y="-234"/>
      <point x="105" y="-241"/>
      <point x="83" y="-241" type="curve" smooth="yes"/>
      <point x="39" y="-241"/>
      <point x="21" y="-219"/>
      <point x="28" y="-176" type="curve" smooth="yes"/>
      <point x="41" y="-105"/>
      <point x="105" y="-56"/>
      <point x="213" y="0" type="curve"/>
      <point x="76" y="60" type="line"/>
      <point x="-85" y="-7"/>
      <point x="-175" y="-98"/>
      <point x="-195" y="-213" type="curve" smooth="yes"/>
      <point x="-218" y="-344"/>
      <point x="-139" y="-422"/>
    </contour>
  </outline>
</glyph>
<glyph name="hungarumlaut" format="2">
  <advance width="764"/>
  <unicode hex="02DD"/>
  <note>
uni02DD
</note>
  <outline>
    <contour>
      <point x="436" y="1234" type="line"/>
      <point x="654" y="1234" type="line"/>
      <point x="973" y="1535" type="line" name="❌"/>
      <point x="714" y="1535" type="line" name="❌"/>
    </contour>
    <contour>
      <point x="84" y="1234" type="line"/>
      <point x="296" y="1234" type="line"/>
      <point x="578" y="1535" type="line" name="❌"/>
      <point x="323" y="1535" type="line" name="❌"/>
    </contour>
  </outline>
</glyph>
<glyph name="lowringmod" format="2">
  <advance width="602"/>
  <unicode hex="02F3"/>
  <note>
uni02F3
</note>
  <outline>
    <contour>
      <point x="69" y="-399" type="curve" smooth="yes"/>
      <point x="177" y="-399"/>
      <point x="267" y="-325"/>
      <point x="284" y="-230" type="curve" smooth="yes"/>
      <point x="300" y="-135"/>
      <point x="237" y="-57"/>
      <point x="129" y="-57" type="curve" smooth="yes"/>
      <point x="22" y="-57"/>
      <point x="-72" y="-133"/>
      <point x="-89" y="-230" type="curve" smooth="yes"/>
      <point x="-107" y="-327"/>
      <point x="-38" y="-399"/>
    </contour>
    <contour>
      <point x="85" y="-304" type="curve" smooth="yes"/>
      <point x="48" y="-303"/>
      <point x="15" y="-278"/>
      <point x="24" y="-230" type="curve" smooth="yes"/>
      <point x="33" y="-176"/>
      <point x="81" y="-149"/>
      <point x="120" y="-153" type="curve" smooth="yes"/>
      <point x="153" y="-157"/>
      <point x="179" y="-182"/>
      <point x="171" y="-230" type="curve" smooth="yes"/>
      <point x="162" y="-280"/>
      <point x="121" y="-304"/>
    </contour>
  </outline>
</glyph>
<glyph name="gravecomb" format="2">
  <unicode hex="0300"/>
  <note>
uni0300
</note>
  <outline>
    <contour>
      <point x="-595" y="1226" type="line"/>
      <point x="-358" y="1226" type="line"/>
      <point x="-500" y="1536" type="line"/>
      <point x="-816" y="1536" type="line"/>
    </contour>
  </outline>
</glyph>
<glyph name="dotbelowcomb" format="2">
  <unicode hex="0323"/>
  <note>
uni0323
</note>
  <outline>
    <contour>
      <point x="-857" y="-373" type="curve" smooth="yes"/>
      <point x="-759" y="-373"/>
      <point x="-684" y="-313"/>
      <point x="-670" y="-234" type="curve" smooth="yes"/>
      <point x="-656" y="-154"/>
      <point x="-712" y="-96"/>
      <point x="-808" y="-96" type="curve" smooth="yes"/>
      <point x="-902" y="-96"/>
      <point x="-979" y="-154"/>
      <point x="-993" y="-234" type="curve" smooth="yes"/>
      <point x="-1007" y="-313"/>
      <point x="-954" y="-373"/>
    </contour>
  </outline>
</glyph>
<glyph name="tonos" format="2">
  <advance width="525"/>
  <unicode hex="0384"/>
  <note>
uni0384
</note>
  <outline>
    <contour>
      <point x="249" y="1256" type="line"/>
      <point x="421" y="1256" type="line"/>
      <point x="645" y="1601" type="line"/>
      <point x="383" y="1601" type="line"/>
    </contour>
  </outline>
</glyph>
<glyph name="dieresistonos" format="2">
  <advance width="1035"/>
  <unicode hex="0385"/>
  <note>
uni0385
</note>
  <outline>
    <contour>
      <point x="523" y="1419" type="line"/>
      <point x="671" y="1419" type="line"/>
      <point x="884" y="1751" type="line"/>
      <point x="625" y="1751" type="line"/>
    </contour>
    <contour>
      <point x="269" y="1239" type="curve" smooth="yes"/>
      <point x="351" y="1239"/>
      <point x="417" y="1296"/>
      <point x="429" y="1365" type="curve" smooth="yes"/>
      <point x="441" y="1434"/>
      <point x="396" y="1492"/>
      <point x="313" y="1492" type="curve" smooth="yes"/>
      <point x="231" y="1492"/>
      <point x="164" y="1434"/>
      <point x="152" y="1365" type="curve" smooth="yes"/>
      <point x="139" y="1294"/>
      <point x="187" y="1239"/>
    </contour>
    <contour>
      <point x="885" y="1238" type="curve" smooth="yes"/>
      <point x="967" y="1238"/>
      <point x="1034" y="1296"/>
      <point x="1046" y="1365" type="curve" smooth="yes"/>
      <point x="1059" y="1437"/>
      <point x="1007" y="1492"/>
      <point x="929" y="1492" type="curve" smooth="yes"/>
      <point x="851" y="1492"/>
      <point x="781" y="1436"/>
      <point x="769" y="1365" type="curve" smooth="yes"/>
      <point x="757" y="1296"/>
      <point x="802" y="1238"/>
    </contour>
  </outline>
</glyph>
<glyph name="period-ethiopic" format="2">
  <advance width="1020"/>
  <unicode hex="1362"/>
  <outline>
    <contour>
      <point x="613" y="532" type="curve" smooth="yes"/>
      <point x="709" y="532"/>
      <point x="788" y="594"/>
      <point x="804" y="685" type="curve" smooth="yes"/>
      <point x="820" y="777"/>
      <point x="762" y="840"/>
      <point x="667" y="840" type="curve" smooth="yes"/>
      <point x="574" y="840"/>
      <point x="493" y="777"/>
      <point x="477" y="685" type="curve" smooth="yes"/>
      <point x="461" y="594"/>
      <point x="518" y="532"/>
    </contour>
    <contour>
      <point x="116" y="-11" type="curve" smooth="yes"/>
      <point x="212" y="-11"/>
      <point x="291" y="51"/>
      <point x="307" y="142" type="curve" smooth="yes"/>
      <point x="323" y="234"/>
      <point x="266" y="297"/>
      <point x="171" y="297" type="curve" smooth="yes"/>
      <point x="78" y="297"/>
      <point x="-4" y="234"/>
      <point x="-20" y="142" type="curve" smooth="yes"/>
      <point x="-36" y="51"/>
      <point x="21" y="-11"/>
    </contour>
    <contour>
      <point x="516" y="-11" type="curve" smooth="yes"/>
      <point x="612" y="-11"/>
      <point x="691" y="51"/>
      <point x="707" y="142" type="curve" smooth="yes"/>
      <point x="723" y="234"/>
      <point x="666" y="297"/>
      <point x="571" y="297" type="curve" smooth="yes"/>
      <point x="478" y="297"/>
      <point x="396" y="234"/>
      <point x="380" y="142" type="curve" smooth="yes"/>
      <point x="364" y="51"/>
      <point x="421" y="-11"/>
    </contour>
    <contour>
      <point x="213" y="532" type="curve" smooth="yes"/>
      <point x="309" y="532"/>
      <point x="388" y="594"/>
      <point x="404" y="685" type="curve" smooth="yes"/>
      <point x="420" y="777"/>
      <point x="362" y="840"/>
      <point x="267" y="840" type="curve" smooth="yes"/>
      <point x="174" y="840"/>
      <point x="93" y="777"/>
      <point x="77" y="685" type="curve" smooth="yes"/>
      <point x="61" y="594"/>
      <point x="118" y="532"/>
    </contour>
  </outline>
</glyph>
<glyph name="comma-ethiopic" format="2">
  <advance width="556"/>
  <unicode hex="1363"/>
  <outline>
    <contour>
      <point x="182" y="972" type="line"/>
      <point x="531" y="972" type="line"/>
      <point x="560" y="1139" type="line"/>
      <point x="211" y="1139" type="line"/>
    </contour>
    <component base="period" xOffset="20" yOffset="78"/>
    <component base="period" xOffset="159" yOffset="565"/>
  </outline>
</glyph>
<glyph name="semicolon-ethiopic" format="2">
  <advance width="556"/>
  <unicode hex="1364"/>
  <outline>
    <contour>
      <point x="151" y="935" type="line"/>
      <point x="511" y="935" type="line"/>
      <point x="541" y="1103" type="line"/>
      <point x="181" y="1103" type="line"/>
    </contour>
    <contour>
      <point x="-29" y="-142" type="line"/>
      <point x="335" y="-142" type="line"/>
      <point x="368" y="46" type="line"/>
      <point x="4" y="46" type="line"/>
    </contour>
    <component base="period" xOffset="164" yOffset="559"/>
    <component base="period" xOffset="80" yOffset="128"/>
  </outline>
</glyph>
<glyph name="colon-ethiopic" format="2">
  <advance width="556"/>
  <unicode hex="1365"/>
  <outline>
    <contour>
      <point x="53" y="512" type="line"/>
      <point x="382" y="512" type="line"/>
      <point x="407" y="651" type="line"/>
      <point x="78" y="651" type="line"/>
    </contour>
    <component base="period" xOffset="70" yOffset="98"/>
    <component base="period" xOffset="211" yOffset="753"/>
  </outline>
</glyph>
<glyph name="prefacecolon-ethiopic" format="2">
  <advance width="730"/>
  <unicode hex="1366"/>
  <outline>
    <contour>
      <point x="232" y="507" type="line"/>
      <point x="512" y="507" type="line"/>
      <point x="538" y="655" type="line"/>
      <point x="258" y="655" type="line"/>
    </contour>
    <component base="period" xOffset="20" yOffset="126"/>
    <component base="period" xOffset="122" yOffset="725"/>
  </outline>
</glyph>
<glyph name="question-ethiopic" format="2">
  <advance width="556"/>
  <unicode hex="1367"/>
  <outline>
    <contour>
      <point x="242" y="441" type="curve" smooth="yes"/>
      <point x="334" y="441"/>
      <point x="400" y="497"/>
      <point x="414" y="577" type="curve" smooth="yes"/>
      <point x="428" y="657"/>
      <point x="382" y="714"/>
      <point x="290" y="714" type="curve" smooth="yes"/>
      <point x="201" y="714"/>
      <point x="132" y="657"/>
      <point x="118" y="577" type="curve" smooth="yes"/>
      <point x="104" y="497"/>
      <point x="151" y="441"/>
    </contour>
    <component base="period" xOffset="20"/>
    <component base="period" xOffset="225" yOffset="783"/>
  </outline>
</glyph>
<glyph name="paragraphseparator-ethiopic" format="2">
  <advance width="1337"/>
  <unicode hex="1368"/>
  <outline>
    <contour>
      <point x="1099" y="663" type="curve" smooth="yes"/>
      <point x="1184" y="716"/>
      <point x="1212" y="809"/>
      <point x="1172" y="887" type="curve" smooth="yes"/>
      <point x="1132" y="963"/>
      <point x="1044" y="984"/>
      <point x="959" y="931" type="curve" smooth="yes"/>
      <point x="875" y="879"/>
      <point x="847" y="788"/>
      <point x="888" y="710" type="curve" smooth="yes"/>
      <point x="929" y="631"/>
      <point x="1016" y="611"/>
    </contour>
    <contour>
      <point x="286" y="157" type="curve" smooth="yes"/>
      <point x="371" y="210"/>
      <point x="399" y="303"/>
      <point x="358" y="381" type="curve" smooth="yes"/>
      <point x="319" y="457"/>
      <point x="230" y="478"/>
      <point x="146" y="425" type="curve" smooth="yes"/>
      <point x="62" y="373"/>
      <point x="34" y="282"/>
      <point x="75" y="204" type="curve" smooth="yes"/>
      <point x="116" y="125"/>
      <point x="203" y="105"/>
    </contour>
    <contour>
      <point x="502" y="-11" type="curve" smooth="yes"/>
      <point x="598" y="-11"/>
      <point x="677" y="51"/>
      <point x="693" y="142" type="curve" smooth="yes"/>
      <point x="709" y="234"/>
      <point x="652" y="297"/>
      <point x="557" y="297" type="curve" smooth="yes"/>
      <point x="464" y="297"/>
      <point x="382" y="234"/>
      <point x="366" y="142" type="curve" smooth="yes"/>
      <point x="350" y="51"/>
      <point x="407" y="-11"/>
    </contour>
    <contour>
      <point x="133" y="564" type="curve" smooth="yes"/>
      <point x="205" y="519"/>
      <point x="299" y="549"/>
      <point x="360" y="632" type="curve" smooth="yes"/>
      <point x="419" y="714"/>
      <point x="414" y="805"/>
      <point x="341" y="850" type="curve" smooth="yes"/>
      <point x="270" y="894"/>
      <point x="177" y="864"/>
      <point x="116" y="782" type="curve" smooth="yes"/>
      <point x="55" y="698"/>
      <point x="60" y="608"/>
    </contour>
    <contour>
      <point x="609" y="416" type="curve" smooth="yes"/>
      <point x="701" y="416"/>
      <point x="766" y="472"/>
      <point x="781" y="552" type="curve" smooth="yes"/>
      <point x="795" y="632"/>
      <point x="749" y="689"/>
      <point x="657" y="689" type="curve" smooth="yes"/>
      <point x="568" y="689"/>
      <point x="499" y="632"/>
      <point x="485" y="552" type="curve" smooth="yes"/>
      <point x="470" y="472"/>
      <point x="518" y="416"/>
    </contour>
    <contour>
      <point x="829" y="135" type="curve" smooth="yes"/>
      <point x="901" y="90"/>
      <point x="995" y="120"/>
      <point x="1056" y="203" type="curve" smooth="yes"/>
      <point x="1115" y="285"/>
      <point x="1111" y="376"/>
      <point x="1037" y="421" type="curve" smooth="yes"/>
      <point x="966" y="465"/>
      <point x="873" y="435"/>
      <point x="812" y="353" type="curve" smooth="yes"/>
      <point x="752" y="269"/>
      <point x="757" y="179"/>
    </contour>
    <contour>
      <point x="659" y="872" type="curve" smooth="yes"/>
      <point x="755" y="872"/>
      <point x="834" y="934"/>
      <point x="850" y="1025" type="curve" smooth="yes"/>
      <point x="866" y="1117"/>
      <point x="808" y="1180"/>
      <point x="713" y="1180" type="curve" smooth="yes"/>
      <point x="620" y="1180"/>
      <point x="539" y="1117"/>
      <point x="523" y="1025" type="curve" smooth="yes"/>
      <point x="507" y="934"/>
      <point x="564" y="872"/>
    </contour>
  </outline>
</glyph>
<glyph name="two-ethiopic" format="2">
  <advance width="1337"/>
  <unicode hex="136A"/>
  <outline>
    <contour>
      <point x="558" y="-9" type="curve" smooth="yes"/>
      <point x="869" y="-9"/>
      <point x="1103" y="160"/>
      <point x="1149" y="419" type="curve" smooth="yes"/>
      <point x="1177" y="579"/>
      <point x="1119" y="700"/>
      <point x="965" y="759" type="curve"/>
      <point x="1108" y="819"/>
      <point x="1218" y="939"/>
      <point x="1241" y="1072" type="curve" smooth="yes"/>
      <point x="1287" y="1331"/>
      <point x="1129" y="1487"/>
      <point x="821" y="1487" type="curve" smooth="yes"/>
      <point x="566" y="1487"/>
      <point x="325" y="1337"/>
      <point x="275" y="1091" type="curve" smooth="yes" name="❌"/>
      <point x="137" y="410" type="line" smooth="yes"/>
      <point x="85" y="157"/>
      <point x="268" y="-9"/>
    </contour>
    <contour>
      <point x="606" y="224" type="curve" smooth="yes"/>
      <point x="486" y="224"/>
      <point x="406" y="301"/>
      <point x="426" y="410" type="curve"/>
      <point x="563" y="1090" type="line" name="❌"/>
      <point x="581" y="1187"/>
      <point x="676" y="1254"/>
      <point x="787" y="1254" type="curve" smooth="yes"/>
      <point x="910" y="1254"/>
      <point x="972" y="1185"/>
      <point x="952" y="1068" type="curve" smooth="yes"/>
      <point x="930" y="947"/>
      <point x="847" y="867"/>
      <point x="700" y="867" type="curve" smooth="yes"/>
      <point x="546" y="867" type="line"/>
      <point x="506" y="641" type="line"/>
      <point x="659" y="641" type="line" smooth="yes"/>
      <point x="819" y="641"/>
      <point x="886" y="568"/>
      <point x="861" y="423" type="curve" smooth="yes"/>
      <point x="840" y="303"/>
      <point x="743" y="224"/>
    </contour>
    <component base="_num.bar" xOffset="96"/>
  </outline>
</glyph>
<glyph name="three-ethiopic" format="2">
  <advance width="1150"/>
  <unicode hex="136B"/>
  <outline>
    <contour>
      <point x="-130" y="0" type="line"/>
      <point x="174" y="0" type="line"/>
      <point x="390" y="1222" type="line"/>
      <point x="1114" y="1222" type="line"/>
      <point x="1155" y="1456" type="line"/>
      <point x="127" y="1456" type="line"/>
    </contour>
    <component base="_num.bar"/>
  </outline>
</glyph>
<glyph name="four-ethiopic" format="2">
  <advance width="1293"/>
  <unicode hex="136C"/>
  <outline>
    <contour>
      <point x="490" y="-20" type="curve" smooth="yes"/>
      <point x="811" y="-20"/>
      <point x="1019" y="199"/>
      <point x="1090" y="602" type="curve" smooth="yes"/>
      <point x="1138" y="870" type="line" smooth="yes"/>
      <point x="1203" y="1261"/>
      <point x="1068" y="1476"/>
      <point x="751" y="1476" type="curve" smooth="yes"/>
      <point x="434" y="1476"/>
      <point x="223" y="1262"/>
      <point x="151" y="855" type="curve" smooth="yes"/>
      <point x="104" y="587" type="line" smooth="yes"/>
      <point x="39" y="196"/>
      <point x="173" y="-20"/>
    </contour>
    <contour>
      <point x="531" y="213" type="curve" smooth="yes"/>
      <point x="388" y="213"/>
      <point x="347" y="327"/>
      <point x="389" y="564" type="curve" smooth="yes"/>
      <point x="451" y="918" type="line" smooth="yes"/>
      <point x="494" y="1141"/>
      <point x="574" y="1242"/>
      <point x="710" y="1242" type="curve" smooth="yes"/>
      <point x="850" y="1242"/>
      <point x="896" y="1137"/>
      <point x="853" y="896" type="curve" smooth="yes"/>
      <point x="792" y="550" type="line" smooth="yes"/>
      <point x="749" y="322"/>
      <point x="672" y="213"/>
    </contour>
    <component base="_num.bar" xOffset="96"/>
  </outline>
</glyph>
<glyph name="five-ethiopic" format="2">
  <advance width="1213"/>
  <unicode hex="136D"/>
  <outline>
    <contour>
      <point x="-74" y="0" type="line"/>
      <point x="954" y="0" type="line"/>
      <point x="995" y="234" type="line"/>
      <point x="271" y="234" type="line"/>
      <point x="501" y="1456" type="line"/>
      <point x="196" y="1456" type="line"/>
    </contour>
    <component base="_num.bar" xOffset="56"/>
  </outline>
</glyph>
<glyph name="nine-ethiopic" format="2">
  <advance width="1293"/>
  <unicode hex="1371"/>
  <outline>
    <contour>
      <point x="474" y="-20" type="curve" smooth="yes"/>
      <point x="795" y="-20"/>
      <point x="1003" y="199"/>
      <point x="1074" y="602" type="curve" smooth="yes"/>
      <point x="1122" y="870" type="line" smooth="yes"/>
      <point x="1171" y="1148"/>
      <point x="1115" y="1338"/>
      <point x="964" y="1424" type="curve"/>
      <point x="801" y="1207" type="line"/>
      <point x="833" y="1178"/>
      <point x="850" y="1130"/>
      <point x="852" y="1062" type="curve"/>
      <point x="473" y="1062" type="line"/>
      <point x="502" y="1139"/>
      <point x="541" y="1190"/>
      <point x="592" y="1218" type="curve"/>
      <point x="466" y="1412" type="line"/>
      <point x="298" y="1320"/>
      <point x="184" y="1133"/>
      <point x="135" y="855" type="curve" smooth="yes"/>
      <point x="88" y="587" type="line" smooth="yes"/>
      <point x="19" y="196"/>
      <point x="157" y="-20"/>
    </contour>
    <contour>
      <point x="515" y="213" type="curve" smooth="yes"/>
      <point x="372" y="213"/>
      <point x="331" y="327"/>
      <point x="373" y="564" type="curve" smooth="yes"/>
      <point x="419" y="826" type="line"/>
      <point x="825" y="826" type="line"/>
      <point x="776" y="550" type="line" smooth="yes"/>
      <point x="736" y="322"/>
      <point x="653" y="213"/>
    </contour>
    <component base="_num.bar" xOffset="96"/>
  </outline>
</glyph>
<glyph name="ten-ethiopic" format="2">
  <advance width="1150"/>
  <unicode hex="1372"/>
  <outline>
    <contour>
      <point x="321" y="0" type="line"/>
      <point x="610" y="0" type="line"/>
      <point x="867" y="1458" type="line" name="❌"/>
      <point x="836" y="1458" type="line" name="❌"/>
      <point x="518" y="1114" type="line"/>
    </contour>
    <component base="_num.bar"/>
  </outline>
</glyph>
<glyph name="twenty-ethiopic" format="2">
  <advance width="1150"/>
  <unicode hex="1373"/>
  <outline>
    <contour>
      <point x="-86" y="28" type="line"/>
      <point x="204" y="28" type="line"/>
      <point x="307" y="609" type="line"/>
      <point x="357" y="689"/>
      <point x="448" y="742"/>
      <point x="541" y="742" type="curve" smooth="yes"/>
      <point x="672" y="742"/>
      <point x="736" y="636"/>
      <point x="708" y="477" type="curve" smooth="yes"/>
      <point x="629" y="28" type="line"/>
      <point x="917" y="28" type="line"/>
      <point x="997" y="480" type="line" smooth="yes"/>
      <point x="1049" y="776"/>
      <point x="923" y="974"/>
      <point x="670" y="974" type="curve" smooth="yes"/>
      <point x="552" y="974"/>
      <point x="447" y="935"/>
      <point x="356" y="856" type="curve"/>
      <point x="430" y="1091"/>
      <point x="621" y="1233"/>
      <point x="910" y="1233" type="curve"/>
      <point x="952" y="1471" type="line"/>
      <point x="420" y="1469"/>
      <point x="108" y="1130"/>
      <point x="28" y="671" type="curve" smooth="yes"/>
    </contour>
    <component base="_num.bar"/>
  </outline>
</glyph>
<glyph name="thirty-ethiopic" format="2">
  <advance width="1267"/>
  <unicode hex="1374"/>
  <outline>
    <contour>
      <point x="-65" y="0" type="line"/>
      <point x="220" y="0" type="line"/>
      <point x="436" y="1222" type="line"/>
      <point x="582" y="1222" type="line"/>
      <point x="366" y="0" type="line"/>
      <point x="719" y="0" type="line" smooth="yes"/>
      <point x="837" y="0"/>
      <point x="938" y="86"/>
      <point x="959" y="204" type="curve" smooth="yes"/>
      <point x="1180" y="1456" type="line"/>
      <point x="886" y="1456" type="line"/>
      <point x="670" y="234" type="line"/>
      <point x="553" y="234" type="line"/>
      <point x="769" y="1456" type="line"/>
      <point x="294" y="1456" type="line" smooth="yes"/>
      <point x="235" y="1456"/>
      <point x="184" y="1413"/>
      <point x="174" y="1354" type="curve" smooth="yes"/>
    </contour>
    <component base="_num.bar" xOffset="65"/>
  </outline>
</glyph>
<glyph name="forty-ethiopic" format="2">
  <advance width="1150"/>
  <unicode hex="1375"/>
  <outline>
    <contour>
      <point x="583" y="630" type="line"/>
      <point x="758" y="630" type="line"/>
      <point x="892" y="1386" type="line"/>
      <point x="717" y="1386" type="line"/>
    </contour>
    <component base="fifty-ethiopic"/>
  </outline>
</glyph>
<glyph name="seventy-ethiopic" format="2">
  <advance width="1150"/>
  <unicode hex="1378"/>
  <outline>
    <contour>
      <point x="394" y="-20" type="curve" smooth="yes"/>
      <point x="551" y="-20"/>
      <point x="682" y="33"/>
      <point x="782" y="134" type="curve"/>
      <point x="544" y="242" type="line"/>
      <point x="513" y="223"/>
      <point x="477" y="213"/>
      <point x="435" y="213" type="curve" smooth="yes"/>
      <point x="292" y="213"/>
      <point x="251" y="327"/>
      <point x="293" y="564" type="curve" smooth="yes"/>
      <point x="355" y="918" type="line" smooth="yes"/>
      <point x="394" y="1141"/>
      <point x="478" y="1242"/>
      <point x="614" y="1242" type="curve" smooth="yes"/>
      <point x="667" y="1242"/>
      <point x="708" y="1227"/>
      <point x="734" y="1194" type="curve"/>
      <point x="1025" y="1255" type="line"/>
      <point x="969" y="1400"/>
      <point x="844" y="1476"/>
      <point x="655" y="1476" type="curve" smooth="yes"/>
      <point x="338" y="1476"/>
      <point x="127" y="1262"/>
      <point x="55" y="855" type="curve" smooth="yes"/>
      <point x="8" y="587" type="line" smooth="yes"/>
      <point x="-61" y="196"/>
      <point x="76" y="-20"/>
    </contour>
    <component base="_num.bar"/>
    <component base="ring" xOffset="530" yOffset="-230"/>
  </outline>
</glyph>
<glyph name="ninety-ethiopic" format="2">
  <advance width="1267"/>
  <unicode hex="137A"/>
  <outline>
    <contour>
      <point x="603" y="1" type="line"/>
      <point x="881" y="1" type="line"/>
      <point x="763" y="594" type="line"/>
      <point x="1191" y="1294" type="line"/>
      <point x="1220" y="1456" type="line"/>
      <point x="192" y="1456" type="line"/>
      <point x="151" y="1222" type="line"/>
      <point x="875" y="1222" type="line"/>
      <point x="481" y="604" type="line"/>
    </contour>
    <component base="_num.bar" xOffset="65"/>
  </outline>
</glyph>
<glyph name="hundred-ethiopic" format="2">
  <advance width="1302"/>
  <unicode hex="137B"/>
  <outline>
    <contour>
      <point x="0" y="0" type="line"/>
      <point x="296" y="0" type="line"/>
      <point x="400" y="587" type="line"/>
      <point x="463" y="508"/>
      <point x="554" y="469"/>
      <point x="672" y="469" type="curve" smooth="yes"/>
      <point x="925" y="469"/>
      <point x="1121" y="667"/>
      <point x="1173" y="963" type="curve" smooth="yes"/>
      <point x="1187" y="1043"/>
      <point x="1196" y="1461"/>
      <point x="771" y="1463" type="curve" smooth="yes"/>
      <point x="464" y="1463"/>
      <point x="217" y="1232"/>
      <point x="155" y="876" type="curve" smooth="yes"/>
    </contour>
    <contour>
      <point x="625" y="701" type="curve" smooth="yes"/>
      <point x="532" y="701"/>
      <point x="459" y="754"/>
      <point x="437" y="834" type="curve"/>
      <point x="453" y="922" type="line" smooth="yes"/>
      <point x="487" y="1115"/>
      <point x="587" y="1230"/>
      <point x="724" y="1230" type="curve" smooth="yes"/>
      <point x="848" y="1230"/>
      <point x="913" y="1122"/>
      <point x="886" y="966" type="curve" smooth="yes"/>
      <point x="858" y="807"/>
      <point x="756" y="701"/>
    </contour>
    <component base="_num.bar" xOffset="91" yOffset="-52"/>
  </outline>
</glyph>
<glyph name="underscoredbl" format="2">
  <advance width="933"/>
  <unicode hex="2017"/>
  <note>
uni2017
</note>
  <outline>
    <contour>
      <point x="-217" y="-153" type="line"/>
      <point x="694" y="-153" type="line"/>
      <point x="721" y="0" type="line"/>
      <point x="-190" y="0" type="line"/>
    </contour>
    <contour>
      <point x="-263" y="-416" type="line"/>
      <point x="648" y="-416" type="line"/>
      <point x="675" y="-263" type="line"/>
      <point x="-236" y="-263" type="line"/>
    </contour>
  </outline>
</glyph>
<glyph name="quoteleft" format="2">
  <advance width="409"/>
  <unicode hex="2018"/>
  <note>
uni2018
</note>
  <outline>
    <contour>
      <point x="98" y="1048" type="line"/>
      <point x="327" y="1048" type="line"/>
      <point x="356" y="1215" type="line" smooth="yes"/>
      <point x="375" y="1308"/>
      <point x="421" y="1400"/>
      <point x="494" y="1491" type="curve"/>
      <point x="372" y="1570" type="line"/>
      <point x="254" y="1483"/>
      <point x="147" y="1323"/>
      <point x="124" y="1198" type="curve" smooth="yes"/>
    </contour>
  </outline>
</glyph>
<glyph name="quoteright" format="2">
  <advance width="409"/>
  <unicode hex="2019"/>
  <note>
uni2019
</note>
  <outline>
    <contour>
      <point x="181" y="1009" type="line"/>
      <point x="309" y="1105"/>
      <point x="409" y="1261"/>
      <point x="430" y="1381" type="curve" smooth="yes"/>
      <point x="457" y="1536" type="line"/>
      <point x="227" y="1536" type="line"/>
      <point x="197" y="1367" type="line" smooth="yes"/>
      <point x="178" y="1271"/>
      <point x="132" y="1178"/>
      <point x="59" y="1088" type="curve"/>
    </contour>
  </outline>
</glyph>
<glyph name="quotesinglbase" format="2">
  <advance width="407"/>
  <unicode hex="201A"/>
  <note>
uni201A
</note>
  <outline>
    <contour>
      <point x="-43" y="-305" type="line"/>
      <point x="84" y="-208"/>
      <point x="182" y="-56"/>
      <point x="204" y="63" type="curve" smooth="yes"/>
      <point x="234" y="229" type="line"/>
      <point x="-3" y="229" type="line"/>
      <point x="-35" y="48" type="line" smooth="yes"/>
      <point x="-55" y="-51"/>
      <point x="-98" y="-142"/>
      <point x="-165" y="-226" type="curve"/>
    </contour>
  </outline>
</glyph>
<glyph name="quotereversed" format="2">
  <advance width="409"/>
  <unicode hex="201B"/>
  <note>
uni201B
</note>
  <outline>
    <contour>
      <point x="241" y="1009" type="curve"/>
      <point x="391" y="1088" type="line"/>
      <point x="343" y="1201"/>
      <point x="337" y="1278"/>
      <point x="352" y="1373" type="curve" smooth="yes"/>
      <point x="381" y="1536" type="line"/>
      <point x="151" y="1536" type="line"/>
      <point x="124" y="1382" type="line" smooth="yes"/>
      <point x="102" y="1259"/>
      <point x="148" y="1104"/>
    </contour>
  </outline>
</glyph>
<glyph name="quotedblbase" format="2">
  <advance width="705"/>
  <unicode hex="201E"/>
  <note>
uni201E
</note>
  <outline>
    <contour>
      <point x="297" y="-325" type="line"/>
      <point x="420" y="-230"/>
      <point x="523" y="-68"/>
      <point x="548" y="60" type="curve" smooth="yes"/>
      <point x="584" y="263" type="line"/>
      <point x="347" y="263" type="line"/>
      <point x="309" y="48" type="line" smooth="yes"/>
      <point x="290" y="-49"/>
      <point x="243" y="-147"/>
      <point x="168" y="-246" type="curve"/>
    </contour>
    <contour>
      <point x="-39" y="-325" type="line"/>
      <point x="85" y="-228"/>
      <point x="180" y="-65"/>
      <point x="204" y="64" type="curve" smooth="yes"/>
      <point x="240" y="263" type="line"/>
      <point x="3" y="263" type="line"/>
      <point x="-35" y="47" type="line" smooth="yes"/>
      <point x="-56" y="-59"/>
      <point x="-100" y="-157"/>
      <point x="-168" y="-246" type="curve"/>
    </contour>
  </outline>
</glyph>
<glyph name="dagger" format="2">
  <advance width="1129"/>
  <unicode hex="2020"/>
  <note>
uni2020
</note>
  <outline>
    <contour>
      <point x="214" y="0" type="line"/>
      <point x="503" y="0" type="line"/>
      <point x="652" y="841" type="line"/>
      <point x="1005" y="841" type="line"/>
      <point x="1047" y="1082" type="line"/>
      <point x="694" y="1082" type="line"/>
      <point x="760" y="1456" type="line"/>
      <point x="471" y="1456" type="line"/>
      <point x="405" y="1082" type="line"/>
      <point x="57" y="1082" type="line"/>
      <point x="15" y="841" type="line"/>
      <point x="363" y="841" type="line"/>
    </contour>
  </outline>
</glyph>
<glyph name="daggerdbl" format="2">
  <advance width="1167"/>
  <unicode hex="2021"/>
  <note>
uni2021
</note>
  <outline>
    <contour>
      <point x="180" y="-416" type="line"/>
      <point x="470" y="-416" type="line"/>
      <point x="543" y="0" type="line"/>
      <point x="896" y="0" type="line"/>
      <point x="937" y="233" type="line"/>
      <point x="584" y="233" type="line"/>
      <point x="693" y="848" type="line"/>
      <point x="1046" y="848" type="line"/>
      <point x="1087" y="1082" type="line"/>
      <point x="734" y="1082" type="line"/>
      <point x="800" y="1456" type="line"/>
      <point x="510" y="1456" type="line"/>
      <point x="444" y="1082" type="line"/>
      <point x="98" y="1082" type="line"/>
      <point x="57" y="848" type="line"/>
      <point x="403" y="848" type="line"/>
      <point x="294" y="233" type="line"/>
      <point x="-52" y="233" type="line"/>
      <point x="-93" y="0" type="line"/>
      <point x="253" y="0" type="line"/>
    </contour>
  </outline>
</glyph>
<glyph name="bullet" format="2">
  <advance width="690"/>
  <unicode hex="2022"/>
  <note>
uni2022
</note>
  <outline>
    <contour>
      <point x="270" y="500" type="curve" smooth="yes"/>
      <point x="412" y="500"/>
      <point x="523" y="591"/>
      <point x="548" y="728" type="curve" smooth="yes"/>
      <point x="555" y="771" type="line" smooth="yes"/>
      <point x="576" y="906"/>
      <point x="500" y="996"/>
      <point x="356" y="996" type="curve" smooth="yes"/>
      <point x="217" y="996"/>
      <point x="104" y="905"/>
      <point x="79" y="766" type="curve" smooth="yes"/>
      <point x="73" y="731" type="line" smooth="yes"/>
      <point x="48" y="588"/>
      <point x="130" y="500"/>
    </contour>
  </outline>
</glyph>
<glyph name="hyphenationpoint" format="2">
  <advance width="382"/>
  <unicode hex="2027"/>
  <note>
uni2027
</note>
  <outline>
    <contour>
      <point x="156" y="476" type="curve" smooth="yes"/>
      <point x="256" y="476"/>
      <point x="329" y="537"/>
      <point x="344" y="625" type="curve" smooth="yes"/>
      <point x="360" y="713"/>
      <point x="309" y="774"/>
      <point x="209" y="774" type="curve" smooth="yes"/>
      <point x="109" y="774"/>
      <point x="36" y="713"/>
      <point x="20" y="625" type="curve" smooth="yes"/>
      <point x="5" y="537"/>
      <point x="56" y="476"/>
    </contour>
  </outline>
</glyph>
<glyph name="perthousand" format="2">
  <advance width="1962"/>
  <unicode hex="2030"/>
  <note>
uni2030
</note>
  <outline>
    <contour>
      <point x="298" y="109" type="line"/>
      <point x="1210" y="1247" type="line"/>
      <point x="1082" y="1323" type="line"/>
      <point x="171" y="185" type="line"/>
    </contour>
    <contour>
      <point x="965" y="146" type="curve" smooth="yes"/>
      <point x="894" y="146"/>
      <point x="850" y="203"/>
      <point x="863" y="279" type="curve" smooth="yes"/>
      <point x="877" y="354" type="line" smooth="yes"/>
      <point x="891" y="438"/>
      <point x="950" y="490"/>
      <point x="1024" y="490" type="curve" smooth="yes"/>
      <point x="1098" y="490"/>
      <point x="1138" y="437"/>
      <point x="1124" y="357" type="curve" smooth="yes"/>
      <point x="1111" y="281" type="line" smooth="yes"/>
      <point x="1095" y="191"/>
      <point x="1046" y="146"/>
    </contour>
    <contour>
      <point x="370" y="966" type="curve" smooth="yes"/>
      <point x="292" y="966"/>
      <point x="254" y="1020"/>
      <point x="268" y="1099" type="curve" smooth="yes"/>
      <point x="281" y="1171" type="line" smooth="yes"/>
      <point x="296" y="1256"/>
      <point x="352" y="1309"/>
      <point x="428" y="1309" type="curve" smooth="yes"/>
      <point x="503" y="1309"/>
      <point x="543" y="1255"/>
      <point x="528" y="1175" type="curve" smooth="yes"/>
      <point x="516" y="1102" type="line" smooth="yes"/>
      <point x="501" y="1019"/>
      <point x="444" y="966"/>
    </contour>
    <contour>
      <point x="340" y="800" type="curve" smooth="yes"/>
      <point x="526" y="800"/>
      <point x="677" y="926"/>
      <point x="708" y="1099" type="curve" smooth="yes"/>
      <point x="720" y="1169" type="line" smooth="yes"/>
      <point x="753" y="1353"/>
      <point x="645" y="1476"/>
      <point x="457" y="1476" type="curve" smooth="yes"/>
      <point x="280" y="1476"/>
      <point x="134" y="1350"/>
      <point x="103" y="1175" type="curve" smooth="yes"/>
      <point x="91" y="1106" type="line" smooth="yes"/>
      <point x="59" y="923"/>
      <point x="163" y="800"/>
    </contour>
    <contour>
      <point x="936" y="-20" type="curve" smooth="yes"/>
      <point x="1032" y="-20"/>
      <point x="1114" y="15"/>
      <point x="1180" y="85" type="curve"/>
      <point x="1222" y="15"/>
      <point x="1292" y="-20"/>
      <point x="1391" y="-20" type="curve" smooth="yes"/>
      <point x="1580" y="-20"/>
      <point x="1728" y="108"/>
      <point x="1758" y="279" type="curve" smooth="yes"/>
      <point x="1771" y="350" type="line" smooth="yes"/>
      <point x="1804" y="537"/>
      <point x="1692" y="657"/>
      <point x="1508" y="657" type="curve" smooth="yes"/>
      <point x="1411" y="657"/>
      <point x="1329" y="622"/>
      <point x="1263" y="552" type="curve"/>
      <point x="1221" y="622"/>
      <point x="1151" y="657"/>
      <point x="1053" y="657" type="curve" smooth="yes"/>
      <point x="866" y="657"/>
      <point x="714" y="529"/>
      <point x="684" y="357" type="curve" smooth="yes"/>
      <point x="671" y="283" type="line" smooth="yes"/>
      <point x="640" y="107"/>
      <point x="746" y="-20"/>
    </contour>
    <contour>
      <point x="1420" y="146" type="curve" smooth="yes"/>
      <point x="1347" y="146"/>
      <point x="1306" y="207"/>
      <point x="1318" y="279" type="curve" smooth="yes"/>
      <point x="1332" y="354" type="line" smooth="yes"/>
      <point x="1346" y="438"/>
      <point x="1405" y="490"/>
      <point x="1479" y="490" type="curve" smooth="yes"/>
      <point x="1553" y="490"/>
      <point x="1593" y="437"/>
      <point x="1579" y="357" type="curve" smooth="yes"/>
      <point x="1566" y="281" type="line" smooth="yes"/>
      <point x="1550" y="191"/>
      <point x="1501" y="146"/>
    </contour>
  </outline>
</glyph>
<glyph name="guilsinglleft" format="2">
  <advance width="614"/>
  <unicode hex="2039"/>
  <note>
uni2039
</note>
  <outline>
    <contour>
      <point x="219" y="125" type="line"/>
      <point x="405" y="125" type="line"/>
      <point x="236" y="524" type="line"/>
      <point x="546" y="924" type="line"/>
      <point x="360" y="924" type="line"/>
      <point x="11" y="534" type="line"/>
      <point x="8" y="515" type="line"/>
    </contour>
  </outline>
</glyph>
<glyph name="guilsinglright" format="2">
  <advance width="614"/>
  <unicode hex="203A"/>
  <note>
uni203A
</note>
  <outline>
    <contour>
      <point x="-89" y="124" type="line"/>
      <point x="98" y="124" type="line"/>
      <point x="447" y="514" type="line"/>
      <point x="450" y="533" type="line"/>
      <point x="239" y="923" type="line"/>
      <point x="52" y="923" type="line"/>
      <point x="221" y="523" type="line"/>
    </contour>
  </outline>
</glyph>
<glyph name="fraction" format="2">
  <advance width="931"/>
  <unicode hex="2044"/>
  <note>
uni2044
</note>
  <outline>
    <contour>
      <point x="-1" y="109" type="line"/>
      <point x="911" y="1247" type="line"/>
      <point x="783" y="1323" type="line"/>
      <point x="-128" y="185" type="line"/>
    </contour>
  </outline>
</glyph>
<glyph name="euro" format="2">
  <advance width="1150"/>
  <unicode hex="20AC"/>
  <note>
uni20AC
</note>
  <outline>
    <contour>
      <point x="642" y="-19" type="curve" smooth="yes"/>
      <point x="730" y="-19"/>
      <point x="817" y="-9"/>
      <point x="903" y="10" type="curve"/>
      <point x="910" y="252" type="line"/>
      <point x="849" y="231"/>
      <point x="784" y="221"/>
      <point x="714" y="221" type="curve" smooth="yes"/>
      <point x="508" y="221"/>
      <point x="431" y="320"/>
      <point x="459" y="516" type="curve"/>
      <point x="794" y="516" type="line"/>
      <point x="821" y="668" type="line"/>
      <point x="486" y="668" type="line"/>
      <point x="508" y="792" type="line"/>
      <point x="843" y="792" type="line"/>
      <point x="870" y="944" type="line"/>
      <point x="537" y="944" type="line"/>
      <point x="589" y="1137"/>
      <point x="709" y="1233"/>
      <point x="898" y="1233" type="curve" smooth="yes"/>
      <point x="958" y="1233"/>
      <point x="1018" y="1222"/>
      <point x="1077" y="1201" type="curve"/>
      <point x="1156" y="1444" type="line"/>
      <point x="1072" y="1465"/>
      <point x="995" y="1475"/>
      <point x="925" y="1475" type="curve" smooth="yes"/>
      <point x="576" y="1475"/>
      <point x="318" y="1280"/>
      <point x="236" y="944" type="curve"/>
      <point x="65" y="944" type="line"/>
      <point x="38" y="792" type="line"/>
      <point x="207" y="792" type="line"/>
      <point x="185" y="668" type="line"/>
      <point x="16" y="668" type="line"/>
      <point x="-11" y="516" type="line"/>
      <point x="158" y="516" type="line"/>
      <point x="110" y="180"/>
      <point x="291" y="-19"/>
    </contour>
  </outline>
</glyph>
<glyph name="product" format="2">
  <advance width="1422"/>
  <unicode hex="220F"/>
  <note>
uni220F
</note>
  <outline>
    <contour>
      <point x="-71" y="-253" type="line"/>
      <point x="219" y="-253" type="line"/>
      <point x="480" y="1228" type="line"/>
      <point x="999" y="1228" type="line"/>
      <point x="738" y="-253" type="line"/>
      <point x="1028" y="-253" type="line"/>
      <point x="1329" y="1456" type="line"/>
      <point x="230" y="1456" type="line"/>
    </contour>
  </outline>
</glyph>
<glyph name="summation" format="2">
  <advance width="1199"/>
  <unicode hex="2211"/>
  <note>
uni2211
</note>
  <outline>
    <contour>
      <point x="-181" y="-269" type="line"/>
      <point x="998" y="-269" type="line"/>
      <point x="1039" y="-36" type="line"/>
      <point x="257" y="-36" type="line"/>
      <point x="845" y="595" type="line"/>
      <point x="482" y="1222" type="line"/>
      <point x="1226" y="1222" type="line"/>
      <point x="1267" y="1456" type="line"/>
      <point x="123" y="1456" type="line"/>
      <point x="96" y="1305" type="line"/>
      <point x="542" y="599" type="line"/>
      <point x="-155" y="-118" type="line"/>
    </contour>
  </outline>
</glyph>
<glyph name="minus" format="2">
  <advance width="1170"/>
  <unicode hex="2212"/>
  <note>
uni00B1
</note>
  <outline>
    <contour>
      <point x="47" y="516" type="line"/>
      <point x="910" y="516" type="line"/>
      <point x="952" y="752" type="line"/>
      <point x="89" y="752" type="line"/>
    </contour>
  </outline>
</glyph>
<glyph name="radical" format="2">
  <advance width="1221"/>
  <unicode hex="221A"/>
  <note>
uni221A
</note>
  <outline>
    <contour>
      <point x="276" y="0" type="line"/>
      <point x="522" y="0" type="line"/>
      <point x="1201" y="1456" type="line"/>
      <point x="970" y="1456" type="line"/>
      <point x="443" y="294" type="line"/>
      <point x="386" y="759" type="line"/>
      <point x="-2" y="759" type="line"/>
      <point x="-44" y="523" type="line"/>
      <point x="182" y="523" type="line"/>
    </contour>
  </outline>
</glyph>
<glyph name="infinity" format="2">
  <advance width="2106"/>
  <unicode hex="221E"/>
  <note>
uni221E
</note>
  <outline>
    <contour>
      <point x="414" y="-20" type="curve" smooth="yes"/>
      <point x="606" y="-20"/>
      <point x="778" y="84"/>
      <point x="930" y="292" type="curve"/>
      <point x="1008" y="84"/>
      <point x="1143" y="-20"/>
      <point x="1336" y="-20" type="curve" smooth="yes"/>
      <point x="1488" y="-20"/>
      <point x="1624" y="36"/>
      <point x="1730" y="131" type="curve" smooth="yes"/>
      <point x="1841" y="230"/>
      <point x="1919" y="370"/>
      <point x="1948" y="530" type="curve" smooth="yes"/>
      <point x="1979" y="708"/>
      <point x="1950" y="853"/>
      <point x="1873" y="953" type="curve" smooth="yes"/>
      <point x="1799" y="1048"/>
      <point x="1683" y="1102"/>
      <point x="1536" y="1102" type="curve" smooth="yes"/>
      <point x="1346" y="1102"/>
      <point x="1170" y="1004"/>
      <point x="1019" y="799" type="curve"/>
      <point x="942" y="1002"/>
      <point x="798" y="1102"/>
      <point x="610" y="1102" type="curve" smooth="yes"/>
      <point x="445" y="1101"/>
      <point x="311" y="1021"/>
      <point x="211" y="918" type="curve" smooth="yes"/>
      <point x="88" y="792"/>
      <point x="15" y="633"/>
      <point x="0" y="550" type="curve" smooth="yes"/>
      <point x="-36" y="344"/>
      <point x="11" y="179"/>
      <point x="120" y="81" type="curve" smooth="yes"/>
      <point x="193" y="16"/>
      <point x="293" y="-20"/>
    </contour>
    <contour>
      <point x="471" y="220" type="curve" smooth="yes"/>
      <point x="318" y="220"/>
      <point x="245" y="345"/>
      <point x="278" y="530" type="curve" smooth="yes"/>
      <point x="316" y="745"/>
      <point x="435" y="861"/>
      <point x="582" y="861" type="curve" smooth="yes"/>
      <point x="771" y="861"/>
      <point x="842" y="624"/>
      <point x="831" y="562" type="curve"/>
      <point x="826" y="533" type="line" smooth="yes"/>
      <point x="818" y="484"/>
      <point x="664" y="220"/>
    </contour>
    <contour>
      <point x="1363" y="220" type="curve" smooth="yes"/>
      <point x="1169" y="220"/>
      <point x="1108" y="481"/>
      <point x="1117" y="533" type="curve" smooth="yes"/>
      <point x="1122" y="562" type="line" smooth="yes"/>
      <point x="1134" y="626"/>
      <point x="1292" y="861"/>
      <point x="1478" y="861" type="curve" smooth="yes"/>
      <point x="1625" y="861"/>
      <point x="1702" y="737"/>
      <point x="1669" y="550" type="curve" smooth="yes"/>
      <point x="1632" y="339"/>
      <point x="1515" y="220"/>
    </contour>
  </outline>
</glyph>
<glyph name="integral" format="2">
  <advance width="524"/>
  <unicode hex="222B"/>
  <note>
uni222B
</note>
  <outline>
    <contour>
      <point x="-215" y="-437" type="curve" smooth="yes"/>
      <point x="25" y="-437"/>
      <point x="189" y="-303"/>
      <point x="234" y="-47" type="curve" smooth="yes"/>
      <point x="449" y="1171" type="line" smooth="yes"/>
      <point x="467" y="1273"/>
      <point x="525" y="1324"/>
      <point x="623" y="1324" type="curve" smooth="yes"/>
      <point x="659" y="1324"/>
      <point x="691" y="1321"/>
      <point x="718" y="1314" type="curve"/>
      <point x="781" y="1536" type="line"/>
      <point x="720" y="1550"/>
      <point x="668" y="1557"/>
      <point x="626" y="1557" type="curve" smooth="yes"/>
      <point x="371" y="1557"/>
      <point x="203" y="1421"/>
      <point x="160" y="1176" type="curve" smooth="yes"/>
      <point x="-58" y="-59" type="line"/>
      <point x="-78" y="-155"/>
      <point x="-131" y="-203"/>
      <point x="-217" y="-203" type="curve" smooth="yes"/>
      <point x="-241" y="-203"/>
      <point x="-269" y="-199"/>
      <point x="-299" y="-191" type="curve"/>
      <point x="-356" y="-419" type="line"/>
      <point x="-312" y="-431"/>
      <point x="-266" y="-437"/>
    </contour>
  </outline>
</glyph>
<glyph name="approxequal" format="2">
  <advance width="1154"/>
  <unicode hex="2248"/>
  <note>
uni2248
</note>
  <outline>
    <contour>
      <point x="761" y="661" type="curve" smooth="yes"/>
      <point x="840" y="661"/>
      <point x="920" y="696"/>
      <point x="1000" y="767" type="curve"/>
      <point x="1042" y="1004" type="line"/>
      <point x="960" y="920"/>
      <point x="877" y="878"/>
      <point x="792" y="878" type="curve" smooth="yes"/>
      <point x="733" y="878"/>
      <point x="679" y="891"/>
      <point x="629" y="916" type="curve" smooth="yes"/>
      <point x="503" y="984" type="line" smooth="yes"/>
      <point x="451" y="1009"/>
      <point x="395" y="1021"/>
      <point x="336" y="1020" type="curve" smooth="yes"/>
      <point x="248" y="1020"/>
      <point x="147" y="981"/>
      <point x="71" y="914" type="curve"/>
      <point x="30" y="677" type="line"/>
      <point x="103" y="752"/>
      <point x="213" y="803"/>
      <point x="305" y="803" type="curve" smooth="yes"/>
      <point x="364" y="804"/>
      <point x="419" y="792"/>
      <point x="471" y="767" type="curve" smooth="yes"/>
      <point x="597" y="699" type="line" smooth="yes"/>
      <point x="648" y="674"/>
      <point x="702" y="661"/>
    </contour>
    <contour>
      <point x="680" y="241" type="curve" smooth="yes"/>
      <point x="764" y="241"/>
      <point x="846" y="276"/>
      <point x="926" y="347" type="curve"/>
      <point x="968" y="584" type="line"/>
      <point x="886" y="500"/>
      <point x="800" y="458"/>
      <point x="710" y="458" type="curve" smooth="yes"/>
      <point x="653" y="458"/>
      <point x="600" y="470"/>
      <point x="551" y="494" type="curve" smooth="yes"/>
      <point x="423" y="563" type="line" smooth="yes"/>
      <point x="371" y="589"/>
      <point x="314" y="601"/>
      <point x="254" y="600" type="curve" smooth="yes"/>
      <point x="163" y="600"/>
      <point x="78" y="565"/>
      <point x="-3" y="494" type="curve"/>
      <point x="-44" y="257" type="line"/>
      <point x="34" y="337"/>
      <point x="136" y="383"/>
      <point x="224" y="383" type="curve" smooth="yes"/>
      <point x="283" y="384"/>
      <point x="338" y="372"/>
      <point x="390" y="347" type="curve" smooth="yes"/>
      <point x="516" y="279" type="line" smooth="yes"/>
      <point x="567" y="254"/>
      <point x="621" y="241"/>
    </contour>
  </outline>
</glyph>
<glyph name="notequal" format="2">
  <advance width="1124"/>
  <unicode hex="2260"/>
  <note>
uni2260
</note>
  <outline>
    <contour>
      <point x="186" y="97" type="line"/>
      <point x="340" y="313" type="line"/>
      <point x="894" y="313" type="line"/>
      <point x="936" y="549" type="line"/>
      <point x="509" y="549" type="line"/>
      <point x="651" y="746" type="line"/>
      <point x="971" y="746" type="line"/>
      <point x="1012" y="982" type="line"/>
      <point x="819" y="982" type="line"/>
      <point x="927" y="1132" type="line"/>
      <point x="819" y="1195" type="line"/>
      <point x="666" y="982" type="line"/>
      <point x="118" y="982" type="line"/>
      <point x="77" y="746" type="line"/>
      <point x="498" y="746" type="line"/>
      <point x="357" y="549" type="line"/>
      <point x="42" y="549" type="line"/>
      <point x="0" y="313" type="line"/>
      <point x="188" y="313" type="line"/>
      <point x="78" y="159" type="line"/>
    </contour>
  </outline>
</glyph>
<glyph name="lozenge" format="2">
  <advance width="1032"/>
  <unicode hex="25CA"/>
  <note>
uni25CA
</note>
  <outline>
    <contour>
      <point x="209" y="0" type="line"/>
      <point x="456" y="0" type="line"/>
      <point x="952" y="727" type="line"/>
      <point x="712" y="1456" type="line"/>
      <point x="465" y="1456" type="line"/>
      <point x="-32" y="727" type="line"/>
    </contour>
    <contour>
      <point x="387" y="303" type="line"/>
      <point x="255" y="727" type="line"/>
      <point x="534" y="1152" type="line"/>
      <point x="664" y="727" type="line"/>
    </contour>
  </outline>
</glyph>
<glyph name="uniEE02" format="2">
  <advance width="655"/>
  <unicode hex="EE02"/>
  <note>
uniEE02
</note>
  <outline>
    <contour>
      <point x="328" y="653" type="line"/>
      <point x="491" y="653" type="line"/>
      <point x="567" y="1081" type="line" name="❌"/>
      <point x="404" y="1081" type="line" name="❌"/>
    </contour>
    <contour>
      <point x="14" y="653" type="line"/>
      <point x="177" y="653" type="line"/>
      <point x="253" y="1081" type="line" name="❌"/>
      <point x="90" y="1081" type="line" name="❌"/>
    </contour>
  </outline>
</glyph>
<glyph name="uniF6C3" format="2">
  <advance width="515"/>
  <unicode hex="F6C3"/>
  <note>
uniF6C3
</note>
  <outline>
    <contour>
      <point x="-22" y="-149" type="line"/>
      <point x="75" y="-66"/>
      <point x="163" y="80"/>
      <point x="185" y="204" type="curve" smooth="yes"/>
      <point x="198" y="275" type="line"/>
      <point x="-14" y="275" type="line"/>
      <point x="-32" y="172" type="line" smooth="yes"/>
      <point x="-49" y="87"/>
      <point x="-89" y="7"/>
      <point x="-151" y="-70" type="curve"/>
    </contour>
  </outline>
</glyph>
<glyph name="_num.bar" format="2">
  <advance width="1126"/>
  <outline>
    <contour>
      <point x="80" y="1535" type="line" name="❌"/>
      <point x="1206" y="1535" type="line" name="❌"/>
      <point x="1237" y="1710" type="line"/>
      <point x="111" y="1710" type="line"/>
    </contour>
    <contour>
      <point x="-229" y="-215" type="line"/>
      <point x="897" y="-215" type="line"/>
      <point x="928" y="-40" type="line"/>
      <point x="-198" y="-40" type="line"/>
    </contour>
  </outline>
</glyph>
<glyph name="_smart.aGlhat" format="2">
  <anchor x="226" y="1242" name="_aGlhat"/>
  <outline>
    <contour>
      <point x="278" y="1226" type="line"/>
      <point x="136" y="1536" type="line"/>
      <point x="-179" y="1536" type="line"/>
      <point x="43" y="1226" type="line"/>
    </contour>
  </outline>
</glyph>
<glyph name="_smart.cha.caps" format="2">
  <anchor x="-190" y="34" name="_cha.caps"/>
  <outline>
    <contour>
      <point x="-543" y="8" type="curve" smooth="yes"/>
      <point x="-451" y="8"/>
      <point x="-386" y="64"/>
      <point x="-371" y="144" type="curve" smooth="yes"/>
      <point x="-357" y="224"/>
      <point x="-403" y="281"/>
      <point x="-495" y="281" type="curve" smooth="yes"/>
      <point x="-584" y="281"/>
      <point x="-653" y="224"/>
      <point x="-667" y="144" type="curve" smooth="yes"/>
      <point x="-682" y="64"/>
      <point x="-634" y="8"/>
    </contour>
    <contour>
      <point x="167" y="8" type="curve" smooth="yes"/>
      <point x="259" y="8"/>
      <point x="324" y="64"/>
      <point x="339" y="144" type="curve" smooth="yes"/>
      <point x="353" y="224"/>
      <point x="307" y="281"/>
      <point x="215" y="281" type="curve" smooth="yes"/>
      <point x="126" y="281"/>
      <point x="57" y="224"/>
      <point x="43" y="144" type="curve" smooth="yes"/>
      <point x="28" y="64"/>
      <point x="76" y="8"/>
    </contour>
  </outline>
</glyph>
<glyph name="_smart.cha" format="2">
  <anchor x="-190" y="34" name="_cha"/>
  <outline>
    <contour>
      <point x="-829" y="-38"/>
      <point x="-533" y="-38"/>
      <point x="-501" y="144" type="curve" smooth="yes"/>
      <point x="-469" y="328"/>
      <point x="-765" y="328"/>
      <point x="-797" y="144" type="curve" smooth="yes"/>
    </contour>
    <contour>
      <point x="54" y="-38"/>
      <point x="350" y="-38"/>
      <point x="382" y="144" type="curve" smooth="yes"/>
      <point x="414" y="328"/>
      <point x="118" y="328"/>
      <point x="86" y="144" type="curve" smooth="yes"/>
    </contour>
  </outline>
</glyph>
<glyph name="_smart.da.caps" format="2">
  <advance width="1292"/>
  <anchor x="84" y="17" name="_da.caps"/>
  <outline>
    <contour>
      <point x="832" y="1" type="curve" name="❌"/>
      <point x="1071" y="-3" type="line" name="❌"/>
      <point x="1101" y="148"/>
      <point x="1052" y="452"/>
      <point x="697" y="452" type="curve" smooth="yes"/>
      <point x="99" y="452" type="line"/>
      <point x="66" y="267" type="line"/>
      <point x="584" y="267" type="line" smooth="yes"/>
      <point x="864" y="267"/>
      <point x="849" y="97"/>
    </contour>
  </outline>
</glyph>
<glyph name="_smart.da" format="2">
  <anchor x="-159" y="156" name="_da"/>
  <outline>
    <contour>
      <point x="-335" y="-78" type="line"/>
      <point x="478" y="-78" type="line"/>
      <point x="520" y="155" type="line"/>
      <point x="-293" y="155" type="line"/>
    </contour>
  </outline>
</glyph>
<glyph name="_smart.di" format="2">
  <anchor x="-324" y="224" name="_di"/>
  <outline>
    <contour>
      <point x="-172" y="414" type="line"/>
      <point x="-241" y="24" type="line"/>
      <point x="-52" y="24" type="line"/>
      <point x="17" y="414" type="line"/>
    </contour>
    <contour>
      <point x="100" y="14" type="curve" smooth="yes"/>
      <point x="192" y="14"/>
      <point x="258" y="70"/>
      <point x="272" y="150" type="curve" smooth="yes"/>
      <point x="286" y="230"/>
      <point x="240" y="287"/>
      <point x="148" y="287" type="curve" smooth="yes"/>
      <point x="59" y="287"/>
      <point x="-10" y="230"/>
      <point x="-24" y="150" type="curve" smooth="yes"/>
      <point x="-38" y="70"/>
      <point x="9" y="14"/>
    </contour>
  </outline>
</glyph>
<glyph name="_smart.du" format="2">
  <anchor x="-324" y="224" name="_du"/>
  <outline>
    <contour>
      <point x="-166" y="-68" type="line"/>
      <point x="-101" y="299" type="line"/>
      <point x="-310" y="299" type="line"/>
      <point x="-375" y="-68" type="line"/>
    </contour>
    <contour>
      <point x="24" y="48" type="curve" smooth="yes"/>
      <point x="116" y="48"/>
      <point x="182" y="104"/>
      <point x="196" y="184" type="curve" smooth="yes"/>
      <point x="210" y="264"/>
      <point x="164" y="321"/>
      <point x="72" y="321" type="curve" smooth="yes"/>
      <point x="-17" y="321"/>
      <point x="-86" y="264"/>
      <point x="-100" y="184" type="curve" smooth="yes"/>
      <point x="-114" y="104"/>
      <point x="-67" y="48"/>
    </contour>
  </outline>
</glyph>
<glyph name="_smart.eGl" format="2">
  <anchor x="280" y="1360" name="_eGl"/>
  <anchor x="592" y="73" name="_hee"/>
  <anchor x="998" y="673" name="_hu"/>
  <outline>
    <contour>
      <point x="78" y="1298" type="line"/>
      <point x="285" y="1449" type="line"/>
      <point x="371" y="1865" type="line"/>
      <point x="94" y="1662" type="line"/>
    </contour>
  </outline>
</glyph>
<glyph name="_smart.fa" format="2">
  <anchor x="252" y="54" name="_fa"/>
  <outline>
    <contour>
      <point x="227" y="603" type="line"/>
      <point x="-14" y="603" type="line"/>
      <point x="-14" y="520" type="line"/>
      <point x="62" y="520" type="line"/>
      <point x="61" y="45" type="line"/>
      <point x="226" y="45" type="line"/>
    </contour>
  </outline>
</glyph>
<glyph name="_smart.haa" format="2">
  <anchor x="-136" y="315" name="_haa"/>
  <outline>
    <contour>
      <point x="-373" y="-91" type="line"/>
      <point x="-83" y="-91" type="line"/>
      <point x="-12" y="313" type="line"/>
      <point x="-302" y="313" type="line"/>
    </contour>
  </outline>
</glyph>
<glyph name="_smart.hat.002" format="2">
  <anchor x="352" y="8" name="_hat.002"/>
  <outline>
    <contour>
      <point x="22" y="1" type="line" name="❌"/>
      <point x="686" y="1" type="line" name="❌"/>
      <point x="714" y="156" type="line"/>
      <point x="50" y="156" type="line"/>
    </contour>
  </outline>
</glyph>
<glyph name="_smart.hat.cap" format="2">
  <advance width="600"/>
  <anchor x="397" y="1692" name="_hat.cap"/>
  <outline>
    <contour>
      <point x="91" y="1689" type="line"/>
      <point x="696" y="1689" type="line"/>
      <point x="718" y="1813" type="line"/>
      <point x="113" y="1813" type="line"/>
    </contour>
  </outline>
</glyph>
<glyph name="_smart.hat.caps" format="2">
  <anchor x="392" y="1639" name="_hat.cap"/>
  <anchor x="134" y="1637" name="_hat.caps"/>
  <outline>
    <contour>
      <point x="-185" y="1642" type="line"/>
      <point x="489" y="1642" type="line"/>
      <point x="525" y="1845" type="line"/>
      <point x="-149" y="1845" type="line"/>
    </contour>
  </outline>
</glyph>
<glyph name="_smart.hat" format="2">
  <anchor x="-178" y="12" name="_hat"/>
  <outline>
    <contour>
      <point x="-518" y="1" type="line" name="❌"/>
      <point x="146" y="1" type="line" name="❌"/>
      <point x="174" y="156" type="line"/>
      <point x="-490" y="156" type="line"/>
    </contour>
  </outline>
</glyph>
<glyph name="_smart.he" format="2">
  <anchor x="-197" y="-46" name="_he"/>
  <outline>
    <contour>
      <point x="-369" y="-182" type="curve" smooth="yes"/>
      <point x="-277" y="-182"/>
      <point x="-211" y="-126"/>
      <point x="-197" y="-46" type="curve" smooth="yes"/>
      <point x="-183" y="34"/>
      <point x="-229" y="91"/>
      <point x="-321" y="91" type="curve" smooth="yes"/>
      <point x="-410" y="91"/>
      <point x="-479" y="34"/>
      <point x="-493" y="-46" type="curve" smooth="yes"/>
      <point x="-507" y="-126"/>
      <point x="-460" y="-182"/>
    </contour>
  </outline>
</glyph>
<glyph name="_smart.he.left.inner" format="2">
  <anchor x="-198" y="-41" name="_he.left.inner"/>
  <outline>
    <contour>
      <point x="-80" y="-157" type="curve" smooth="yes"/>
      <point x="-5" y="-157"/>
      <point x="49" y="-111"/>
      <point x="60" y="-46" type="curve" smooth="yes"/>
      <point x="72" y="19"/>
      <point x="34" y="66"/>
      <point x="-41" y="66" type="curve" smooth="yes"/>
      <point x="-114" y="66"/>
      <point x="-170" y="19"/>
      <point x="-182" y="-46" type="curve" smooth="yes"/>
      <point x="-193" y="-111"/>
      <point x="-154" y="-157"/>
    </contour>
  </outline>
</glyph>
<glyph name="_smart.he.left.outer" format="2">
  <anchor x="-198" y="-41" name="_he.left.outer"/>
  <outline>
    <contour>
      <point x="-369" y="-182" type="curve" smooth="yes"/>
      <point x="-277" y="-182"/>
      <point x="-211" y="-126"/>
      <point x="-197" y="-46" type="curve" smooth="yes"/>
      <point x="-183" y="34"/>
      <point x="-229" y="91"/>
      <point x="-321" y="91" type="curve" smooth="yes"/>
      <point x="-410" y="91"/>
      <point x="-479" y="34"/>
      <point x="-493" y="-46" type="curve" smooth="yes"/>
      <point x="-507" y="-126"/>
      <point x="-460" y="-182"/>
    </contour>
  </outline>
</glyph>
<glyph name="_smart.hi" format="2">
  <anchor x="-177" y="115" name="_hi"/>
  <outline>
    <contour>
      <point x="-49" y="-22" type="curve" smooth="yes"/>
      <point x="43" y="-22"/>
      <point x="109" y="34"/>
      <point x="123" y="114" type="curve" smooth="yes"/>
      <point x="137" y="194"/>
      <point x="91" y="251"/>
      <point x="-1" y="251" type="curve" smooth="yes"/>
      <point x="-90" y="251"/>
      <point x="-159" y="194"/>
      <point x="-173" y="114" type="curve" smooth="yes"/>
      <point x="-187" y="34"/>
      <point x="-140" y="-22"/>
    </contour>
  </outline>
</glyph>
<glyph name="_smart.ho" format="2">
  <anchor x="-125" y="350" name="_ho"/>
  <outline>
    <contour>
      <point x="-303" y="-5" type="line"/>
      <point x="-3" y="-5" type="line"/>
      <point x="60" y="349" type="line"/>
      <point x="-240" y="349" type="line"/>
    </contour>
  </outline>
</glyph>
